<svg width="116" height="32" viewBox="0 0 116 32" fill="none" xmlns="http://www.w3.org/2000/svg">
<path d="M45.83 6V13H44.9V6.88H41.68V13H40.75V6H45.83ZM50.002 7.87C50.702 7.87 51.2987 8.12667 51.792 8.64C52.2854 9.14667 52.532 9.76667 52.532 10.5C52.532 11.2333 52.2854 11.8567 51.792 12.37C51.2987 12.8767 50.702 13.13 50.002 13.13C49.1754 13.13 48.5454 12.8 48.112 12.14V15H47.242V8H48.112V8.86C48.5454 8.2 49.1754 7.87 50.002 7.87ZM49.892 12.29C50.392 12.29 50.812 12.12 51.152 11.78C51.492 11.4333 51.662 11.0067 51.662 10.5C51.662 9.99333 51.492 9.57 51.152 9.23C50.812 8.88333 50.392 8.71 49.892 8.71C49.3854 8.71 48.962 8.88333 48.622 9.23C48.282 9.57 48.112 9.99333 48.112 10.5C48.112 11.0067 48.282 11.4333 48.622 11.78C48.962 12.12 49.3854 12.29 49.892 12.29ZM57.2002 8H57.9002V13H57.0402V9.49L54.2702 13H53.5702V8H54.4302V11.51L57.2002 8ZM63.3945 8V13H62.5245V8.84H60.5545V10.88C60.5545 11.7 60.3878 12.2733 60.0545 12.6C59.7278 12.92 59.2645 13.0533 58.6645 13V12.18C59.0045 12.2267 59.2578 12.1533 59.4245 11.96C59.5978 11.76 59.6845 11.3933 59.6845 10.86V8H63.3945ZM68.9327 12.37C68.4194 12.8767 67.7961 13.13 67.0627 13.13C66.3294 13.13 65.7061 12.8767 65.1927 12.37C64.6861 11.8633 64.4327 11.24 64.4327 10.5C64.4327 9.76 64.6861 9.13667 65.1927 8.63C65.7061 8.12333 66.3294 7.87 67.0627 7.87C67.7961 7.87 68.4194 8.12333 68.9327 8.63C69.4461 9.13667 69.7027 9.76 69.7027 10.5C69.7027 11.24 69.4461 11.8633 68.9327 12.37ZM67.0627 12.28C67.5627 12.28 67.9827 12.11 68.3227 11.77C68.6627 11.43 68.8327 11.0067 68.8327 10.5C68.8327 9.99333 68.6627 9.57 68.3227 9.23C67.9827 8.89 67.5627 8.72 67.0627 8.72C66.5694 8.72 66.1527 8.89 65.8127 9.23C65.4727 9.57 65.3027 9.99333 65.3027 10.5C65.3027 11.0067 65.4727 11.43 65.8127 11.77C66.1527 12.11 66.5694 12.28 67.0627 12.28ZM76.478 13H75.458L73.588 10.63V13H72.728V10.63L70.858 13H69.848L71.938 10.42L69.948 8H70.958L72.728 10.21V8H73.588V10.21L75.358 8H76.378L74.378 10.42L76.478 13ZM77.52 10.9C77.6067 11.3467 77.81 11.6933 78.13 11.94C78.4567 12.1867 78.8567 12.31 79.33 12.31C79.99 12.31 80.47 12.0667 80.77 11.58L81.51 12C81.0233 12.7533 80.29 13.13 79.31 13.13C78.5167 13.13 77.87 12.8833 77.37 12.39C76.8767 11.89 76.63 11.26 76.63 10.5C76.63 9.74667 76.8733 9.12 77.36 8.62C77.8467 8.12 78.4767 7.87 79.25 7.87C79.9833 7.87 80.58 8.13 81.04 8.65C81.5067 9.16333 81.74 9.78333 81.74 10.51C81.74 10.6367 81.73 10.7667 81.71 10.9H77.52ZM79.25 8.69C78.7833 8.69 78.3967 8.82333 78.09 9.09C77.7833 9.35 77.5933 9.7 77.52 10.14H80.86C80.7867 9.66667 80.6 9.30667 80.3 9.06C80 8.81333 79.65 8.69 79.25 8.69ZM86.2001 8H87.0701V13H86.2001V10.91H83.6101V13H82.7401V8H83.6101V10.08H86.2001V8ZM92.0244 8H92.7244V13H91.8644V9.49L89.0944 13H88.3944V8H89.2544V11.51L92.0244 8ZM94.6587 10.9C94.7453 11.3467 94.9487 11.6933 95.2687 11.94C95.5953 12.1867 95.9953 12.31 96.4687 12.31C97.1287 12.31 97.6087 12.0667 97.9087 11.58L98.6487 12C98.162 12.7533 97.4287 13.13 96.4487 13.13C95.6553 13.13 95.0087 12.8833 94.5087 12.39C94.0153 11.89 93.7687 11.26 93.7687 10.5C93.7687 9.74667 94.012 9.12 94.4987 8.62C94.9853 8.12 95.6153 7.87 96.3887 7.87C97.122 7.87 97.7187 8.13 98.1787 8.65C98.6453 9.16333 98.8787 9.78333 98.8787 10.51C98.8787 10.6367 98.8687 10.7667 98.8487 10.9H94.6587ZM96.3887 8.69C95.922 8.69 95.5353 8.82333 95.2287 9.09C94.922 9.35 94.732 9.7 94.6587 10.14H97.9987C97.9253 9.66667 97.7387 9.30667 97.4387 9.06C97.1387 8.81333 96.7887 8.69 96.3887 8.69ZM43.99 22.43C44.5033 22.6433 44.76 23.03 44.76 23.59C44.76 24.0033 44.62 24.3433 44.34 24.61C44.0667 24.87 43.6733 25 43.16 25H40.66V20H42.96C43.46 20 43.8467 20.1267 44.12 20.38C44.3933 20.6267 44.53 20.9533 44.53 21.36C44.53 21.84 44.35 22.1967 43.99 22.43ZM42.92 20.78H41.51V22.09H42.92C43.4267 22.09 43.68 21.8667 43.68 21.42C43.68 20.9933 43.4267 20.78 42.92 20.78ZM43.11 24.21C43.3633 24.21 43.5567 24.15 43.69 24.03C43.83 23.91 43.9 23.74 43.9 23.52C43.9 23.3133 43.83 23.1533 43.69 23.04C43.5567 22.92 43.3633 22.86 43.11 22.86H41.51V24.21H43.11ZM52.8991 25L52.3291 23.43H49.1791L48.6091 25H47.6191L50.2291 18H51.2791L53.8891 25H52.8991ZM49.4991 22.56H52.0091L50.7491 19.11L49.4991 22.56ZM57.3848 19.87C58.0848 19.87 58.6815 20.1267 59.1748 20.64C59.6682 21.1467 59.9148 21.7667 59.9148 22.5C59.9148 23.2333 59.6682 23.8567 59.1748 24.37C58.6815 24.8767 58.0848 25.13 57.3848 25.13C56.5582 25.13 55.9282 24.8 55.4948 24.14V27H54.6248V20H55.4948V20.86C55.9282 20.2 56.5582 19.87 57.3848 19.87ZM57.2748 24.29C57.7748 24.29 58.1948 24.12 58.5348 23.78C58.8748 23.4333 59.0448 23.0067 59.0448 22.5C59.0448 21.9933 58.8748 21.57 58.5348 21.23C58.1948 20.8833 57.7748 20.71 57.2748 20.71C56.7682 20.71 56.3448 20.8833 56.0048 21.23C55.6648 21.57 55.4948 21.9933 55.4948 22.5C55.4948 23.0067 55.6648 23.4333 56.0048 23.78C56.3448 24.12 56.7682 24.29 57.2748 24.29ZM63.713 19.87C64.413 19.87 65.0096 20.1267 65.503 20.64C65.9963 21.1467 66.243 21.7667 66.243 22.5C66.243 23.2333 65.9963 23.8567 65.503 24.37C65.0096 24.8767 64.413 25.13 63.713 25.13C62.8863 25.13 62.2563 24.8 61.823 24.14V27H60.953V20H61.823V20.86C62.2563 20.2 62.8863 19.87 63.713 19.87ZM63.603 24.29C64.103 24.29 64.523 24.12 64.863 23.78C65.203 23.4333 65.373 23.0067 65.373 22.5C65.373 21.9933 65.203 21.57 64.863 21.23C64.523 20.8833 64.103 20.71 63.603 20.71C63.0963 20.71 62.673 20.8833 62.333 21.23C61.993 21.57 61.823 21.9933 61.823 22.5C61.823 23.0067 61.993 23.4333 62.333 23.78C62.673 24.12 63.0963 24.29 63.603 24.29ZM72.1311 25.13C71.4778 25.13 70.9178 24.9767 70.4511 24.67C69.9911 24.3633 69.6678 23.9433 69.4811 23.41L70.2811 22.95C70.5544 23.7967 71.1778 24.22 72.1511 24.22C72.6311 24.22 72.9978 24.1233 73.2511 23.93C73.5044 23.73 73.6311 23.4667 73.6311 23.14C73.6311 22.8067 73.5044 22.5567 73.2511 22.39C72.9978 22.2233 72.5744 22.0467 71.9811 21.86C71.6878 21.7667 71.4644 21.6933 71.3111 21.64C71.1578 21.58 70.9644 21.4933 70.7311 21.38C70.5044 21.26 70.3344 21.14 70.2211 21.02C70.1078 20.8933 70.0044 20.73 69.9111 20.53C69.8244 20.33 69.7811 20.1033 69.7811 19.85C69.7811 19.2433 69.9944 18.7633 70.4211 18.41C70.8478 18.05 71.3678 17.87 71.9811 17.87C72.5344 17.87 73.0144 18.01 73.4211 18.29C73.8344 18.57 74.1444 18.94 74.3511 19.4L73.5711 19.85C73.2711 19.13 72.7411 18.77 71.9811 18.77C71.6011 18.77 71.2944 18.8633 71.0611 19.05C70.8278 19.2367 70.7111 19.49 70.7111 19.81C70.7111 20.1167 70.8211 20.35 71.0411 20.51C71.2611 20.67 71.6411 20.8367 72.1811 21.01C72.3744 21.07 72.5111 21.1133 72.5911 21.14C72.6711 21.1667 72.7944 21.2133 72.9611 21.28C73.1344 21.3467 73.2611 21.4 73.3411 21.44C73.4211 21.48 73.5278 21.5367 73.6611 21.61C73.8011 21.6833 73.9044 21.7533 73.9711 21.82C74.0378 21.8867 74.1144 21.97 74.2011 22.07C74.2944 22.1633 74.3611 22.26 74.4011 22.36C74.4411 22.46 74.4744 22.5767 74.5011 22.71C74.5344 22.8367 74.5511 22.9733 74.5511 23.12C74.5511 23.7333 74.3278 24.2233 73.8811 24.59C73.4344 24.95 72.8511 25.13 72.1311 25.13ZM78.1359 20.84H76.8059V23.55C76.8059 23.7967 76.8525 23.9733 76.9459 24.08C77.0459 24.18 77.1959 24.2333 77.3959 24.24C77.5959 24.24 77.8425 24.2333 78.1359 24.22V25C77.3759 25.1 76.8192 25.04 76.4659 24.82C76.1125 24.5933 75.9359 24.17 75.9359 23.55V20.84H74.9459V20H75.9359V18.86L76.8059 18.6V20H78.1359V20.84ZM83.132 24.37C82.6186 24.8767 81.9953 25.13 81.262 25.13C80.5286 25.13 79.9053 24.8767 79.392 24.37C78.8853 23.8633 78.632 23.24 78.632 22.5C78.632 21.76 78.8853 21.1367 79.392 20.63C79.9053 20.1233 80.5286 19.87 81.262 19.87C81.9953 19.87 82.6186 20.1233 83.132 20.63C83.6453 21.1367 83.902 21.76 83.902 22.5C83.902 23.24 83.6453 23.8633 83.132 24.37ZM81.262 24.28C81.762 24.28 82.182 24.11 82.522 23.77C82.862 23.43 83.032 23.0067 83.032 22.5C83.032 21.9933 82.862 21.57 82.522 21.23C82.182 20.89 81.762 20.72 81.262 20.72C80.7686 20.72 80.352 20.89 80.012 21.23C79.672 21.57 79.502 21.9933 79.502 22.5C79.502 23.0067 79.672 23.43 80.012 23.77C80.352 24.11 80.7686 24.28 81.262 24.28ZM85.7976 20.84C86.0842 20.22 86.6042 19.91 87.3576 19.91V20.82C86.9309 20.8 86.5642 20.9133 86.2576 21.16C85.9509 21.4067 85.7976 21.8033 85.7976 22.35V25H84.9276V20H85.7976V20.84ZM88.5454 22.9C88.6321 23.3467 88.8354 23.6933 89.1554 23.94C89.4821 24.1867 89.8821 24.31 90.3554 24.31C91.0154 24.31 91.4954 24.0667 91.7954 23.58L92.5354 24C92.0487 24.7533 91.3154 25.13 90.3354 25.13C89.5421 25.13 88.8954 24.8833 88.3954 24.39C87.9021 23.89 87.6554 23.26 87.6554 22.5C87.6554 21.7467 87.8987 21.12 88.3854 20.62C88.8721 20.12 89.5021 19.87 90.2754 19.87C91.0087 19.87 91.6054 20.13 92.0654 20.65C92.5321 21.1633 92.7654 21.7833 92.7654 22.51C92.7654 22.6367 92.7554 22.7667 92.7354 22.9H88.5454ZM90.2754 20.69C89.8087 20.69 89.4221 20.8233 89.1154 21.09C88.8087 21.35 88.6187 21.7 88.5454 22.14H91.8854C91.8121 21.6667 91.6254 21.3067 91.3254 21.06C91.0254 20.8133 90.6754 20.69 90.2754 20.69Z" fill="white"/>
<path d="M25.7834 16.2147C25.7728 14.4441 26.5862 13.1098 28.2288 12.1259C27.3101 10.8278 25.9203 10.1139 24.0882 9.97633C22.3534 9.84134 20.4555 10.9732 19.7606 10.9732C19.0262 10.9732 17.3467 10.0231 16.0253 10.0231C13.2982 10.0646 10.4 12.1674 10.4 16.4457C10.4 17.71 10.6343 19.0158 11.1029 20.3605C11.7294 22.1311 13.9879 26.4691 16.3438 26.399C17.5758 26.3704 18.4471 25.5371 20.0502 25.5371C21.6059 25.5371 22.4114 26.399 23.7854 26.399C26.1624 26.3652 28.2051 22.4218 28.8 20.6461C25.6123 19.1638 25.7834 16.3055 25.7834 16.2147ZM23.0168 8.29669C24.3514 6.73386 24.2303 5.31123 24.1908 4.7998C23.0115 4.8673 21.648 5.5916 20.8714 6.48205C20.0159 7.43739 19.5132 8.6186 19.6211 9.95037C20.8951 10.0464 22.0586 9.40001 23.0168 8.29669Z" fill="white"/>
<rect x="0.25" y="0.25" width="115.5" height="31.5" rx="5.75" stroke="#989898" stroke-width="0.5"/>
</svg>
