<svg width="24" height="24" viewBox="0 0 24 24" fill="none" xmlns="http://www.w3.org/2000/svg">
<g clip-path="url(#clip0_41_448)">
<path fill-rule="evenodd" clip-rule="evenodd" d="M0.628418 24.9874C1.45736 27.3348 3.69568 29.0168 6.32686 29.0168H22.0352C25.3719 29.0168 28.0769 26.3118 28.0769 22.9751V17.7982C25.5559 24.3575 19.2049 29.0143 11.7724 29.0143C7.53703 29.0143 3.65283 27.5021 0.628418 24.9874ZM28.0769 5.26594C27.1906 2.96691 25.8315 0.897059 24.1211 -0.821777C26.43 0.0276181 28.0769 2.24655 28.0769 4.85012V5.26594ZM13.2483 12.1551H16.1018L16.4462 8.60586H13.2483V6.48612C13.2483 5.69739 13.7895 5.5002 14.1339 5.5002H16.3969V2.00022H13.2975C9.80451 2.00022 9.01735 4.56358 9.01735 6.23964V8.55652H7.00027V12.1551H9.01735V22.31H13.2483V12.1551Z" fill="#989898"/>
</g>
<defs>
<clipPath id="clip0_41_448">
<rect width="24" height="24" fill="white"/>
</clipPath>
</defs>
</svg>
