<svg width="116" height="32" viewBox="0 0 116 32" fill="none" xmlns="http://www.w3.org/2000/svg">
<path d="M45.83 6V13H44.9V6.88H41.68V13H40.75V6H45.83ZM50.002 7.87C50.702 7.87 51.2987 8.12667 51.792 8.64C52.2854 9.14667 52.532 9.76667 52.532 10.5C52.532 11.2333 52.2854 11.8567 51.792 12.37C51.2987 12.8767 50.702 13.13 50.002 13.13C49.1754 13.13 48.5454 12.8 48.112 12.14V15H47.242V8H48.112V8.86C48.5454 8.2 49.1754 7.87 50.002 7.87ZM49.892 12.29C50.392 12.29 50.812 12.12 51.152 11.78C51.492 11.4333 51.662 11.0067 51.662 10.5C51.662 9.99333 51.492 9.57 51.152 9.23C50.812 8.88333 50.392 8.71 49.892 8.71C49.3854 8.71 48.962 8.88333 48.622 9.23C48.282 9.57 48.112 9.99333 48.112 10.5C48.112 11.0067 48.282 11.4333 48.622 11.78C48.962 12.12 49.3854 12.29 49.892 12.29ZM57.2002 8H57.9002V13H57.0402V9.49L54.2702 13H53.5702V8H54.4302V11.51L57.2002 8ZM63.3945 8V13H62.5245V8.84H60.5545V10.88C60.5545 11.7 60.3878 12.2733 60.0545 12.6C59.7278 12.92 59.2645 13.0533 58.6645 13V12.18C59.0045 12.2267 59.2578 12.1533 59.4245 11.96C59.5978 11.76 59.6845 11.3933 59.6845 10.86V8H63.3945ZM68.9327 12.37C68.4194 12.8767 67.7961 13.13 67.0627 13.13C66.3294 13.13 65.7061 12.8767 65.1927 12.37C64.6861 11.8633 64.4327 11.24 64.4327 10.5C64.4327 9.76 64.6861 9.13667 65.1927 8.63C65.7061 8.12333 66.3294 7.87 67.0627 7.87C67.7961 7.87 68.4194 8.12333 68.9327 8.63C69.4461 9.13667 69.7027 9.76 69.7027 10.5C69.7027 11.24 69.4461 11.8633 68.9327 12.37ZM67.0627 12.28C67.5627 12.28 67.9827 12.11 68.3227 11.77C68.6627 11.43 68.8327 11.0067 68.8327 10.5C68.8327 9.99333 68.6627 9.57 68.3227 9.23C67.9827 8.89 67.5627 8.72 67.0627 8.72C66.5694 8.72 66.1527 8.89 65.8127 9.23C65.4727 9.57 65.3027 9.99333 65.3027 10.5C65.3027 11.0067 65.4727 11.43 65.8127 11.77C66.1527 12.11 66.5694 12.28 67.0627 12.28ZM76.478 13H75.458L73.588 10.63V13H72.728V10.63L70.858 13H69.848L71.938 10.42L69.948 8H70.958L72.728 10.21V8H73.588V10.21L75.358 8H76.378L74.378 10.42L76.478 13ZM77.52 10.9C77.6067 11.3467 77.81 11.6933 78.13 11.94C78.4567 12.1867 78.8567 12.31 79.33 12.31C79.99 12.31 80.47 12.0667 80.77 11.58L81.51 12C81.0233 12.7533 80.29 13.13 79.31 13.13C78.5167 13.13 77.87 12.8833 77.37 12.39C76.8767 11.89 76.63 11.26 76.63 10.5C76.63 9.74667 76.8733 9.12 77.36 8.62C77.8467 8.12 78.4767 7.87 79.25 7.87C79.9833 7.87 80.58 8.13 81.04 8.65C81.5067 9.16333 81.74 9.78333 81.74 10.51C81.74 10.6367 81.73 10.7667 81.71 10.9H77.52ZM79.25 8.69C78.7833 8.69 78.3967 8.82333 78.09 9.09C77.7833 9.35 77.5933 9.7 77.52 10.14H80.86C80.7867 9.66667 80.6 9.30667 80.3 9.06C80 8.81333 79.65 8.69 79.25 8.69ZM86.2001 8H87.0701V13H86.2001V10.91H83.6101V13H82.7401V8H83.6101V10.08H86.2001V8ZM92.0244 8H92.7244V13H91.8644V9.49L89.0944 13H88.3944V8H89.2544V11.51L92.0244 8ZM94.6587 10.9C94.7453 11.3467 94.9487 11.6933 95.2687 11.94C95.5953 12.1867 95.9953 12.31 96.4687 12.31C97.1287 12.31 97.6087 12.0667 97.9087 11.58L98.6487 12C98.162 12.7533 97.4287 13.13 96.4487 13.13C95.6553 13.13 95.0087 12.8833 94.5087 12.39C94.0153 11.89 93.7687 11.26 93.7687 10.5C93.7687 9.74667 94.012 9.12 94.4987 8.62C94.9853 8.12 95.6153 7.87 96.3887 7.87C97.122 7.87 97.7187 8.13 98.1787 8.65C98.6453 9.16333 98.8787 9.78333 98.8787 10.51C98.8787 10.6367 98.8687 10.7667 98.8487 10.9H94.6587ZM96.3887 8.69C95.922 8.69 95.5353 8.82333 95.2287 9.09C94.922 9.35 94.732 9.7 94.6587 10.14H97.9987C97.9253 9.66667 97.7387 9.30667 97.4387 9.06C97.1387 8.81333 96.7887 8.69 96.3887 8.69ZM43.99 22.43C44.5033 22.6433 44.76 23.03 44.76 23.59C44.76 24.0033 44.62 24.3433 44.34 24.61C44.0667 24.87 43.6733 25 43.16 25H40.66V20H42.96C43.46 20 43.8467 20.1267 44.12 20.38C44.3933 20.6267 44.53 20.9533 44.53 21.36C44.53 21.84 44.35 22.1967 43.99 22.43ZM42.92 20.78H41.51V22.09H42.92C43.4267 22.09 43.68 21.8667 43.68 21.42C43.68 20.9933 43.4267 20.78 42.92 20.78ZM43.11 24.21C43.3633 24.21 43.5567 24.15 43.69 24.03C43.83 23.91 43.9 23.74 43.9 23.52C43.9 23.3133 43.83 23.1533 43.69 23.04C43.5567 22.92 43.3633 22.86 43.11 22.86H41.51V24.21H43.11ZM55.0391 21.53V21.95C55.0391 22.8633 54.7257 23.6233 54.0991 24.23C53.4724 24.83 52.6424 25.13 51.6091 25.13C50.5424 25.13 49.6591 24.78 48.9591 24.08C48.2657 23.3733 47.9191 22.5133 47.9191 21.5C47.9191 20.4867 48.2657 19.63 48.9591 18.93C49.6591 18.2233 50.5357 17.87 51.5891 17.87C52.2357 17.87 52.8291 18.0267 53.3691 18.34C53.9091 18.6467 54.3257 19.0533 54.6191 19.56L53.8191 20.03C53.6191 19.65 53.3157 19.3467 52.9091 19.12C52.5091 18.8867 52.0657 18.77 51.5791 18.77C50.7791 18.77 50.1224 19.0333 49.6091 19.56C49.0957 20.08 48.8391 20.7267 48.8391 21.5C48.8391 22.2733 49.0957 22.92 49.6091 23.44C50.1291 23.96 50.7991 24.22 51.6191 24.22C52.3191 24.22 52.8857 24.05 53.3191 23.71C53.7524 23.3633 54.0157 22.9167 54.1091 22.37H51.5391V21.53H55.0391ZM60.2999 24.37C59.7866 24.8767 59.1633 25.13 58.4299 25.13C57.6966 25.13 57.0733 24.8767 56.5599 24.37C56.0533 23.8633 55.7999 23.24 55.7999 22.5C55.7999 21.76 56.0533 21.1367 56.5599 20.63C57.0733 20.1233 57.6966 19.87 58.4299 19.87C59.1633 19.87 59.7866 20.1233 60.2999 20.63C60.8133 21.1367 61.0699 21.76 61.0699 22.5C61.0699 23.24 60.8133 23.8633 60.2999 24.37ZM58.4299 24.28C58.9299 24.28 59.3499 24.11 59.6899 23.77C60.0299 23.43 60.1999 23.0067 60.1999 22.5C60.1999 21.9933 60.0299 21.57 59.6899 21.23C59.3499 20.89 58.9299 20.72 58.4299 20.72C57.9366 20.72 57.5199 20.89 57.1799 21.23C56.8399 21.57 56.6699 21.9933 56.6699 22.5C56.6699 23.0067 56.8399 23.43 57.1799 23.77C57.5199 24.11 57.9366 24.28 58.4299 24.28ZM66.3155 24.37C65.8022 24.8767 65.1789 25.13 64.4455 25.13C63.7122 25.13 63.0889 24.8767 62.5755 24.37C62.0689 23.8633 61.8155 23.24 61.8155 22.5C61.8155 21.76 62.0689 21.1367 62.5755 20.63C63.0889 20.1233 63.7122 19.87 64.4455 19.87C65.1789 19.87 65.8022 20.1233 66.3155 20.63C66.8289 21.1367 67.0855 21.76 67.0855 22.5C67.0855 23.24 66.8289 23.8633 66.3155 24.37ZM64.4455 24.28C64.9455 24.28 65.3655 24.11 65.7055 23.77C66.0455 23.43 66.2155 23.0067 66.2155 22.5C66.2155 21.9933 66.0455 21.57 65.7055 21.23C65.3655 20.89 64.9455 20.72 64.4455 20.72C63.9522 20.72 63.5355 20.89 63.1955 21.23C62.8555 21.57 62.6855 21.9933 62.6855 22.5C62.6855 23.0067 62.8555 23.43 63.1955 23.77C63.5355 24.11 63.9522 24.28 64.4455 24.28ZM72.2612 20H73.1212V24.79C73.1212 25.53 72.8712 26.1033 72.3712 26.51C71.8712 26.9233 71.2712 27.13 70.5712 27.13C70.0112 27.13 69.5278 27.0233 69.1212 26.81C68.7145 26.6033 68.4078 26.3033 68.2012 25.91L68.9612 25.48C69.2345 26.04 69.7778 26.32 70.5912 26.32C71.1112 26.32 71.5178 26.1833 71.8112 25.91C72.1112 25.6367 72.2612 25.2633 72.2612 24.79V24.08C71.8212 24.7467 71.1945 25.08 70.3812 25.08C69.6678 25.08 69.0645 24.8267 68.5712 24.32C68.0778 23.8133 67.8312 23.1967 67.8312 22.47C67.8312 21.7433 68.0778 21.13 68.5712 20.63C69.0645 20.1233 69.6678 19.87 70.3812 19.87C71.2012 19.87 71.8278 20.2 72.2612 20.86V20ZM69.2112 23.74C69.5512 24.08 69.9745 24.25 70.4812 24.25C70.9878 24.25 71.4112 24.08 71.7512 23.74C72.0912 23.4 72.2612 22.9767 72.2612 22.47C72.2612 21.97 72.0912 21.55 71.7512 21.21C71.4112 20.87 70.9878 20.7 70.4812 20.7C69.9745 20.7 69.5512 20.87 69.2112 21.21C68.8712 21.55 68.7012 21.97 68.7012 22.47C68.7012 22.9767 68.8712 23.4 69.2112 23.74ZM74.4393 25V17.7H75.3093V25H74.4393ZM77.2466 22.9C77.3332 23.3467 77.5366 23.6933 77.8566 23.94C78.1832 24.1867 78.5832 24.31 79.0566 24.31C79.7166 24.31 80.1966 24.0667 80.4966 23.58L81.2366 24C80.7499 24.7533 80.0166 25.13 79.0366 25.13C78.2432 25.13 77.5966 24.8833 77.0966 24.39C76.6032 23.89 76.3566 23.26 76.3566 22.5C76.3566 21.7467 76.5999 21.12 77.0866 20.62C77.5732 20.12 78.2032 19.87 78.9766 19.87C79.7099 19.87 80.3066 20.13 80.7666 20.65C81.2332 21.1633 81.4666 21.7833 81.4666 22.51C81.4666 22.6367 81.4566 22.7667 81.4366 22.9H77.2466ZM78.9766 20.69C78.5099 20.69 78.1232 20.8233 77.8166 21.09C77.5099 21.35 77.3199 21.7 77.2466 22.14H80.5866C80.5132 21.6667 80.3266 21.3067 80.0266 21.06C79.7266 20.8133 79.3766 20.69 78.9766 20.69ZM87.5966 18C88.2433 18 88.78 18.2167 89.2066 18.65C89.64 19.0767 89.8566 19.61 89.8566 20.25C89.8566 20.8833 89.64 21.4167 89.2066 21.85C88.78 22.2833 88.2433 22.5 87.5966 22.5H85.9866V25H85.0566V18H87.5966ZM87.5966 21.63C87.9833 21.63 88.3033 21.5 88.5566 21.24C88.81 20.9733 88.9366 20.6433 88.9366 20.25C88.9366 19.85 88.81 19.52 88.5566 19.26C88.3033 19 87.9833 18.87 87.5966 18.87H85.9866V21.63H87.5966ZM90.8651 25V17.7H91.7351V25H90.8651ZM97.2023 20H98.0723V25H97.2023V24.14C96.769 24.8 96.139 25.13 95.3123 25.13C94.6123 25.13 94.0157 24.8767 93.5223 24.37C93.029 23.8567 92.7823 23.2333 92.7823 22.5C92.7823 21.7667 93.029 21.1467 93.5223 20.64C94.0157 20.1267 94.6123 19.87 95.3123 19.87C96.139 19.87 96.769 20.2 97.2023 20.86V20ZM95.4223 24.29C95.929 24.29 96.3523 24.12 96.6923 23.78C97.0323 23.4333 97.2023 23.0067 97.2023 22.5C97.2023 21.9933 97.0323 21.57 96.6923 21.23C96.3523 20.8833 95.929 20.71 95.4223 20.71C94.9223 20.71 94.5023 20.8833 94.1623 21.23C93.8223 21.57 93.6523 21.9933 93.6523 22.5C93.6523 23.0067 93.8223 23.4333 94.1623 23.78C94.5023 24.12 94.9223 24.29 95.4223 24.29ZM102.88 20H103.81L101.77 25.31C101.557 25.8767 101.257 26.3067 100.87 26.6C100.49 26.9 100.05 27.0333 99.5505 27V26.19C100.164 26.2367 100.614 25.8967 100.9 25.17L100.99 24.98L98.8105 20H99.7405L101.44 23.92L102.88 20Z" fill="white"/>
<path d="M23.2483 14.983L12.9028 4.60975L26.0653 12.166L23.2483 14.983ZM10.2035 4C9.59377 4.31875 9.18652 4.9 9.18652 5.6545V26.3403C9.18652 27.0948 9.59452 27.676 10.2035 27.9948L22.232 15.9948L10.2035 4ZM30.134 14.575L27.3733 12.9768L24.2938 16L27.3733 19.0233L30.1903 17.425C31.034 16.7553 31.034 15.2455 30.134 14.575ZM12.9035 27.391L26.066 19.8348L23.249 17.0178L12.9035 27.391Z" fill="white"/>
<rect x="0.25" y="0.25" width="115.5" height="31.5" rx="5.75" stroke="#989898" stroke-width="0.5"/>
</svg>
