<svg width="24" height="24" viewBox="0 0 24 24" fill="none" xmlns="http://www.w3.org/2000/svg">
<path d="M21.9506 7.87817C21.9038 6.81504 21.7318 6.08415 21.4856 5.45082C21.2315 4.77856 20.8406 4.17668 20.3285 3.67634C19.8282 3.16821 19.2223 2.77337 18.5579 2.52328C17.9209 2.277 17.1938 2.10508 16.1307 2.05821C15.0596 2.00736 14.7196 1.99561 12.003 1.99561C9.28651 1.99561 8.94649 2.00736 7.87939 2.05424C6.81626 2.10111 6.08537 2.27318 5.45219 2.51931C4.77978 2.77337 4.1779 3.16424 3.67756 3.67634C3.16943 4.17668 2.77474 4.78252 2.5245 5.447C2.27822 6.08415 2.1063 6.81107 2.05943 7.8742C2.00858 8.94527 1.99683 9.28529 1.99683 12.0018C1.99683 14.7184 2.00858 15.0584 2.05546 16.1255C2.10233 17.1886 2.2744 17.9195 2.52068 18.5528C2.77474 19.2251 3.16943 19.827 3.67756 20.3273C4.1779 20.8354 4.78375 21.2303 5.44822 21.4804C6.08537 21.7267 6.81229 21.8986 7.87557 21.9454C8.94252 21.9925 9.2827 22.0041 11.9992 22.0041C14.7158 22.0041 15.0558 21.9925 16.1229 21.9454C17.186 21.8986 17.9169 21.7267 18.5501 21.4804C19.8948 20.9605 20.9579 19.8974 21.4778 18.5528C21.7239 17.9157 21.896 17.1886 21.9428 16.1255C21.9897 15.0584 22.0015 14.7184 22.0015 12.0018C22.0015 9.28529 21.9975 8.94527 21.9506 7.87817ZM20.1488 16.0473C20.1058 17.0245 19.9416 17.5522 19.8048 17.9039C19.4686 18.7756 18.7768 19.4674 17.9052 19.8036C17.5534 19.9404 17.0219 20.1046 16.0485 20.1475C14.9932 20.1945 14.6767 20.2061 12.007 20.2061C9.33736 20.2061 9.01688 20.1945 7.96535 20.1475C6.98818 20.1046 6.46051 19.9404 6.10873 19.8036C5.67495 19.6433 5.28012 19.3892 4.95964 19.057C4.6274 18.7325 4.37333 18.3417 4.21302 17.9079C4.07621 17.5561 3.91208 17.0245 3.86918 16.0513C3.82215 14.9959 3.81054 14.6793 3.81054 12.0096C3.81054 9.33995 3.82215 9.01947 3.86918 7.9681C3.91208 6.99093 4.07621 6.46326 4.21302 6.11148C4.37333 5.67755 4.6274 5.28287 4.96361 4.96223C5.2879 4.62999 5.67877 4.37593 6.1127 4.21577C6.46448 4.07896 6.99612 3.91483 7.96932 3.87177C9.02466 3.8249 9.34133 3.81314 12.0108 3.81314C14.6845 3.81314 15.001 3.8249 16.0525 3.87177C17.0297 3.91483 17.5573 4.07896 17.9091 4.21577C18.3429 4.37593 18.7377 4.62999 19.0582 4.96223C19.3904 5.28668 19.6445 5.67755 19.8048 6.11148C19.9416 6.46326 20.1058 6.99475 20.1488 7.9681C20.1957 9.02344 20.2075 9.33995 20.2075 12.0096C20.2075 14.6793 20.1957 14.992 20.1488 16.0473Z" fill="#989898"/>
<path d="M11.999 6.86133C9.16143 6.86133 6.85913 9.16348 6.85913 12.0012C6.85913 14.839 9.16143 17.1412 11.999 17.1412C14.8368 17.1412 17.139 14.839 17.139 12.0012C17.139 9.16348 14.8368 6.86133 11.999 6.86133ZM11.999 15.3354C10.1581 15.3354 8.66491 13.8423 8.66491 12.0012C8.66491 10.1602 10.1581 8.66711 11.999 8.66711C13.8401 8.66711 15.3332 10.1602 15.3332 12.0012C15.3332 13.8423 13.8401 15.3354 11.999 15.3354Z" fill="#989898"/>
<path d="M18.5436 6.65843C18.5436 7.32107 18.0063 7.85837 17.3435 7.85837C16.6808 7.85837 16.1436 7.32107 16.1436 6.65843C16.1436 5.99563 16.6808 5.4585 17.3435 5.4585C18.0063 5.4585 18.5436 5.99563 18.5436 6.65843Z" fill="#989898"/>
</svg>
