<svg width="24" height="24" viewBox="0 0 24 24" fill="none" xmlns="http://www.w3.org/2000/svg">
<path d="M22.7759 6.3757C22.5166 5.41179 21.7566 4.65195 20.7928 4.39239C19.0322 3.91064 11.9892 3.91064 11.9892 3.91064C11.9892 3.91064 4.94658 3.91064 3.18588 4.37413C2.24065 4.63341 1.46213 5.41193 1.20285 6.3757C0.739502 8.13626 0.739502 11.7874 0.739502 11.7874C0.739502 11.7874 0.739502 15.457 1.20285 17.1992C1.4624 18.1629 2.22211 18.9228 3.18602 19.1823C4.96512 19.6642 11.9895 19.6642 11.9895 19.6642C11.9895 19.6642 19.0322 19.6642 20.7928 19.2007C21.7568 18.9413 22.5166 18.1815 22.7762 17.2177C23.2394 15.457 23.2394 11.806 23.2394 11.806C23.2394 11.806 23.2579 8.13626 22.7759 6.3757ZM9.74692 15.1605V8.41435L15.6035 11.7874L9.74692 15.1605Z" fill="#989898"/>
</svg>
