<svg width="24" height="24" viewBox="0 0 24 24" fill="none" xmlns="http://www.w3.org/2000/svg">
<path fill-rule="evenodd" clip-rule="evenodd" d="M15.2524 3.07241C14.8264 3.16707 14.5672 3.258 14.1977 3.44235C12.9941 4.0431 12.1318 5.11142 11.788 6.42822C11.6655 6.89722 11.6234 7.79276 11.7018 8.26127L11.7461 8.52655L11.2413 8.49281C9.44164 8.37247 7.4661 7.72875 5.78786 6.71573C4.86104 6.15624 4.18922 5.61956 3.28047 4.7125C2.31044 3.74435 2.39529 3.76689 2.14478 4.41056C1.71812 5.50673 1.68383 6.50624 2.03862 7.50434C2.31471 8.28116 2.9 9.13102 3.48944 9.61099L3.79669 9.86119H3.62725C3.31259 9.86119 2.62661 9.69284 2.20487 9.51211L1.78573 9.33246V9.59909C1.78573 10.5513 2.28864 11.7063 3.04878 12.4999C3.61178 13.0877 4.16791 13.4392 4.94957 13.7012L5.38224 13.8463L4.91653 13.9157C4.64763 13.9558 4.21859 13.9739 3.90139 13.9587C3.25646 13.9276 3.27387 13.8794 3.66175 14.6222C4.08452 15.4317 4.77883 16.1261 5.57153 16.5322C6.14989 16.8284 6.45297 16.9267 7.05605 17.0138L7.5356 17.083L7.32424 17.2495C7.20802 17.3411 6.94869 17.5161 6.74799 17.6385C5.18273 18.5932 3.4326 19.0516 1.60374 18.9859C0.800066 18.957 0.800066 18.9582 1.5959 19.3855C4.31756 20.8466 7.2561 21.3156 10.3038 20.7753C14.9169 19.9575 18.5865 16.6741 20.0927 12.0164C20.4981 10.7629 20.7147 9.43869 20.7147 8.2138V7.49542L21.0257 7.26219C21.6095 6.82429 22.5096 5.8603 22.9032 5.25134L23 5.10164L22.7468 5.21014C22.1979 5.44531 20.5959 5.86787 20.5242 5.79629C20.5125 5.78456 20.6763 5.6427 20.8883 5.4811C21.488 5.02401 22.0631 4.23599 22.3121 3.53031L22.3829 3.32985L21.7246 3.64503C21.1069 3.94076 20.3708 4.20842 19.783 4.35104L19.5273 4.4131L19.2422 4.15544C18.6741 3.64217 17.99 3.28271 17.2386 3.10263C16.7245 2.97942 15.7384 2.96444 15.2524 3.07241Z" fill="#989898"/>
</svg>
