<svg width="1111" height="650" viewBox="0 0 1111 650" fill="none" xmlns="http://www.w3.org/2000/svg">
<path opacity="0.1" d="M1110.79 81.626L1080.04 99.4655V156.718L806.574 314.369L785.794 302.338L926.89 221.023V206.502L951.826 192.189V158.792L1000.24 130.788C1002.32 131.618 1005.02 131.618 1006.89 130.581C1008.97 129.336 1008.97 127.469 1006.89 126.432C1004.81 125.188 1001.49 125.188 999.62 126.432C997.749 127.469 997.542 129.129 998.996 130.373L950.579 158.377V191.774L926.682 205.465V151.947L926.474 151.739L912.759 143.857L995.464 96.1465V42.6281L1054.27 8.81602C1056.35 9.64576 1059.05 9.64576 1060.92 8.60859C1063 7.36397 1063 5.49705 1060.92 4.45987C1058.84 3.21526 1055.52 3.21526 1053.65 4.45987C1051.78 5.49705 1051.57 7.15654 1053.02 8.40115L994.217 42.2132V95.7316L911.513 143.442L777.066 65.8609V5.91191C778.105 5.91191 779.352 5.49706 780.183 5.08218C782.261 3.83757 782.261 1.97064 780.183 0.933461C778.105 -0.311154 774.78 -0.311154 772.91 0.933461C770.832 2.17808 770.832 4.04501 772.91 5.08218C773.742 5.49706 774.78 5.91191 776.027 5.91191V66.4832L776.235 66.6906L857.069 113.364H798.054L750.468 85.9821C751.923 84.7375 751.715 83.078 749.844 82.0409C747.766 80.7962 744.442 80.7962 742.571 82.0409C740.493 83.2855 740.493 85.1524 742.571 86.1896C744.442 87.2268 747.351 87.4342 749.221 86.397L797.638 114.401H858.939L925.435 152.776V220.815L784.547 301.3L765.637 290.306L865.381 232.847C867.459 233.676 870.16 233.676 872.031 232.639C874.109 231.395 874.109 229.528 872.031 228.491C869.953 227.246 866.628 227.246 864.758 228.491C862.888 229.528 862.68 231.187 864.134 232.432L764.39 289.892L746.104 279.312L865.589 210.444H898.006C898.213 211.066 898.629 211.481 899.46 211.896C901.538 213.14 904.863 213.14 906.733 211.896C908.811 210.651 908.811 208.784 906.733 207.747C904.655 206.502 901.33 206.502 899.46 207.747C898.629 208.162 898.213 208.784 898.006 209.199H865.173H864.965L745.065 278.69L737.792 274.541L737.584 274.749L732.182 277.86L703.505 261.473V238.447L727.194 224.757H764.183L805.119 201.316C807.197 202.146 809.899 202.146 811.769 201.109C813.847 199.864 813.847 197.997 811.769 196.96C809.691 195.716 806.366 195.716 804.496 196.96C802.626 197.997 802.418 199.657 803.872 200.902L763.767 223.512H728.857L798.262 183.477C800.34 184.307 803.249 184.307 805.119 183.27C807.197 182.025 807.197 180.158 805.119 179.121C803.041 177.876 799.716 177.876 797.846 179.121C795.976 180.158 795.768 181.817 797.223 182.855L710.57 232.847V221.853L762.105 192.189V171.238L804.08 146.968C806.158 147.798 808.86 147.798 810.73 146.761C812.808 145.516 812.808 143.649 810.73 142.612C808.652 141.367 805.327 141.367 803.457 142.612C801.587 143.649 801.379 145.309 802.833 146.553L760.858 170.823V191.774L709.324 221.438V233.884L702.051 238.033V262.303L730.727 278.69L712.025 289.477L653.218 255.457V216.874L693.115 193.849C695.193 194.678 698.102 194.678 699.973 193.641C702.051 192.397 702.051 190.53 699.973 189.493C697.895 188.248 694.57 188.248 692.7 189.493C690.829 190.53 690.622 192.189 692.076 193.226L653.218 215.63V184.514L683.972 166.882V108.178C685.011 108.178 686.258 107.763 687.089 107.348C689.167 106.103 689.167 104.236 687.089 103.199C685.011 101.955 681.686 101.955 679.816 103.199C677.738 104.444 677.738 106.311 679.816 107.348C680.647 107.763 681.686 108.178 682.933 108.178V166.052L653.426 183.062V79.7591H652.179V256.287L710.986 290.306L689.79 302.545L612.905 258.154V152.569L575.916 131.203V91.3755L543.292 72.4988C544.746 71.2542 544.539 69.5947 542.668 68.5575C540.59 67.3129 537.266 67.3129 535.396 68.5575C533.318 69.8021 533.318 71.6691 535.396 72.7062C537.266 73.7434 540.175 73.9509 542.045 72.9137L574.669 91.7903V131.618L611.658 152.984V258.569L688.544 302.96L672.959 311.88L569.059 251.931V161.904L568.851 161.696L477.004 108.593C478.458 107.348 478.251 105.689 476.38 104.651C474.302 103.407 470.978 103.407 469.107 104.651C467.029 105.896 467.029 107.763 469.107 108.8C470.978 109.837 473.887 110.045 475.757 109.008L568.02 162.111V252.138L568.228 252.346L671.712 312.087L646.36 326.608L473.679 227.038V182.232L473.471 182.025L328.843 98.6357C330.297 97.3911 330.09 95.7316 328.219 94.6944C326.141 93.4498 322.817 93.4498 320.946 94.6944C318.868 95.939 318.868 97.806 320.946 98.8431C322.817 99.8803 325.726 100.088 327.596 99.0506L472.432 182.647V227.453L472.64 227.661L569.475 283.461H492.589L403.651 232.224C405.105 230.98 404.897 229.32 403.027 228.283C400.949 227.038 397.624 227.038 395.754 228.283C393.676 229.528 393.676 231.395 395.754 232.432C397.624 233.469 400.534 233.676 402.404 232.639L492.173 284.498H571.345L644.906 326.815L615.398 343.825L552.227 307.316H450.613L335.077 240.729H271.074L244.892 225.586C246.346 224.342 246.139 222.682 244.268 221.645C242.19 220.401 238.866 220.401 236.995 221.645C234.917 222.89 234.917 224.757 236.995 225.794C238.866 226.831 241.775 227.038 243.645 226.001L270.659 241.559H334.661L421.937 291.758H346.506L310.764 272.052C312.219 270.807 312.011 269.148 310.141 268.111C308.063 266.866 304.738 266.866 302.868 268.111C300.79 269.355 300.79 271.222 302.868 272.259C304.738 273.297 307.647 273.504 309.517 272.467L346.714 293.833H424.431L450.613 308.976H552.227L569.89 319.14H526.876H526.668L505.057 331.586H414.872L389.52 316.858H338.402C338.194 316.236 337.778 315.821 336.947 315.406C334.869 314.161 331.544 314.161 329.674 315.406C327.596 316.651 327.596 318.518 329.674 319.555C331.752 320.799 335.077 320.799 336.947 319.555C337.778 319.14 338.194 318.518 338.402 318.103H389.105L414.456 332.831H502.979L478.666 346.936C476.588 346.107 473.887 346.107 472.017 347.144C469.939 348.388 469.939 350.255 472.017 351.292C474.095 352.537 477.419 352.537 479.29 351.292C481.16 350.255 481.368 348.596 479.913 347.351L527.291 319.97H572.176L614.775 344.655L598.982 353.782L599.813 354.197L609.164 359.59H579.657L541.006 337.394C542.461 336.15 542.253 334.49 540.383 333.453C538.305 332.208 534.98 332.208 533.11 333.453C531.032 334.698 531.032 336.565 533.11 337.602C534.98 338.639 537.889 338.846 539.759 337.809L579.241 360.627H611.034L632.646 373.073L619.346 380.748H595.865H595.657L575.085 392.572H559.708L524.798 372.451C526.46 371.206 526.252 369.547 524.382 368.51C522.304 367.265 518.979 367.265 517.109 368.51C515.031 369.754 515.031 371.621 517.109 372.658C518.979 373.696 521.681 373.903 523.759 373.073L559.5 393.609H575.501H575.708L596.281 381.786H617.476L575.085 406.263H552.227L504.433 378.674H360.428L271.074 327.23C272.529 325.985 272.529 324.326 270.659 323.289C268.581 322.044 265.256 322.044 263.386 323.289C261.308 324.533 261.308 326.4 263.386 327.437C265.256 328.475 267.957 328.682 270.035 327.852L360.22 379.919H504.018L551.812 407.508H575.293H575.501L633.892 373.903L649.27 382.823L583.189 420.783H536.642L498.199 398.588H399.495C399.287 397.966 398.871 397.551 398.04 397.136C395.962 395.891 392.637 395.891 390.767 397.136C388.689 398.38 388.689 400.247 390.767 401.284C392.845 402.529 396.17 402.529 398.04 401.284C398.871 400.87 399.287 400.247 399.495 399.832H497.784L534.149 420.783H395.131H394.923L262.555 497.12C260.477 496.29 257.775 496.29 255.905 497.327C253.827 498.572 253.827 500.439 255.905 501.476C257.983 502.721 261.308 502.721 263.178 501.476C265.048 500.439 265.256 498.779 263.801 497.535L395.546 421.613H583.397H583.605L650.309 383.238L667.764 393.194L575.708 446.298H413.625H413.417L271.49 528.028H106.082L9.45488 473.472C10.9095 472.228 10.7017 470.568 8.83148 469.531C6.75348 468.286 3.42869 468.286 1.5585 469.531C-0.519499 470.776 -0.519499 472.642 1.5585 473.68C3.42869 474.717 6.33789 474.924 8.20809 473.887L105.458 529.895H271.49H271.698L413.625 448.165H531.655L358.558 548.149V574.493L289.361 614.321C287.283 613.491 284.581 613.491 282.711 614.529C280.633 615.773 280.633 617.64 282.711 618.677C284.789 619.922 288.114 619.922 289.984 618.677C291.854 617.64 292.062 615.981 290.608 614.736L359.805 574.908V548.564L534.357 447.958H574.877L487.602 498.364V509.359L445.834 533.421C443.756 532.591 441.054 532.591 439.184 533.629C437.106 534.873 437.106 536.74 439.184 537.777C441.262 539.022 444.587 539.022 446.457 537.777C448.327 536.74 448.535 535.081 447.081 533.836L469.731 520.768V551.053L338.402 626.767C336.324 625.937 333.622 625.937 331.752 626.975C329.674 628.219 329.674 630.086 331.752 631.123C333.83 632.368 337.155 632.368 339.025 631.123C340.895 630.086 341.103 628.427 339.648 627.182L470.978 551.468V519.73L488.848 509.359V499.194L576.955 448.372L576.747 447.958L669.218 394.647L686.05 404.396L591.086 459.159V549.186L416.326 650H418.612L563.241 566.611V648.133L559.916 650H562.202L564.28 648.755V565.989L591.917 550.016V459.989L686.881 405.226L701.635 413.731L628.282 456.048V505.417L628.49 505.625L711.817 553.542V570.345L664.647 597.519C662.569 596.689 659.867 596.689 657.997 597.726C655.919 598.971 655.919 600.838 657.997 601.875C660.075 603.12 663.4 603.12 665.27 601.875C667.14 600.838 667.348 599.178 665.894 597.934L713.064 570.76V552.713L712.856 552.505L629.529 504.588V456.462L684.803 424.517V445.053L659.452 459.781C657.374 458.952 654.672 458.952 652.802 459.989C650.724 461.233 650.724 463.1 652.802 464.138C654.88 465.382 658.205 465.382 660.075 464.138C661.945 463.1 662.153 461.441 660.699 460.196L686.05 445.468V423.48L702.882 413.731L722.623 425.14V461.026L685.219 482.599V507.284L685.427 507.492L763.975 552.713C762.52 553.957 762.728 555.617 764.598 556.654C766.676 557.898 770.001 557.898 771.871 556.654C773.949 555.409 773.949 553.542 771.871 552.505C770.001 551.468 767.092 551.261 765.222 552.298L686.258 506.869V483.429L722.415 462.478V487.163L770.832 514.959C769.378 516.204 769.585 517.863 771.456 518.901C773.534 520.145 776.858 520.145 778.729 518.901C780.807 517.656 780.807 515.789 778.729 514.752C776.858 513.715 773.949 513.507 772.079 514.544L723.662 486.748V426.177L737.584 434.267L737.792 434.059L760.442 420.991L781.222 433.022V462.063L836.289 493.801V521.182C835.25 521.182 834.003 521.597 833.172 522.012C831.094 523.257 831.094 525.124 833.172 526.161C835.25 527.405 838.575 527.405 840.445 526.161C842.523 524.916 842.523 523.049 840.445 522.012C839.614 521.597 838.575 521.182 837.328 521.182V493.179L782.469 461.648V433.852L871.823 485.296V539.852L823.406 567.855H778.936H778.729L702.466 611.832C700.388 611.002 697.687 611.002 695.817 612.039C693.739 613.284 693.739 615.151 695.817 616.188C697.895 617.433 701.219 617.433 703.09 616.188C704.96 615.151 705.168 613.491 703.713 612.247L779.352 568.685H821.535L681.479 649.378C679.401 648.548 676.699 648.548 674.829 649.585H683.349L873.277 540.059V484.259L873.07 484.051L762.105 420.161L784.339 407.3L973.645 516.411V581.546L1038.27 618.885C1036.82 620.129 1037.02 621.789 1038.89 622.826C1040.97 624.071 1044.3 624.071 1046.17 622.826C1048.24 621.581 1048.24 619.714 1046.17 618.677C1044.3 617.64 1041.39 617.433 1039.52 618.47L974.891 581.131V515.996L974.684 515.789L785.586 406.885L806.782 394.647L994.009 502.513H1105.81L1111 505.625V504.38L1106.01 501.476H994.217L836.081 410.412H867.875L921.903 441.527H963.462H963.67L1021.23 408.337C1023.31 409.167 1026.01 409.167 1027.88 408.13C1029.96 406.885 1029.96 405.018 1027.88 403.981C1025.8 402.737 1022.48 402.737 1020.61 403.981C1018.74 405.018 1018.53 406.678 1019.98 407.922L963.047 440.697H922.11L868.082 409.582H834.003L807.613 394.439L864.342 361.664L880.55 370.999V395.476L921.487 419.124C920.032 420.369 920.24 422.028 922.11 423.065C924.188 424.31 927.513 424.31 929.383 423.065C931.461 421.821 931.461 419.954 929.383 418.917C927.513 417.879 924.604 417.672 922.734 418.709L881.797 395.061V372.036L925.435 397.136H946.215H946.423L971.151 382.823C973.229 383.652 975.93 383.652 977.801 382.615C979.879 381.371 979.879 379.504 977.801 378.467C975.723 377.222 972.398 377.222 970.528 378.467C968.657 379.504 968.45 381.163 969.904 382.408L946.007 396.306H925.851L865.589 360.627L876.602 354.404L875.771 353.989L841.692 334.49L858.108 325.156H882.836L900.499 335.32C899.044 336.565 899.252 338.017 901.123 339.054C903.201 340.298 906.525 340.298 908.396 339.054C910.474 337.809 910.474 335.942 908.396 334.905C906.525 333.868 903.616 333.66 901.538 334.698L883.044 324.118H859.978L901.538 300.056L999.62 356.478H1070.06H1070.27L1109.96 333.66C1110.17 333.868 1110.58 333.868 1110.79 333.868V328.475C1110.17 328.682 1109.75 328.889 1109.34 329.097C1107.47 330.134 1107.26 331.793 1108.71 333.038L1069.65 355.441H999.827L924.188 311.88H956.605L988.191 330.134C986.736 331.379 986.944 333.038 988.814 334.075C990.892 335.32 994.217 335.32 996.087 334.075C998.165 332.831 998.165 330.964 996.087 329.927C994.217 328.889 991.307 328.682 989.437 329.719L957.021 311.05H922.318L902.785 299.848L952.449 271.222H1110.58V269.978H954.319L974.06 258.569H1091.67H1091.88L1110.58 247.782V246.537L1091.47 257.532H973.852H973.645L840.237 334.49L825.484 325.985L965.748 245.085H1068.19H1068.4L1110.58 220.815V219.571L1067.99 244.256H965.54H965.333L824.445 325.57L807.613 315.821L1081.08 158.17V100.918L1110.79 83.9078V81.626ZM874.316 354.404L737.792 433.022L601.268 354.404L737.792 275.786L874.316 354.404Z" fill="#F2C94C"/>
</svg>
