<svg width="95" height="19" viewBox="0 0 95 19" fill="none" xmlns="http://www.w3.org/2000/svg">
<g clip-path="url(#clip0_127_3131)">
<path d="M43.1236 5.12995C43.239 5.09428 43.3609 5.08297 43.4811 5.09677C43.6013 5.11057 43.7172 5.14916 43.8209 5.20999C43.9247 5.27081 44.014 5.35247 44.0829 5.44954C44.1518 5.54661 44.1987 5.65687 44.2206 5.773C44.2475 5.88465 44.2505 6.00051 44.2296 6.11336C44.2086 6.22621 44.164 6.33364 44.0986 6.42897C44.0332 6.52429 43.9483 6.60546 43.8494 6.66742C43.7504 6.72939 43.6394 6.77082 43.5233 6.78913C43.4072 6.80745 43.2885 6.80227 43.1745 6.7739C43.0606 6.74553 42.9538 6.69459 42.861 6.62424C42.7681 6.5539 42.691 6.46565 42.6346 6.36501C42.5782 6.26437 42.5437 6.15348 42.5331 6.03925C42.5112 5.84484 42.5577 5.64895 42.665 5.48372C42.7723 5.31849 42.9341 5.19375 43.1236 5.12995Z" fill="#3E3C3B"/>
<path d="M39.733 5.20239C40.2358 5.20239 40.7385 5.20239 41.2419 5.20239C41.2419 7.82648 41.2419 10.4506 41.2419 13.0747C40.7392 13.0747 40.2352 13.0747 39.7324 13.0747C39.7328 10.4518 39.733 7.82767 39.733 5.20239Z" fill="#3E3C3B"/>
<path d="M51.9642 5.20239C52.467 5.20239 52.9697 5.20239 53.4731 5.20239C53.4731 5.93696 53.4731 6.67213 53.4731 7.4067C54.0148 7.4067 54.5572 7.4067 55.099 7.4067C55.0868 7.80489 55.1246 8.21496 55.0819 8.60543C54.545 8.61494 54.0081 8.60543 53.4719 8.609C53.4767 9.39408 53.4615 10.1798 53.4798 10.9648C53.5011 11.2769 53.5456 11.678 53.8777 11.8272C54.2703 11.9288 54.6819 11.9394 55.0795 11.8581C55.0752 12.2248 55.0892 12.5921 55.0716 12.9588C54.5964 13.1097 54.0973 13.1763 53.598 13.1555C53.3629 13.1504 53.1314 13.0976 52.9184 13.0004C52.7054 12.9031 52.5156 12.7637 52.3609 12.5909C52.0884 12.2432 51.9478 11.8141 51.963 11.3767C51.963 10.4537 51.963 9.53137 51.963 8.6084C51.6881 8.6084 51.4145 8.6084 51.1396 8.6084V7.40789C51.4139 7.40789 51.6881 7.40789 51.963 7.40789C51.9642 6.67213 51.963 5.93696 51.9642 5.20239Z" fill="#3E3C3B"/>
<path d="M25.5953 5.71711C26.7581 5.71711 27.9208 5.71711 29.0836 5.71711C29.4894 5.70222 29.894 5.76976 30.2717 5.91545C30.6494 6.06114 30.9918 6.28179 31.2774 6.56341C31.5375 6.89462 31.7231 7.27552 31.8222 7.68131C31.9213 8.0871 31.9317 8.5087 31.8527 8.91867C31.8191 9.23896 31.72 9.54944 31.5614 9.83177C31.4027 10.1141 31.1876 10.3626 30.9289 10.5625C30.7535 10.6902 30.564 10.7982 30.3639 10.8847C30.9481 11.6153 31.5332 12.3455 32.119 13.0753C31.5054 13.0753 30.8923 13.0753 30.2786 13.0753C29.7911 12.4441 29.309 11.8094 28.8209 11.1788C28.2596 11.1919 27.6978 11.1788 27.1365 11.1848C27.1365 11.8148 27.1365 12.4447 27.1365 13.0747H25.5947C25.5947 10.6218 25.5947 8.16885 25.5947 5.71592M27.1371 7.01449C27.1371 7.99352 27.1371 8.97236 27.1371 9.95099C27.5905 9.95099 28.0439 9.95099 28.4973 9.95099C28.9388 9.9677 29.3746 9.84924 29.7436 9.61223C29.8901 9.50426 30.0119 9.36768 30.1013 9.21123C30.1907 9.05477 30.2457 8.88186 30.2628 8.70353C30.2992 8.47974 30.2858 8.25091 30.2233 8.03265C30.1608 7.8144 30.0508 7.61185 29.9008 7.43883C29.7496 7.2994 29.5717 7.19037 29.3774 7.11797C29.183 7.04557 28.9759 7.01121 28.7679 7.01687C28.2249 7.01271 27.6838 7.01627 27.1353 7.01568L27.1371 7.01449Z" fill="#3E3C3B"/>
<path d="M77.6671 5.72421C78.5203 5.72421 79.3734 5.72421 80.2266 5.72421C80.6677 5.70617 81.1097 5.72606 81.5472 5.78364C82.18 5.86435 82.7587 6.17329 83.1695 6.64955C83.6268 7.28537 83.8135 8.06932 83.6905 8.83663C83.645 9.47592 83.3491 10.0737 82.8641 10.506C82.2593 10.9587 81.5173 11.2023 80.755 11.1984C80.2358 11.2079 79.7159 11.1984 79.1967 11.2026C79.1967 11.8278 79.1967 12.453 79.1967 13.0782C78.6864 13.0782 78.1764 13.0782 77.6665 13.0782C77.6665 10.6281 77.6665 8.17773 77.6665 5.72718M79.1967 7.01565C79.1967 7.99666 79.1967 8.97768 79.1967 9.95869C79.8556 10.0072 80.5181 9.96393 81.1645 9.83031C81.3835 9.76354 81.5809 9.64253 81.7376 9.47909C81.8943 9.31566 82.0049 9.11539 82.0585 8.89784C82.1256 8.64759 82.131 8.3854 82.0742 8.13273C82.0174 7.88006 81.9001 7.64409 81.7319 7.44415C81.5794 7.30264 81.3996 7.19211 81.2029 7.11895C81.0062 7.0458 80.7966 7.0115 80.5862 7.01803C80.1236 7.01149 79.6599 7.01684 79.1967 7.01565Z" fill="#3E3C3B"/>
<path d="M33.2881 8.48861C33.5101 8.18262 33.7929 7.92333 34.1197 7.72616C34.4466 7.529 34.8108 7.39801 35.1907 7.34099C35.8963 7.21867 36.6235 7.34172 37.2456 7.68867C37.7446 7.99435 38.1237 8.45488 38.3218 8.99616C38.5135 9.52607 38.5887 10.0894 38.5424 10.6495C37.106 10.6525 35.6697 10.6495 34.2339 10.6495C34.3203 11.0568 34.5677 11.4144 34.9225 11.645C35.3185 11.8746 35.7862 11.9568 36.2395 11.8766C36.6927 11.7963 37.1009 11.5589 37.3888 11.2082C37.7155 11.4596 38.0317 11.7252 38.3529 11.9808C38.0972 12.2972 37.7794 12.5606 37.4181 12.7559C37.0568 12.9511 36.6592 13.0741 36.2486 13.1177C35.5286 13.2298 34.7908 13.0999 34.1565 12.7492C33.5296 12.3834 33.0688 11.7986 32.8676 11.1137C32.7335 10.672 32.7017 10.2068 32.7743 9.75158C32.8469 9.29639 33.0222 8.8626 33.2875 8.48148M34.7732 8.80122C34.5009 9.04186 34.315 9.36146 34.243 9.7129C35.2039 9.7129 36.1645 9.7129 37.1249 9.7129C37.1181 9.50013 37.0593 9.29202 36.9533 9.10593C36.8473 8.91984 36.6972 8.76117 36.5155 8.64313C36.2416 8.49731 35.9289 8.43526 35.6183 8.46505C35.3077 8.49483 35.0134 8.61507 34.7738 8.81014L34.7732 8.80122Z" fill="#3E3C3B"/>
<path d="M45.6746 8.5924C46.0729 8.06043 46.6327 7.66417 47.2747 7.45979C47.9168 7.25541 48.6085 7.25328 49.2519 7.4537C49.7887 7.64258 50.2565 7.9816 50.5968 8.42837C50.2744 8.71899 49.9496 9.00664 49.6291 9.29904C49.4689 9.06932 49.2492 8.88513 48.9923 8.76527C48.7353 8.64541 48.4504 8.59417 48.1665 8.61677C47.799 8.64672 47.4513 8.79199 47.1755 9.0308C46.8998 9.26962 46.7108 9.58913 46.6369 9.94149C46.5778 10.2619 46.6204 10.5923 46.7591 10.8885C46.8977 11.1847 47.1257 11.4326 47.4127 11.599C47.768 11.8252 48.2008 11.9047 48.6162 11.8202C49.0315 11.7356 49.3956 11.4939 49.6285 11.1479C49.9435 11.4398 50.2622 11.728 50.5767 12.021C50.1377 12.607 49.4819 13.003 48.7485 13.1252C48.3036 13.1867 47.8505 13.1582 47.4175 13.0413C46.9845 12.9244 46.5808 12.7217 46.2316 12.4459C45.7213 12.0451 45.3615 11.4906 45.2084 10.8692C45.1161 10.4792 45.1099 10.0744 45.1903 9.68188C45.2707 9.28933 45.4358 8.91795 45.6746 8.5924Z" fill="#3E3C3B"/>
<path d="M64.5126 7.75211C65.0393 7.40456 65.6739 7.24732 66.3068 7.30756C66.6167 7.30304 66.924 7.36354 67.2079 7.48494C67.4918 7.60634 67.7456 7.78583 67.9521 8.01123C68.4491 7.557 69.1035 7.30232 69.7846 7.29805C70.3639 7.26805 70.9386 7.41336 71.43 7.71407C71.8264 8.01495 72.0926 8.44994 72.176 8.93301C72.2683 9.50279 72.3002 10.0804 72.271 10.6565C72.271 11.4624 72.271 12.2679 72.271 13.073H70.7749C70.7749 11.9913 70.7749 10.9109 70.7749 9.82983C70.7888 9.61789 70.7438 9.40623 70.6447 9.21713C70.5456 9.02803 70.3961 8.86849 70.2118 8.75531C69.91 8.61913 69.5732 8.57415 69.2449 8.62616C68.9166 8.67816 68.6117 8.82477 68.3696 9.04712C68.4318 9.5982 68.4523 10.153 68.4306 10.707V13.0736H66.9344C66.9344 12.0109 66.9344 10.9477 66.9344 9.8851C66.957 9.52246 66.8349 9.16535 66.5938 8.88843C66.4527 8.77311 66.2875 8.68912 66.1097 8.64232C65.932 8.59552 65.746 8.58703 65.5645 8.61743C65.1753 8.6473 64.8069 8.80121 64.5163 9.05544C64.5163 10.395 64.5163 11.7346 64.5163 13.0742C64.0135 13.0712 63.5114 13.0801 63.0093 13.0688C63.019 11.1813 63.0092 9.29316 63.0141 7.40503H64.5163C64.5126 7.5227 64.5126 7.6374 64.5126 7.75211Z" fill="#3E3C3B"/>
<path d="M85.7863 8.19851C86.0312 7.86986 86.368 7.61696 86.7564 7.47005C87.1448 7.32313 87.5684 7.28841 87.9765 7.37004C87.9765 7.897 87.9765 8.42415 87.9765 8.9515C87.4696 8.80656 86.9259 8.84692 86.4474 9.06502C86.2388 9.19928 86.0689 9.38346 85.954 9.59998C85.8391 9.81649 85.7831 10.0581 85.7912 10.3018C85.7851 11.2265 85.7912 12.1507 85.7912 13.0754C85.2921 13.0754 84.7929 13.0754 84.2944 13.0754V7.42055C84.7935 7.42055 85.2933 7.41699 85.7924 7.42055C85.7863 7.68146 85.7887 7.93998 85.7863 8.19851Z" fill="#3E3C3B"/>
<path d="M91.163 7.34916C91.6282 7.28162 92.1027 7.31152 92.5551 7.43685C93.0075 7.56217 93.4273 7.78007 93.7866 8.076C94.1302 8.35804 94.4019 8.71408 94.5802 9.11603C94.7586 9.51798 94.8388 9.95485 94.8144 10.3922C94.7901 10.8295 94.6619 11.2554 94.4399 11.6361C94.218 12.0169 93.9084 12.3421 93.5355 12.5862C93.0521 12.9077 92.4909 13.1004 91.9076 13.1454C91.3243 13.1903 90.7391 13.0859 90.21 12.8424C89.5122 12.5238 88.9632 11.9604 88.6725 11.2645C88.5175 10.8792 88.4518 10.4653 88.48 10.0524C88.5082 9.63947 88.6297 9.23774 88.8357 8.87595C89.0773 8.46432 89.4128 8.1125 89.8163 7.84782C90.2198 7.58313 90.6805 7.4127 91.1625 7.34975M91.4276 8.63406C91.1057 8.67442 90.8018 8.80208 90.5506 9.00253C90.263 9.22899 90.0631 9.54421 89.9838 9.89628C89.9045 10.2483 89.9505 10.6162 90.1143 10.9394C90.3084 11.3038 90.6321 11.5868 91.0246 11.7355C91.4172 11.8841 91.8518 11.8882 92.2472 11.7471C92.6275 11.6159 92.9454 11.3536 93.1411 11.0097C93.3368 10.6657 93.3966 10.2638 93.3094 9.87974C93.2078 9.48326 92.9602 9.13711 92.6137 8.90727C92.2672 8.67743 91.8461 8.57997 91.4306 8.63346L91.4276 8.63406Z" fill="#3E3C3B"/>
<path d="M42.6509 13.0759C42.6509 11.1864 42.6509 9.29665 42.6509 7.40674C43.1463 7.40674 43.6418 7.40674 44.1372 7.40674C44.1433 9.29665 44.1372 11.186 44.1372 13.0765C43.6432 13.0769 43.1477 13.0767 42.6509 13.0759Z" fill="#3E3C3B"/>
<path d="M56.1069 10.7527C56.1049 9.63739 56.1049 8.52207 56.1069 7.40674H57.6024C57.6024 8.49017 57.6024 9.573 57.6024 10.6564C57.5876 10.8782 57.6401 11.0992 57.7535 11.2919C57.8669 11.4847 58.0361 11.6405 58.2398 11.7399C58.5635 11.8488 58.9103 11.8754 59.2474 11.817C59.5845 11.7587 59.9008 11.6174 60.1662 11.4065C60.1662 10.0734 60.1662 8.73978 60.1662 7.40674C60.6643 7.40674 61.163 7.40674 61.6623 7.40674V13.0759H60.1662C60.1662 12.9535 60.1662 12.831 60.1662 12.7086C59.6232 13.0481 58.9809 13.2042 58.338 13.1531C57.7246 13.1658 57.131 12.941 56.6871 12.5279C56.285 12.0215 56.0795 11.3927 56.1069 10.7527Z" fill="#3E3C3B"/>
<path d="M7.5278 0.253218C8.16336 0.186661 8.80484 0.195241 9.43829 0.278773C9.66955 0.305679 9.89906 0.345363 10.1257 0.397636C10.0485 0.400094 9.9712 0.398705 9.89413 0.393476C8.85228 0.362564 7.81985 0.594067 6.89646 1.06564C6.6558 1.12713 6.41845 1.20032 6.18529 1.28494C4.9439 1.74992 3.80151 2.43502 2.81588 3.30561C2.61721 3.47915 2.4283 3.6622 2.24121 3.84762C2.48865 3.3122 2.81217 2.81343 3.20224 2.366C3.64116 1.87943 4.15866 1.46609 4.73429 1.14231C5.5937 0.663599 6.54428 0.361057 7.5278 0.253218Z" fill="#D9DADC" fill-opacity="0.5"/>
<path d="M0.53418 11.3679C0.716268 11.7476 0.935881 12.1091 1.1899 12.4472C1.28984 12.616 1.37699 12.7931 1.49095 12.9541C2.06311 13.7854 2.80116 14.4957 3.66104 15.0426C3.76647 15.1531 3.8853 15.2494 3.99622 15.3534C4.43682 15.7635 4.89753 16.1539 5.37286 16.5248C5.05711 16.4561 4.74739 16.3633 4.44657 16.2472C3.71509 15.9727 3.04577 15.5612 2.47636 15.036C2.02421 14.6237 1.63619 14.1492 1.32458 13.6275C1.26364 13.5199 1.2027 13.4124 1.13627 13.309C1.03267 13.0713 0.91384 12.8365 0.83157 12.5898C0.684879 12.195 0.585097 11.785 0.53418 11.3679Z" fill="#D9DADC" fill-opacity="0.5"/>
<path d="M6.89617 1.06211C7.82075 0.592995 8.85333 0.36319 9.89506 0.3947C9.97213 0.399912 10.0494 0.401301 10.1266 0.39886C10.8734 0.430448 11.6102 0.578525 12.3089 0.837463C13.0679 1.12019 13.7791 1.51245 14.4187 2.00113C14.9592 2.412 15.4563 2.87449 15.9026 3.38172C16.1784 3.68995 16.4336 4.01511 16.6668 4.3552C16.8636 4.62567 17.0421 4.90837 17.2012 5.2015C17.8428 6.29487 18.2107 7.52049 18.275 8.77867C18.3171 9.90584 18.1403 11.0306 17.754 12.0937C17.4635 12.9224 17.0549 13.7071 16.54 14.4246C16.1181 15.0158 15.6022 15.5374 15.0116 15.9699C14.4648 16.3581 13.8571 16.6574 13.2121 16.856C13.003 16.9077 12.7983 16.9748 12.5874 17.02C11.9512 17.1635 11.3006 17.2373 10.6477 17.2399C10.474 17.2542 10.3009 17.234 10.1279 17.2351C8.83901 17.1701 7.57039 16.8953 6.37452 16.4221C5.42314 16.0601 4.51322 15.6019 3.65961 15.0552C2.80024 14.5111 2.06217 13.8037 1.48952 12.9751C1.37556 12.8146 1.28842 12.6387 1.18847 12.4705C1.18847 12.4634 1.18847 12.4491 1.18847 12.442C1.17339 12.4245 1.16012 12.4056 1.14886 12.3856C0.774839 11.6251 0.562761 10.7986 0.525441 9.95601C0.484372 9.16196 0.615183 8.36838 0.909366 7.62689C1.17356 6.99667 1.51881 6.40175 1.93682 5.85643C2.31709 5.3483 2.73271 4.86512 3.16173 4.39502C3.72421 3.77812 4.28426 3.15766 4.88696 2.57642C5.48033 1.98292 6.15553 1.47286 6.89313 1.06092M4.18614 5.27341C4.18614 6.884 4.18614 8.49439 4.18614 10.1046C4.19528 10.3738 4.19041 10.6436 4.1898 10.9128C5.87481 11.8596 7.56956 12.7909 9.25335 13.7388C10.9455 12.7978 12.637 11.8558 14.3279 10.9128C14.3279 10.5495 14.3279 10.1862 14.3279 9.82288C14.3279 9.39973 14.3193 8.97658 14.323 8.55283C14.323 7.45811 14.323 6.36338 14.323 5.26866C12.6398 4.32291 10.9512 3.38172 9.25701 2.44508C7.56956 3.39241 5.87359 4.3237 4.18919 5.2746L4.18614 5.27341Z" fill="#444141" fill-opacity="0.5"/>
<path d="M13.1695 5.38617C13.2335 5.37304 13.2997 5.37358 13.3635 5.38777C13.4273 5.40196 13.4871 5.42947 13.5389 5.46839C13.5908 5.5073 13.6334 5.5567 13.6637 5.61319C13.6941 5.66969 13.7116 5.73194 13.7149 5.79565C13.7149 6.88483 13.7149 7.9744 13.7149 9.06437C13.7314 9.18358 13.7123 9.30488 13.6601 9.41384C13.5995 9.51117 13.5037 9.58282 13.3915 9.61472C13.2794 9.64662 13.1591 9.63644 13.0544 9.58617C13.0004 9.55996 12.9524 9.5234 12.9132 9.47868C12.874 9.43395 12.8445 9.38198 12.8264 9.32587C12.8107 9.25204 12.8054 9.17647 12.8106 9.10123C12.8106 8.50097 12.8106 7.90072 12.8106 7.30046C12.8195 7.18322 12.7973 7.06572 12.746 6.95932C12.7265 6.92313 12.6985 6.89192 12.6643 6.86827C12.6301 6.84462 12.5906 6.82919 12.5491 6.82322C12.4536 6.81756 12.3584 6.83816 12.2743 6.88266C11.5967 7.18397 10.9208 7.49003 10.2432 7.79254C10.1207 7.84771 10.014 7.93136 9.93239 8.03611C9.85079 8.14087 9.79679 8.26355 9.77513 8.3934C9.76496 8.47382 9.7617 8.55492 9.76539 8.63587C9.76539 9.56141 9.76539 10.487 9.76539 11.4125C9.76292 11.4994 9.73582 11.5839 9.68709 11.6567C9.63836 11.7295 9.56991 11.7878 9.48932 11.8249C9.38531 11.8741 9.26777 11.8891 9.15429 11.8677C9.04081 11.8463 8.9375 11.7896 8.85981 11.7061C8.78887 11.6306 8.74743 11.5332 8.7428 11.4309C8.73487 11.0422 8.7495 10.6542 8.74585 10.2655C8.74585 9.69018 8.74585 9.11568 8.74585 8.54197C8.74576 8.42388 8.7203 8.3071 8.67107 8.1992C8.62183 8.09131 8.54994 7.99468 8.46004 7.91556C8.3721 7.84592 8.27363 7.78999 8.16813 7.74975C7.28876 7.35691 6.41122 6.95992 5.53185 6.56767C5.4185 6.52499 5.3229 6.44679 5.26004 6.34538C5.22324 6.273 5.20409 6.19329 5.2041 6.11249C5.20411 6.03169 5.22326 5.95199 5.26008 5.87961C5.2969 5.80723 5.35038 5.74412 5.41634 5.69523C5.4823 5.64633 5.55894 5.61297 5.64031 5.59774C5.73668 5.58471 5.83484 5.60047 5.92186 5.64292C6.87009 6.06964 7.81893 6.49556 8.76839 6.92069C9.03895 7.03921 9.34512 7.0551 9.62706 6.96525C9.71036 6.9365 9.79177 6.90277 9.87081 6.86423C10.6509 6.50764 11.4346 6.16412 12.214 5.80813C12.5041 5.67917 12.7856 5.52999 13.083 5.41766C13.1109 5.40488 13.1398 5.39436 13.1695 5.38617Z" fill="#444141" fill-opacity="0.5"/>
<path d="M4.18896 5.2982C5.87336 4.34254 7.56934 3.4065 9.25678 2.45679C10.9485 3.39976 12.6384 4.34571 14.3264 5.29463C14.3264 6.39451 14.3264 7.49458 14.3264 8.59485C14.3228 9.02038 14.3343 9.44591 14.3313 9.87144C14.3313 10.2363 14.3313 10.6014 14.3313 10.9667C12.6404 11.9141 10.9489 12.8606 9.25678 13.8064C7.57238 12.8555 5.87823 11.9182 4.19322 10.9662C4.19322 10.6952 4.1981 10.4241 4.18957 10.1537C4.18957 8.53522 4.18957 6.91691 4.18957 5.29879M13.1698 5.42598C13.1396 5.43232 13.1101 5.44107 13.0814 5.45212C12.7834 5.56445 12.5025 5.71362 12.2124 5.84259C11.433 6.19917 10.6493 6.54447 9.86924 6.89869C9.79019 6.93722 9.70878 6.97096 9.62547 6.99972C9.34325 7.09011 9.03658 7.07443 8.7656 6.95574C7.81655 6.52981 6.8677 6.10389 5.91906 5.67796C5.83197 5.63575 5.73383 5.62021 5.63752 5.63339C5.55616 5.64862 5.4795 5.68198 5.41354 5.73087C5.34758 5.77977 5.2941 5.84287 5.25728 5.91526C5.22047 5.98764 5.20131 6.06734 5.20131 6.14814C5.2013 6.22894 5.22044 6.30864 5.25725 6.38103C5.3201 6.48244 5.4157 6.56062 5.52904 6.60331C6.40902 6.99555 7.28596 7.39255 8.16533 7.78539C8.27083 7.82563 8.3693 7.88157 8.45724 7.95121C8.54714 8.03033 8.61903 8.12696 8.66826 8.23486C8.71749 8.34275 8.74297 8.45952 8.74305 8.57762C8.74305 9.15291 8.74305 9.72741 8.74305 10.3011C8.74671 10.6898 8.73208 11.0785 8.74 11.4666C8.74464 11.5688 8.78606 11.6663 8.85701 11.7417C8.93475 11.8251 9.03806 11.8817 9.15152 11.9032C9.26497 11.9246 9.38249 11.9097 9.48653 11.8606C9.56711 11.8234 9.63557 11.7652 9.68429 11.6924C9.73302 11.6196 9.76012 11.5351 9.76259 11.4481C9.76259 10.5226 9.76259 9.59706 9.76259 8.67151C9.75892 8.59056 9.76218 8.50946 9.77233 8.42904C9.794 8.29919 9.848 8.17651 9.9296 8.07175C10.0112 7.96699 10.1179 7.88336 10.2404 7.82819C10.918 7.52628 11.5939 7.21961 12.2715 6.91829C12.3556 6.87382 12.4508 6.85324 12.5464 6.85887C12.5878 6.86484 12.6273 6.88028 12.6615 6.90393C12.6957 6.92758 12.7237 6.95876 12.7432 6.99496C12.7945 7.10135 12.8167 7.21886 12.8078 7.33609C12.8078 7.93635 12.8078 8.53661 12.8078 9.13686C12.8026 9.2121 12.8079 9.28769 12.8236 9.36152C12.8417 9.41762 12.8712 9.46958 12.9104 9.51431C12.9496 9.55904 12.9976 9.5956 13.0516 9.62182C13.1563 9.67208 13.2766 9.68227 13.3887 9.65037C13.5009 9.61848 13.5967 9.54681 13.6573 9.44947C13.7095 9.34052 13.7286 9.21922 13.7122 9.10002C13.7122 8.01084 13.7122 6.92127 13.7122 5.8313C13.7082 5.76814 13.6904 5.70655 13.66 5.65068C13.6295 5.59481 13.5871 5.54598 13.5357 5.50749C13.4842 5.469 13.4248 5.44174 13.3616 5.42758C13.2983 5.41341 13.2327 5.41266 13.1692 5.42538L13.1698 5.42598Z" fill="white" fill-opacity="0.5"/>
</g>
<defs>
<clipPath id="clip0_127_3131">
<rect width="94.8199" height="17.8294" fill="white" transform="translate(0 0.208496)"/>
</clipPath>
</defs>
</svg>
