<svg width="100" height="34" viewBox="0 0 100 34" fill="none" xmlns="http://www.w3.org/2000/svg">
<path d="M31.763 20.3032C31.763 20.4685 31.6246 20.6031 31.4591 20.6031H25.6078C25.7549 22.0476 26.8418 23.3647 28.3723 23.3647C28.8461 23.3855 29.3171 23.2828 29.739 23.0666C30.161 22.8505 30.5194 22.5284 30.779 22.132C30.8648 22.0169 30.991 21.9435 31.1516 22.0133C31.1946 22.032 31.2323 22.0612 31.2612 22.0982C31.2901 22.1352 31.3093 22.1788 31.317 22.225C31.3329 22.3205 31.3047 22.3744 31.2802 22.4282C30.692 23.454 29.5193 23.9584 28.3699 23.9584C26.4019 23.9584 25 22.1993 25 20.3179C25 18.4364 26.4031 16.6774 28.3699 16.6774C30.3367 16.6774 31.7606 18.4279 31.7643 20.3069M31.1516 20.0229C31.0241 18.5784 29.9176 17.2613 28.387 17.2613C26.8565 17.2613 25.7683 18.5784 25.6225 20.0229H31.1516ZM38.879 16.8194C39.0481 16.8194 39.1706 16.9663 39.1706 17.1107C39.1706 17.2797 39.0432 17.4021 38.879 17.4021H37.3105V23.5508C37.3105 23.6976 37.183 23.8421 37.0188 23.8421C36.8546 23.8421 36.7272 23.6952 36.7272 23.5508V17.4021H35.2199C35.0508 17.4021 34.9283 17.2748 34.9283 17.1107C34.9283 16.9638 35.0557 16.8194 35.2199 16.8194H36.7272V14.5646C36.7272 14.4226 36.8228 14.2916 36.9723 14.2684C37.1683 14.2378 37.3215 14.3724 37.3215 14.556V16.8145L38.879 16.8194ZM48.4372 19.7915V23.5165C48.4372 23.6854 48.2901 23.8078 48.1455 23.8078C47.9764 23.8078 47.8539 23.6805 47.8539 23.5165V19.8038C47.8539 18.5478 47.1432 17.2919 45.7388 17.2919C43.9399 17.2919 43.163 18.8624 43.2672 20.4721C43.2672 20.515 43.2868 20.7023 43.2868 20.7218V23.5177C43.2868 23.6597 43.1912 23.7907 43.0417 23.8139C42.8456 23.8445 42.6925 23.7099 42.6925 23.5263V11.2913C42.6925 11.1444 42.8199 11 42.9841 11C43.1483 11 43.2758 11.1469 43.2758 11.2913V18.2161C43.7659 17.3176 44.6789 16.7105 45.7241 16.7105C47.4422 16.7105 48.4274 18.2161 48.4274 19.8074M58.9194 20.3216C58.9194 20.4868 58.7809 20.6215 58.6154 20.6215H52.7604C52.9075 22.0659 53.9944 23.3831 55.525 23.3831C55.9987 23.4038 56.4697 23.3011 56.8917 23.085C57.3137 22.8689 57.6721 22.5468 57.9317 22.1504C58.0175 22.0353 58.1437 21.9619 58.3042 22.0316C58.3473 22.0504 58.3849 22.0796 58.4138 22.1165C58.4427 22.1535 58.4619 22.1971 58.4696 22.2434C58.4856 22.3389 58.4574 22.3927 58.4329 22.4466C57.8447 23.4724 56.672 23.9767 55.5225 23.9767C53.5545 23.9767 52.1526 22.2177 52.1526 20.3363C52.1526 18.4548 53.5557 16.6958 55.5225 16.6958C57.4893 16.6958 58.9169 18.4462 58.9206 20.3252M58.2895 20.0412C58.162 18.5968 57.0555 17.2797 55.525 17.2797C53.9944 17.2797 52.9063 18.5968 52.7604 20.0412H58.2895ZM66.115 17.1107C66.115 17.2992 66.0108 17.4021 65.8417 17.4253C64.1237 17.675 63.3504 19.0779 63.3504 20.7084V23.5042C63.3504 23.6462 63.2549 23.7772 63.1054 23.8005C62.9093 23.8311 62.7561 23.6964 62.7561 23.5128V17.1413C62.7561 16.9993 62.8517 16.8684 63.0012 16.8451C63.1973 16.8145 63.3504 16.9492 63.3504 17.1328V18.4303C63.8308 17.6163 64.7964 16.839 65.7988 16.839C65.9459 16.8353 66.1137 16.943 66.1137 17.1083M75.7246 20.3228C75.7246 20.488 75.5862 20.6227 75.4207 20.6227H69.5694C69.7164 22.0671 70.8034 23.3843 72.3339 23.3843C72.8077 23.4051 73.2787 23.3023 73.7006 23.0862C74.1226 22.8701 74.481 22.548 74.7406 22.1516C74.8264 22.0365 74.9526 21.9631 75.1132 22.0329C75.1562 22.0516 75.1939 22.0808 75.2228 22.1178C75.2517 22.1548 75.2708 22.1984 75.2786 22.2446C75.2945 22.3401 75.2663 22.394 75.2418 22.4478C74.6536 23.4736 73.4809 23.978 72.3315 23.978C70.3635 23.978 68.9616 22.2189 68.9616 20.3375C68.9616 18.456 70.3647 16.697 72.3315 16.697C74.2982 16.697 75.7222 18.4475 75.7259 20.3265M75.1132 20.0425C74.9857 18.598 73.8792 17.2809 72.3486 17.2809C70.8181 17.2809 69.7299 18.598 69.5841 20.0425H75.1132ZM85.186 17.1854V23.5716C85.186 23.7405 85.039 23.8629 84.8944 23.8629C84.7253 23.8629 84.6027 23.7356 84.6027 23.5716V22.3475C84.1224 23.3108 83.2609 24 82.1727 24C80.4351 24 79.4695 22.4943 79.4695 20.903V17.1573C79.4695 17.0104 79.5969 16.8659 79.7611 16.8659C79.9253 16.8659 80.0528 17.0128 80.0528 17.1573V20.903C80.0528 22.1589 80.7635 23.4149 82.1678 23.4149C84.1358 23.4149 84.5978 21.575 84.5978 19.5443V17.1475C84.5978 16.9785 84.7669 16.8047 84.974 16.8659C85.1015 16.9088 85.186 17.0312 85.186 17.1621M99.989 19.7658V23.5116C99.989 23.6805 99.8419 23.8029 99.6973 23.8029C99.5282 23.8029 99.4057 23.6756 99.4057 23.5116V19.7658C99.4057 18.5099 98.6949 17.2772 97.2906 17.2772C95.5297 17.2772 94.8606 19.1587 94.8606 20.6227V23.5116C94.8606 23.6805 94.7136 23.8029 94.569 23.8029C94.3999 23.8029 94.2773 23.6756 94.2773 23.5116V19.7658C94.2773 18.5099 93.5666 17.2772 92.1623 17.2772C90.3818 17.2772 89.6477 18.6788 89.7139 20.5419C89.7139 20.5847 89.7335 20.6692 89.7139 20.6888V23.5042C89.7139 23.6462 89.6183 23.7772 89.475 23.8005C89.2789 23.8311 89.1257 23.6964 89.1257 23.5128V17.1107C89.1257 16.9687 89.2213 16.8378 89.3708 16.8145C89.5669 16.7839 89.72 16.9186 89.72 17.1022V18.1696C90.2102 17.2711 91.1231 16.6835 92.1684 16.6835C93.3607 16.6835 94.2835 17.4363 94.6597 18.5466C95.14 17.4596 96.0811 16.6835 97.2967 16.6835C99.0148 16.6835 100 18.1524 100 19.7438" fill="#808076"/>
<g opacity="0.6">
<path d="M10.5021 13L0 17.7846L10.5021 24L21 17.7846L10.5021 13Z" fill="#484545"/>
</g>
<g opacity="0.45">
<path d="M0 16.9607L10 23V0L0 16.9607Z" fill="#484545"/>
</g>
<g opacity="0.8">
<path d="M10 0V23L20 16.9607L10 0Z" fill="#484545"/>
</g>
<g opacity="0.45">
<path d="M0 19L10 34V25.2905L0 19Z" fill="#484545"/>
</g>
<g opacity="0.8">
<path d="M10 25.2905V34L21 19L10 25.2905Z" fill="#484545"/>
</g>
</svg>
