<svg width="32" height="33" viewBox="0 0 32 33" fill="none" xmlns="http://www.w3.org/2000/svg">
<path fill-rule="evenodd" clip-rule="evenodd" d="M18.5946 4.7092C15.6003 5.03989 13.0663 7.34668 12.3107 10.4298C11.9988 11.7021 12.006 13.1453 12.3305 14.4086L12.4201 14.7576L8.28094 19.1448C6.00436 21.5577 4.10985 23.5994 4.07087 23.682C4.00904 23.8129 4 24.1042 4 25.9699C4 28.0199 4.00368 28.1153 4.08916 28.2927C4.14657 28.4119 4.24065 28.5115 4.35319 28.5723C4.52084 28.6628 4.61089 28.6667 6.55856 28.6667H8.58914L8.78606 28.5328C8.89436 28.4592 9.19551 28.1672 9.45525 27.8838C10.0467 27.2387 10.0585 27.2052 9.97162 26.4163C9.92821 26.022 9.92307 25.8375 9.95514 25.8254C9.98074 25.8157 10.3117 25.7768 10.6907 25.739C11.4612 25.6621 11.5463 25.6378 11.7142 25.4475C11.8659 25.2756 11.9076 25.0871 11.9748 24.2691C12.005 23.9008 12.0418 23.5921 12.0566 23.5831C12.0714 23.574 12.3127 23.5968 12.5929 23.6336C13.1819 23.7111 13.3345 23.6926 13.5278 23.5205C13.7547 23.3183 13.7888 23.1701 13.7888 22.3845V21.6796H14.4503C14.8142 21.6796 15.168 21.6575 15.2365 21.6305C15.3051 21.6034 15.7001 21.2284 16.1142 20.7971C16.5283 20.3657 16.9386 19.944 17.0258 19.86L17.1844 19.7071L17.6238 19.8238C18.8035 20.1371 19.8781 20.1581 21.0504 19.8904C21.6442 19.7548 22.1431 19.5592 22.7803 19.212C26.2318 17.3318 27.6482 12.7816 25.9462 9.04204C24.6048 6.09464 21.6765 4.3688 18.5946 4.7092ZM21.91 8.42484C23.4084 9.00068 23.6983 11.0948 22.4177 12.0928C22.0347 12.3914 21.6771 12.5021 21.1729 12.4784C20.5246 12.448 20.0772 12.2088 19.6792 11.6796C19.4234 11.3394 19.3123 10.9979 19.2908 10.4859C19.276 10.1321 19.2902 9.99861 19.3692 9.74731C19.5558 9.15341 20.0198 8.64814 20.5816 8.42714C20.9672 8.27535 21.5185 8.27441 21.91 8.42484Z" fill="url(#paint0_linear_22_314)"/>
<defs>
<linearGradient id="paint0_linear_22_314" x1="15.3333" y1="4.66666" x2="15.3333" y2="28.6667" gradientUnits="userSpaceOnUse">
<stop stop-color="#FFAF52"/>
<stop offset="1" stop-color="#FFE352"/>
</linearGradient>
</defs>
</svg>
