<svg width="32" height="32" viewBox="0 0 32 32" fill="none" xmlns="http://www.w3.org/2000/svg">
<path fill-rule="evenodd" clip-rule="evenodd" d="M15.0716 4.06165C11.9246 4.47333 9.50059 6.8181 9.1771 9.76352C9.1484 10.0249 9.12491 11.0594 9.12491 12.0625V13.8862L8.38471 13.8867C7.71326 13.8871 7.62092 13.8973 7.39078 13.9975C7.09786 14.1249 6.78808 14.4384 6.71622 14.6802C6.68455 14.7867 6.66659 17.0696 6.66669 20.9664L6.66694 27.0854L6.78542 27.3232C6.85056 27.454 6.99022 27.6274 7.09575 27.7087C7.49938 28.0196 6.89276 27.9997 16 27.9997C25.1073 27.9997 24.5007 28.0196 24.9043 27.7087C25.0098 27.6274 25.1495 27.454 25.2146 27.3232L25.3331 27.0854L25.3334 20.9664C25.3335 17.0696 25.3155 14.7867 25.2838 14.6802C25.212 14.4384 24.9022 14.1249 24.6093 13.9975C24.3791 13.8973 24.2868 13.8871 23.6153 13.8867L22.8751 13.8862V12.0625C22.8751 11.0594 22.8516 10.0249 22.8229 9.76352C22.4272 6.16067 18.894 3.56167 15.0716 4.06165ZM16.8929 6.45823C18.3252 6.73328 19.5428 7.71865 20.0665 9.02662C20.2953 9.59782 20.314 9.81477 20.3149 11.9051L20.3158 13.8862H16H11.6843L11.6851 11.9051C11.6861 9.81477 11.7048 9.59782 11.9335 9.02662C12.451 7.73436 13.6638 6.74303 15.0716 6.46179C15.5435 6.3675 16.4116 6.36581 16.8929 6.45823Z" fill="url(#paint0_linear_22_313)"/>
<defs>
<linearGradient id="paint0_linear_22_313" x1="16" y1="4" x2="16" y2="28" gradientUnits="userSpaceOnUse">
<stop stop-color="#FFAF52"/>
<stop offset="1" stop-color="#FFE352"/>
</linearGradient>
</defs>
</svg>
