<svg width="1145" height="717" viewBox="0 0 1145 717" fill="none" xmlns="http://www.w3.org/2000/svg">
<mask id="mask0_140_2045" style="mask-type:alpha" maskUnits="userSpaceOnUse" x="-16" y="-13" width="1164" height="733">
<rect x="-16" y="-13" width="1164" height="733" fill="url(#paint0_linear_140_2045)"/>
</mask>
<g mask="url(#mask0_140_2045)">
<path opacity="0.4" d="M31.8693 29.3899C34.1592 28.054 38.1667 28.054 40.4567 29.3899C42.1742 30.3441 42.7467 31.8708 41.7926 33.2067L174.422 109.735V206.493L206.673 225.196V330.35L317.356 394.283L334.531 384.359L249.228 335.122V277.487L249.61 277.296L346.744 221.188V201.722L291.975 169.851C289.685 170.805 286.25 170.805 284.151 169.469C281.861 168.133 281.861 165.843 284.151 164.507C286.441 163.171 290.448 163.171 292.738 164.507C294.838 165.652 295.028 167.561 293.311 169.087L348.271 200.768V221.951L347.889 222.142L250.755 278.25V334.358L315.257 371.573V347.526L285.678 330.541C283.388 331.496 279.953 331.496 277.853 330.16C275.563 328.824 275.563 326.534 277.853 325.198C280.143 323.862 284.151 323.862 286.441 325.198C288.54 326.343 288.731 328.251 287.013 329.778L316.593 346.763V372.336L336.058 383.596L359.148 370.237V328.442L315.638 303.251V274.242L316.02 274.052L407.62 221.188C405.903 219.852 406.093 217.943 408.193 216.608C410.483 215.272 414.49 215.272 416.78 216.608C419.07 217.943 419.07 220.234 416.78 221.57C414.681 222.715 411.246 222.905 408.956 221.951L316.974 275.006V302.296L359.148 326.724V297.907L359.53 297.716L415.635 265.273C413.918 263.937 414.108 262.028 416.208 260.693C418.498 259.357 422.505 259.357 424.795 260.693C427.085 262.028 427.085 264.319 424.795 265.654C422.696 266.799 419.261 266.99 416.971 266.036L360.675 298.67V369.283L376.896 359.931L403.613 375.39L427.848 361.458V327.488L428.23 327.297L492.159 290.464V258.402C490.823 258.402 489.488 258.021 488.533 257.448C486.243 256.112 486.243 253.822 488.533 252.486C490.823 251.15 494.831 251.15 497.121 252.486C499.411 253.822 499.411 256.112 497.121 257.448C496.167 258.021 494.831 258.402 493.495 258.402V291.228L493.113 291.418L429.184 328.251V360.695L533.188 300.579V236.837L476.702 204.203H424.986H424.795L335.867 152.866C333.577 153.82 330.142 153.82 328.043 152.484C325.753 151.148 325.753 148.858 328.043 147.522C330.333 146.186 334.34 146.186 336.63 147.522C338.729 148.667 338.92 150.766 337.203 152.102L425.177 202.867H474.221L311.058 108.781C308.768 109.735 305.333 109.735 303.234 108.399C300.944 107.063 300.944 104.773 303.234 103.437C305.524 102.101 309.532 102.101 311.822 103.437C313.921 104.582 314.112 106.682 312.394 108.017L534.524 236.264V301.533L534.143 301.724L404.948 376.344L430.902 391.42L651.505 263.937V187.981L651.887 187.79L726.884 144.469C725.167 143.133 725.358 141.224 727.457 139.888C729.747 138.552 733.754 138.552 736.044 139.888C738.334 141.224 738.334 143.514 736.044 144.85C733.945 145.995 730.51 146.186 728.22 145.232L652.841 188.744V264.7L652.459 264.891L432.047 392.184L456.855 406.497L675.168 280.54H805.317L886.612 233.593V161.454C885.848 161.263 884.894 161.072 884.322 160.69C882.032 159.354 882.032 157.064 884.322 155.728C886.612 154.393 890.619 154.393 892.909 155.728C895.199 157.064 895.199 159.354 892.909 160.69C891.573 161.454 889.856 161.835 888.138 161.645V234.356L887.757 234.547L805.698 281.876H675.55L491.396 388.176H528.418L591.202 351.916H639.673H639.864L707.038 390.657C709.328 389.703 712.763 389.703 714.862 391.039C717.152 392.375 717.152 394.665 714.862 396.001C712.572 397.337 708.564 397.337 706.274 396.001C704.175 394.856 703.984 392.756 705.702 391.42L639.292 353.061H591.583L528.799 389.321H489.106L458.382 407.07L524.41 445.238L543.303 434.36V405.925L591.011 378.443C589.293 377.107 589.484 375.199 591.583 373.863C593.873 372.527 597.881 372.527 600.171 373.863C602.461 375.199 602.461 377.489 600.171 378.825C598.072 379.97 594.637 380.161 592.347 379.206L544.638 406.688V433.597L595.591 404.398H619.636H619.827L648.643 421.001C650.933 420.047 654.368 420.047 656.467 421.383C658.757 422.719 658.757 425.009 656.467 426.345C654.177 427.681 650.169 427.681 647.879 426.345C645.78 425.2 645.589 423.101 647.307 421.765L619.445 405.734H595.973L525.937 446.193L538.723 453.636L498.075 477.109L517.158 488.178H545.974L566.584 476.346C564.867 475.01 565.248 473.102 567.348 471.957C569.638 470.621 573.645 470.621 575.935 471.957C578.225 473.292 578.225 475.583 575.935 476.918C573.836 478.254 570.401 478.254 568.111 477.3L546.547 489.705H519.83L568.302 517.759L682.42 451.918H764.478H764.669L810.851 478.636C813.141 477.682 816.576 477.682 818.675 479.018C820.965 480.354 820.965 482.644 818.675 483.98C816.385 485.316 812.378 485.316 810.088 483.98C807.988 482.835 807.798 480.735 809.515 479.399L764.097 453.254H682.611L594.637 504.018H632.231L669.062 482.835C667.344 481.499 667.535 479.59 669.634 478.254C671.924 476.918 675.932 476.918 678.222 478.254C680.512 479.59 680.512 481.88 678.222 483.216C676.123 484.361 672.688 484.552 670.398 483.598L632.613 505.354H592.156L569.447 518.522L627.078 551.538H812.378L956.266 468.521C954.548 467.185 954.739 465.277 956.838 463.941C959.128 462.605 963.136 462.605 965.426 463.941C967.716 465.277 967.716 467.567 965.426 468.903C963.327 470.048 959.892 470.239 957.602 469.285L812.759 552.874H629.559L652.459 566.233H789.668H789.859L857.414 605.356C859.704 604.402 863.139 604.402 865.238 605.738C867.528 607.074 867.528 609.364 865.238 610.7C862.948 612.036 858.941 612.036 856.651 610.7C854.552 609.555 854.361 607.456 856.078 606.12L789.287 567.569H652.078H651.887L496.548 477.873L479.373 487.797L642.727 582.073H762.188H762.379L906.649 665.472H1106.64L1145.19 643.143V644.67L1106.83 666.808H906.268H906.077L815.431 614.517V645.434L875.162 679.976C877.452 679.022 880.887 679.022 882.986 680.358C885.276 681.694 885.276 683.984 882.986 685.32C880.696 686.656 876.688 686.656 874.398 685.32C872.299 684.175 872.108 682.076 873.826 680.74L814.095 646.197V613.944H814.477L761.807 583.6H642.345H642.154L478.038 488.751L458.382 500.011L777.073 683.984V717.191H775.738V684.747L457.046 500.774L432.81 514.706L597.118 609.555V626.54L626.315 643.334V682.266L682.802 714.901C685.092 713.946 688.527 713.946 690.626 715.282C691.58 715.855 691.962 716.427 692.343 717H680.512C680.703 716.618 681.084 716.046 681.466 715.664L624.979 683.03V644.098L597.118 628.067V690.473L580.706 700.015L610.285 717H607.613L579.37 700.778L551.127 717H548.455L595.782 689.709V610.318L431.474 515.278L409.338 528.065L525.555 595.242C527.845 594.287 531.28 594.287 533.379 595.623C535.669 596.959 535.669 599.249 533.379 600.585C531.089 601.921 527.082 601.921 524.792 600.585C522.693 599.44 522.502 597.532 524.219 596.005L408.002 528.828L386.628 541.042L525.746 621.387H563.531C563.722 620.815 564.294 620.051 565.248 619.67C567.538 618.334 571.546 618.334 573.836 619.67C576.126 621.005 576.126 623.296 573.836 624.631C571.546 625.967 567.538 625.967 565.248 624.631C564.294 624.059 563.722 623.486 563.531 622.914H525.364H525.173L385.293 542.187L376.705 547.149L370.026 543.332L336.63 562.607V589.325L364.11 605.165H407.238H407.429L454.756 632.456C457.046 631.502 460.481 631.502 462.58 632.838C464.87 634.174 464.87 636.464 462.58 637.8C460.29 639.136 456.283 639.136 453.993 637.8C451.893 636.655 451.703 634.555 453.42 633.219L406.857 606.311H366.591L447.504 653.067C449.794 651.922 453.229 652.113 455.519 653.258C457.809 654.594 457.809 656.884 455.519 658.22C453.229 659.556 449.222 659.556 446.932 658.22C444.833 657.075 444.642 655.167 446.168 653.831L345.218 595.432V608.41L405.33 643.143V667.571L454.183 695.816C456.473 694.862 459.908 694.862 462.008 696.198C464.298 697.534 464.298 699.824 462.008 701.16C459.718 702.496 455.71 702.496 453.42 701.16C451.321 700.015 451.13 697.916 452.848 696.58L403.994 668.335V643.907L343.882 609.173V594.669L335.485 589.898V561.462L368.881 542.187L346.935 529.591L278.426 569.287V614.326L324.989 641.235C327.279 640.09 330.714 640.281 333.004 641.426C335.294 642.762 335.294 645.052 333.004 646.388C330.714 647.724 326.707 647.724 324.417 646.388C322.318 645.243 322.127 643.334 323.653 641.998L278.426 615.853V652.304L314.112 672.915V717H312.776V673.678L278.426 653.831V717H277.09V568.523L345.599 528.828L320.982 514.706L231.29 566.424V689.709L188.162 714.519V717H186.826V713.756L229.954 688.946V565.661L319.646 513.942L301.326 503.446L180.338 573.295V678.449L113.355 717H110.683L179.002 677.686V572.531L299.99 502.682L270.411 485.697L69.0817 601.921V654.212L0.00012207 694.099V692.572L67.5551 653.449V601.158L180.719 535.698H91.2185L0.00012207 588.371V586.844L91.0276 534.362H183.391L269.075 484.743L234.725 464.895L161.063 507.453H42.7467L0.190918 532.072V530.546L9.54187 525.202H0.190918V523.866H11.8317L42.3651 506.308H160.682L181.292 494.476H130.912H130.721L105.531 479.972H0.381714L0.00012207 480.163V478.636H103.05L74.616 462.223C72.3259 463.178 68.891 463.178 66.7919 461.842C64.5018 460.506 64.5018 458.216 66.7919 456.88C69.0818 455.544 73.0894 455.544 75.3793 456.88C77.4785 458.025 77.6693 460.124 75.9518 461.46L131.103 493.331H183.391L233.198 464.704L214.878 454.017L226.71 447.147H192.36L147.514 473.102C149.232 474.437 149.041 476.346 146.942 477.682C144.652 479.018 140.644 479.018 138.354 477.682C136.064 476.346 136.064 474.056 138.354 472.72C140.453 471.575 143.888 471.384 146.178 472.338L192.169 445.811H229.191L254.381 431.307L238.923 422.337H211.443L187.398 408.406H169.46L128.813 431.879C130.721 433.215 130.53 435.124 128.24 436.46C125.95 437.795 121.943 437.795 119.653 436.46C117.363 435.124 117.363 432.834 119.653 431.498C121.752 430.353 124.996 430.162 127.286 431.116L168.888 407.07H187.589L211.634 421.001H236.443L187.017 392.375H160.3L104.577 424.436H0.00012207V423.101H104.195L159.918 391.039H187.398H187.589L255.717 430.353L273.655 420.047L196.749 375.58H142.553L97.7067 401.344H0.190918V400.008H97.3252L139.69 375.58H0.190918V374.245H196.94H197.131L274.991 418.902L295.219 407.26L187.971 345.236H0.190918V343.9H137.018L0.190918 264.891V263.364L139.69 343.9H187.017L85.3026 285.12V272.143L36.64 244.089C34.3501 245.043 30.9152 245.043 28.8159 243.707C26.5259 242.371 26.5259 240.081 28.8159 238.745C31.106 237.41 35.1134 237.41 37.4034 238.745C39.5026 239.891 39.6934 241.799 37.976 243.326L64.5018 258.593V223.096L0.190918 186.073V184.546L65.8376 222.333V259.357L86.6384 271.38V284.357L189.116 343.519L188.734 344.091L296.555 406.497L316.211 395.237L205.528 331.305V226.15L0.190918 107.445V105.918L173.086 205.729V110.689L40.6476 34.3518L40.4567 34.5427C38.1667 35.8786 34.1592 35.8786 31.8693 34.5427C29.5792 33.0159 29.5792 30.9166 31.8693 29.3899ZM217.741 453.445L376.705 545.241L535.669 453.445L376.705 361.649L217.741 453.445Z" fill="url(#paint1_radial_140_2045)"/>
<path opacity="0.1" d="M0.190491 194.088L28.4338 210.501V263.173L279.57 408.215L298.654 397.146L169.078 322.335V308.976L146.178 295.808V265.082L101.714 239.318C99.8055 240.081 97.3246 240.081 95.6072 239.127C93.6989 237.982 93.6989 236.264 95.6072 235.31C97.5155 234.165 100.569 234.165 102.286 235.31C104.004 236.264 104.195 237.791 102.859 238.936L147.323 264.7V295.426L169.269 308.022V258.784L169.46 258.593L182.055 251.341L106.103 207.447V158.209L52.0972 127.102C50.1888 127.865 47.708 127.865 45.9905 126.911C44.0822 125.766 44.0822 124.048 45.9905 123.094C47.8988 121.949 50.9521 121.949 52.6697 123.094C54.3871 124.048 54.5779 125.575 53.2421 126.72L107.248 157.828V207.065L183.2 250.959L306.669 179.584V124.43C305.715 124.43 304.57 124.048 303.806 123.667C301.898 122.522 301.898 120.804 303.806 119.85C305.715 118.705 308.768 118.705 310.485 119.85C312.394 120.995 312.394 122.712 310.485 123.667C309.722 124.048 308.768 124.43 307.623 124.43V180.156L307.432 180.347L233.198 223.287H287.395L331.095 198.096C329.76 196.951 329.951 195.424 331.668 194.47C333.576 193.325 336.63 193.325 338.347 194.47C340.255 195.615 340.255 197.332 338.347 198.287C336.63 199.241 333.958 199.432 332.24 198.477L287.776 224.241H231.481L170.414 259.547V322.144L299.799 396.191L317.165 386.077L225.565 333.213C223.656 333.976 221.175 333.976 219.458 333.022C217.55 331.877 217.55 330.16 219.458 329.205C221.366 328.06 224.42 328.06 226.137 329.205C227.855 330.16 228.046 331.686 226.71 332.831L318.31 385.695L335.103 375.962L225.374 312.602H195.604C195.413 313.174 195.031 313.556 194.268 313.938C192.36 315.083 189.306 315.083 187.589 313.938C185.681 312.793 185.681 311.075 187.589 310.121C189.497 308.976 192.551 308.976 194.268 310.121C195.031 310.503 195.413 311.075 195.604 311.457H225.755H225.946L336.057 375.39L342.736 371.573L342.927 371.764L347.889 374.626L374.224 359.549V338.366L352.469 325.77H318.5L280.906 304.205C278.998 304.968 276.517 304.968 274.8 304.014C272.891 302.869 272.891 301.151 274.8 300.197C276.708 299.052 279.761 299.052 281.479 300.197C283.196 301.151 283.387 302.678 282.051 303.823L318.882 324.625H350.942L287.204 287.792C285.295 288.556 282.624 288.556 280.906 287.601C278.998 286.456 278.998 284.739 280.906 283.785C282.815 282.639 285.868 282.639 287.585 283.785C289.303 284.739 289.494 286.266 288.158 287.22L367.735 333.213V323.098L320.409 295.808V276.532L281.86 254.204C279.952 254.967 277.471 254.967 275.754 254.013C273.845 252.868 273.845 251.15 275.754 250.196C277.662 249.051 280.715 249.051 282.433 250.196C284.15 251.15 284.341 252.677 283.005 253.822L321.554 276.151V295.426L368.88 322.717V334.167L375.56 337.984V360.313L349.225 375.39L366.4 385.313L420.406 354.015V318.518L383.766 297.334C381.857 298.098 379.185 298.098 377.468 297.144C375.56 295.999 375.56 294.281 377.468 293.327C379.376 292.182 382.43 292.182 384.147 293.327C385.865 294.281 386.055 295.808 384.72 296.762L420.406 317.373V288.746L392.162 272.525V218.516C391.208 218.516 390.063 218.134 389.3 217.753C387.391 216.608 387.391 214.89 389.3 213.936C391.208 212.791 394.261 212.791 395.979 213.936C397.887 215.081 397.887 216.798 395.979 217.753C395.215 218.134 394.261 218.516 393.116 218.516V271.761L420.215 287.411V192.37H421.36V354.778L367.354 386.077L386.819 397.337L457.427 356.496V259.357L491.395 239.7V203.058L521.356 185.691C520.02 184.546 520.211 183.019 521.929 182.065C523.837 180.92 526.89 180.92 528.608 182.065C530.516 183.21 530.516 184.927 528.608 185.882C526.89 186.836 524.219 187.027 522.501 186.073L492.54 203.439V240.081L458.572 259.738V356.878L387.964 397.718L402.276 405.925L497.693 350.771V267.945L497.884 267.754L582.232 218.898C580.896 217.753 581.087 216.226 582.805 215.272C584.713 214.127 587.766 214.127 589.484 215.272C591.392 216.417 591.392 218.134 589.484 219.089C587.766 220.043 585.095 220.234 583.377 219.279L498.647 268.135V350.962L498.456 351.152L403.421 406.115L426.703 419.474L585.285 327.869V286.647L585.476 286.456L718.296 209.737C716.96 208.592 717.151 207.065 718.869 206.111C720.777 204.966 723.83 204.966 725.548 206.111C727.456 207.256 727.456 208.974 725.548 209.928C723.83 210.882 721.159 211.073 719.441 210.119L586.43 287.029V328.251L586.24 328.442L497.311 379.779H567.92L649.596 332.641C648.26 331.495 648.451 329.969 650.169 329.015C652.077 327.869 655.13 327.869 656.848 329.015C658.756 330.16 658.756 331.877 656.848 332.831C655.13 333.786 652.459 333.976 650.741 333.022L568.301 380.733H495.594L428.039 419.665L455.137 435.314L513.15 401.726H606.468L712.571 340.465H771.348L795.393 326.534C794.057 325.388 794.248 323.862 795.965 322.908C797.874 321.762 800.927 321.762 802.645 322.908C804.553 324.053 804.553 325.77 802.645 326.724C800.927 327.679 798.255 327.869 796.538 326.915L771.73 341.229H712.953L632.803 387.413H702.075L734.899 369.283C733.563 368.137 733.754 366.611 735.471 365.657C737.38 364.511 740.433 364.511 742.15 365.657C744.059 366.802 744.059 368.519 742.15 369.473C740.433 370.428 737.761 370.618 736.044 369.664L701.885 389.321H630.513L606.468 403.253H513.15L496.93 412.604H536.432H536.623L556.47 424.055H639.291L662.573 410.505H709.518C709.709 409.932 710.09 409.551 710.854 409.169C712.762 408.024 715.815 408.024 717.533 409.169C719.441 410.314 719.441 412.032 717.533 412.986C715.625 414.131 712.571 414.131 710.854 412.986C710.09 412.604 709.709 412.032 709.518 411.65H662.955L639.673 425.2H558.378L580.705 438.177C582.614 437.414 585.095 437.414 586.812 438.368C588.72 439.513 588.72 441.231 586.812 442.185C584.904 443.33 581.85 443.33 580.133 442.185C578.415 441.231 578.225 439.704 579.56 438.559L536.05 413.367H494.831L455.71 436.078L470.213 444.475L469.45 444.857L460.862 449.819H487.96L523.456 429.398C522.12 428.253 522.31 426.727 524.028 425.772C525.936 424.627 528.99 424.627 530.707 425.772C532.615 426.917 532.615 428.635 530.707 429.589C528.99 430.543 526.318 430.734 524.6 429.78L488.342 450.773H459.145L439.298 462.223L451.511 469.285H473.075H473.266L492.159 480.163H506.281L538.34 461.651C536.814 460.506 537.005 458.979 538.722 458.025C540.63 456.88 543.684 456.88 545.401 458.025C547.31 459.17 547.31 460.888 545.401 461.842C543.684 462.796 541.203 462.987 539.295 462.223L506.471 481.117H491.777H491.586L472.694 470.239H453.229L492.159 492.758H513.15L557.042 467.376H689.29L771.348 420.047C770.012 418.902 770.012 417.375 771.73 416.421C773.638 415.276 776.691 415.276 778.409 416.421C780.317 417.566 780.317 419.284 778.409 420.238C776.691 421.192 774.21 421.383 772.302 420.619L689.48 468.521H557.424L513.532 493.903H491.968H491.777L438.153 462.987L424.031 471.193L484.716 506.118H527.463L562.767 485.697H653.413C653.604 485.125 653.985 484.743 654.749 484.361C656.657 483.216 659.71 483.216 661.428 484.361C663.336 485.506 663.336 487.224 661.428 488.178C659.52 489.323 656.466 489.323 654.749 488.178C653.985 487.797 653.604 487.224 653.413 486.842H563.149L529.753 506.118H657.42H657.611L779.172 576.348C781.08 575.585 783.561 575.585 785.279 576.539C787.187 577.684 787.187 579.402 785.279 580.356C783.37 581.501 780.317 581.501 778.6 580.356C776.882 579.402 776.691 577.875 778.027 576.73L657.039 506.881H484.525H484.335L423.077 471.575L407.047 480.735L491.586 529.591H640.436H640.627L770.966 604.784H922.87L1011.61 554.592C1010.27 553.447 1010.46 551.92 1012.18 550.966C1014.09 549.821 1017.14 549.821 1018.86 550.966C1020.77 552.111 1020.77 553.828 1018.86 554.783C1017.14 555.737 1014.47 555.928 1012.75 554.973L923.442 606.501H770.966H770.775L640.436 531.309H532.043L691.007 623.296V647.533L754.555 684.175C756.463 683.411 758.944 683.411 760.661 684.366C762.57 685.511 762.57 687.228 760.661 688.182C758.753 689.328 755.7 689.328 753.982 688.182C752.265 687.228 752.074 685.701 753.41 684.556L689.862 647.914V623.677L529.562 531.118H492.35L572.5 577.493V587.608L610.857 609.746C612.765 608.982 615.246 608.982 616.964 609.937C618.872 611.082 618.872 612.799 616.964 613.753C615.055 614.898 612.002 614.898 610.285 613.753C608.567 612.799 608.376 611.272 609.712 610.127L588.911 598.104V625.967L709.518 695.625C711.426 694.862 713.907 694.862 715.625 695.816C717.533 696.961 717.533 698.679 715.625 699.633C713.716 700.778 710.663 700.778 708.945 699.633C707.228 698.679 707.037 697.152 708.373 696.007L587.766 626.349V597.15L571.355 587.608V578.256L490.441 531.5L490.632 531.118L405.711 482.071L390.254 491.041L477.465 541.424V624.25L637.955 717H635.856L503.036 640.281V715.282L506.09 717H503.99L502.082 715.855V639.708L476.701 625.013V542.187L389.49 491.804L375.941 499.629L443.306 538.561V583.982L443.115 584.173L366.591 628.258V643.716L409.91 668.716C411.818 667.953 414.299 667.953 416.016 668.907C417.925 670.052 417.925 671.77 416.016 672.724C414.108 673.869 411.055 673.869 409.337 672.724C407.62 671.77 407.429 670.243 408.765 669.098L365.445 644.098V627.494L365.636 627.303L442.16 583.218V538.943L391.399 509.553V528.446L414.681 541.996C416.589 541.233 419.07 541.233 420.787 542.187C422.695 543.332 422.695 545.05 420.787 546.004C418.879 547.149 415.825 547.149 414.108 546.004C412.39 545.05 412.2 543.523 413.535 542.378L390.254 528.828V508.598L374.796 499.629L356.667 510.125V543.141L391.017 562.989V585.699L390.826 585.89L318.691 627.494C320.027 628.639 319.836 630.166 318.119 631.12C316.21 632.265 313.157 632.265 311.44 631.12C309.531 629.975 309.531 628.258 311.44 627.303C313.157 626.349 315.829 626.158 317.546 627.112L390.063 585.318V563.752L356.858 544.477V567.188L312.394 592.761C313.73 593.906 313.539 595.432 311.821 596.387C309.913 597.532 306.86 597.532 305.142 596.387C303.234 595.242 303.234 593.524 305.142 592.57C306.86 591.616 309.531 591.425 311.249 592.379L355.713 566.806V511.079L342.927 518.522L342.736 518.332L321.935 506.308L302.852 517.377V544.095L252.281 573.294V598.486C253.235 598.486 254.38 598.868 255.144 599.249C257.052 600.394 257.052 602.112 255.144 603.066C253.235 604.211 250.182 604.211 248.465 603.066C246.556 601.921 246.556 600.203 248.465 599.249C249.228 598.868 250.182 598.486 251.327 598.486V572.722L301.707 543.714V518.141L219.649 565.47V615.662L264.113 641.426H304.951H305.142L375.178 681.885C377.086 681.121 379.567 681.121 381.285 682.075C383.193 683.22 383.193 684.938 381.285 685.892C379.376 687.037 376.323 687.037 374.606 685.892C372.888 684.938 372.697 683.411 374.033 682.266L304.57 642.189H265.831L394.452 716.427C396.36 715.664 398.841 715.664 400.559 716.618H392.735L218.313 615.853V564.516L218.504 564.325L320.409 505.545L299.99 493.713L126.141 594.096V654.021L66.7914 688.373C68.1272 689.518 67.9363 691.045 66.2188 691.999C64.3104 693.144 61.2571 693.144 59.5396 691.999C57.6313 690.854 57.6313 689.137 59.5396 688.182C61.2571 687.228 63.9288 687.037 65.6463 687.992L124.996 653.64V593.715L125.186 593.524L298.845 493.331L279.38 482.071L107.439 581.31H4.77057L-0.000305176 584.173V583.028L4.57965 580.356H107.248L252.472 496.575H223.275L173.658 525.202H135.491H135.3L82.4396 494.667C80.5313 495.43 78.0505 495.43 76.3331 494.476C74.4247 493.331 74.4247 491.613 76.3331 490.659C78.2414 489.514 81.2947 489.514 83.0122 490.659C84.7297 491.613 84.9205 493.14 83.5847 494.285L135.873 524.438H173.467L223.084 495.812H254.38L278.616 481.88L226.519 451.727L211.634 460.315V482.835L174.04 504.591C175.375 505.736 175.185 507.263 173.467 508.217C171.559 509.362 168.505 509.362 166.788 508.217C164.88 507.072 164.88 505.354 166.788 504.4C168.505 503.446 171.177 503.255 172.895 504.209L210.489 482.453V461.269L170.414 484.361H151.331H151.14L128.431 471.193C126.522 471.956 124.041 471.956 122.324 471.002C120.415 469.857 120.415 468.14 122.324 467.185C124.232 466.04 127.286 466.04 129.003 467.185C130.721 468.14 130.911 469.666 129.576 470.811L151.521 483.598H170.032L225.374 450.773L215.26 445.047L216.023 444.666L247.32 426.727L232.244 418.139H209.535L193.314 427.49C194.65 428.635 194.459 429.971 192.741 430.925C190.833 432.07 187.78 432.07 186.062 430.925C184.154 429.78 184.154 428.062 186.062 427.108C187.78 426.154 190.451 425.963 192.36 426.917L209.344 417.184H230.526L192.36 395.046L102.286 446.956H37.5938H37.403L0.953857 425.963C0.763062 426.154 0.381348 426.154 0.190491 426.154V421.192C0.763 421.383 1.14471 421.574 1.52637 421.765C3.24384 422.719 3.43469 424.246 2.09882 425.391L37.9755 446.002H102.096L171.559 405.925H141.789L112.782 422.719C114.118 423.864 113.927 425.391 112.21 426.345C110.301 427.49 107.248 427.49 105.531 426.345C103.622 425.2 103.622 423.482 105.531 422.528C107.248 421.574 109.92 421.383 111.637 422.337L141.407 405.161H173.276L191.215 394.856L145.606 368.519H0.381287V367.374H143.888L125.759 356.878H17.7472H17.5563L0.381287 346.954V345.809L17.938 355.923H125.95H126.141L248.656 426.727L262.205 418.902L133.392 344.473H39.3113H39.1205L0.381287 322.144V320.999L39.5021 343.71H133.583H133.774L263.159 418.52L278.616 409.551L27.4796 264.509V211.836L0.190491 196.187V194.088ZM217.359 445.047L342.736 517.377L468.114 445.047L342.736 372.718L217.359 445.047Z" fill="#42E8E0"/>
</g>
<defs>
<linearGradient id="paint0_linear_140_2045" x1="566" y1="-13" x2="566" y2="702" gradientUnits="userSpaceOnUse">
<stop stop-color="#D9D9D9"/>
<stop offset="1" stop-color="#D9D9D9" stop-opacity="0"/>
</linearGradient>
<radialGradient id="paint1_radial_140_2045" cx="0" cy="0" r="1" gradientUnits="userSpaceOnUse" gradientTransform="translate(-24.6178 132.27) scale(838.411 838.457)">
<stop stop-color="#FF2C9C"/>
<stop offset="0.0300632" stop-color="#F62F9F"/>
<stop offset="0.2023" stop-color="#C63EB0"/>
<stop offset="0.3737" stop-color="#9E4BBE"/>
<stop offset="0.5413" stop-color="#7F54C9"/>
<stop offset="0.7039" stop-color="#695BD1"/>
<stop offset="0.8594" stop-color="#5C60D5"/>
<stop offset="1" stop-color="#5761D7"/>
</radialGradient>
</defs>
</svg>
