<svg width="375" height="650" viewBox="0 0 375 650" fill="none" xmlns="http://www.w3.org/2000/svg">
<path opacity="0.1" d="M627.792 81.626L597.038 99.4655V156.718L323.574 314.369L302.794 302.338L443.89 221.023V206.502L468.826 192.189V158.792L517.243 130.788C519.321 131.618 522.022 131.618 523.892 130.581C525.97 129.336 525.97 127.469 523.892 126.432C521.815 125.188 518.49 125.188 516.62 126.432C514.749 127.469 514.542 129.129 515.996 130.373L467.579 158.377V191.774L443.682 205.465V151.947L443.474 151.739L429.759 143.857L512.464 96.1465V42.6281L571.271 8.81602C573.349 9.64576 576.05 9.64576 577.92 8.60859C579.998 7.36397 579.998 5.49705 577.92 4.45987C575.842 3.21526 572.518 3.21526 570.647 4.45987C568.777 5.49705 568.569 7.15654 570.024 8.40115L511.217 42.2132V95.7316L428.513 143.442L294.066 65.8609V5.91191C295.105 5.91191 296.352 5.49706 297.183 5.08218C299.261 3.83757 299.261 1.97064 297.183 0.933461C295.105 -0.311154 291.78 -0.311154 289.91 0.933461C287.832 2.17808 287.832 4.04501 289.91 5.08218C290.742 5.49706 291.78 5.91191 293.027 5.91191V66.4832L293.235 66.6906L374.069 113.364H315.054L267.468 85.9821C268.923 84.7375 268.715 83.078 266.844 82.0409C264.766 80.7962 261.442 80.7962 259.571 82.0409C257.493 83.2855 257.493 85.1524 259.571 86.1896C261.442 87.2268 264.351 87.4342 266.221 86.397L314.638 114.401H375.939L442.435 152.776V220.815L301.547 301.3L282.637 290.306L382.381 232.847C384.459 233.676 387.16 233.676 389.031 232.639C391.109 231.395 391.109 229.528 389.031 228.491C386.953 227.246 383.628 227.246 381.758 228.491C379.888 229.528 379.68 231.187 381.134 232.432L281.39 289.892L263.104 279.312L382.589 210.444H415.006C415.213 211.066 415.629 211.481 416.46 211.896C418.538 213.14 421.863 213.14 423.733 211.896C425.811 210.651 425.811 208.784 423.733 207.747C421.655 206.502 418.33 206.502 416.46 207.747C415.629 208.162 415.213 208.784 415.006 209.199H382.173H381.965L262.065 278.69L254.792 274.541L254.584 274.749L249.182 277.86L220.505 261.473V238.447L244.194 224.757H281.183L322.119 201.316C324.197 202.146 326.899 202.146 328.769 201.109C330.847 199.864 330.847 197.997 328.769 196.96C326.691 195.716 323.366 195.716 321.496 196.96C319.626 197.997 319.418 199.657 320.872 200.902L280.767 223.512H245.857L315.262 183.477C317.34 184.307 320.249 184.307 322.119 183.27C324.197 182.025 324.197 180.158 322.119 179.121C320.041 177.876 316.716 177.876 314.846 179.121C312.976 180.158 312.768 181.817 314.223 182.855L227.57 232.847V221.853L279.105 192.189V171.238L321.08 146.968C323.158 147.798 325.86 147.798 327.73 146.761C329.808 145.516 329.808 143.649 327.73 142.612C325.652 141.367 322.327 141.367 320.457 142.612C318.587 143.649 318.379 145.309 319.833 146.553L277.858 170.823V191.774L226.324 221.438V233.884L219.051 238.033V262.303L247.727 278.69L229.025 289.477L170.218 255.457V216.874L210.115 193.849C212.193 194.678 215.102 194.678 216.973 193.641C219.051 192.397 219.051 190.53 216.973 189.493C214.895 188.248 211.57 188.248 209.7 189.493C207.829 190.53 207.622 192.189 209.076 193.226L170.218 215.63V184.514L200.972 166.882V108.178C202.011 108.178 203.258 107.763 204.089 107.348C206.167 106.103 206.167 104.236 204.089 103.199C202.011 101.955 198.686 101.955 196.816 103.199C194.738 104.444 194.738 106.311 196.816 107.348C197.647 107.763 198.686 108.178 199.933 108.178V166.052L170.426 183.062V79.7591H169.179V256.287L227.986 290.306L206.79 302.545L129.905 258.154V152.569L92.9164 131.203V91.3755L60.2918 72.4988C61.7465 71.2542 61.5386 69.5947 59.6685 68.5575C57.5905 67.3129 54.2657 67.3129 52.3955 68.5575C50.3175 69.8021 50.3175 71.6691 52.3955 72.7062C54.2657 73.7434 57.1747 73.9509 59.045 72.9137L91.6695 91.7903V131.618L128.658 152.984V258.569L205.544 302.96L189.959 311.88L86.0589 251.931V161.904L85.8511 161.696L-5.99622 108.593C-4.54163 107.348 -4.74939 105.689 -6.6196 104.651C-8.6976 103.407 -12.0224 103.407 -13.8926 104.651C-15.9706 105.896 -15.9706 107.763 -13.8926 108.8C-12.0224 109.837 -9.11322 110.045 -7.24304 109.008L85.0199 162.111V252.138L85.2278 252.346L188.712 312.087L163.36 326.608L-9.32104 227.038V182.232L-9.52884 182.025L-154.157 98.6357C-152.703 97.3911 -152.91 95.7316 -154.781 94.6944C-156.859 93.4498 -160.183 93.4498 -162.054 94.6944C-164.132 95.939 -164.132 97.806 -162.054 98.8431C-160.183 99.8803 -157.274 100.088 -155.404 99.0506L-10.5678 182.647V227.453L-10.36 227.661L86.4745 283.461H9.58875L-79.3494 232.224C-77.8948 230.98 -78.1027 229.32 -79.9729 228.283C-82.0509 227.038 -85.3756 227.038 -87.2458 228.283C-89.3239 229.528 -89.3239 231.395 -87.2458 232.432C-85.3756 233.469 -82.4664 233.676 -80.5963 232.639L9.17313 284.498H88.3448L161.906 326.815L132.398 343.825L69.2272 307.316H-32.3868L-147.923 240.729H-211.926L-238.108 225.586C-236.654 224.342 -236.861 222.682 -238.732 221.645C-240.81 220.401 -244.134 220.401 -246.005 221.645C-248.083 222.89 -248.083 224.757 -246.005 225.794C-244.134 226.831 -241.225 227.038 -239.355 226.001L-212.341 241.559H-148.339L-61.0631 291.758H-136.494L-172.236 272.052C-170.781 270.807 -170.989 269.148 -172.859 268.111C-174.937 266.866 -178.262 266.866 -180.132 268.111C-182.21 269.355 -182.21 271.222 -180.132 272.259C-178.262 273.297 -175.353 273.504 -173.483 272.467L-136.286 293.833H-58.5695L-32.3868 308.976H69.2272L86.8901 319.14H43.8757H43.6678L22.0567 331.586H-68.1283L-93.4798 316.858H-144.598C-144.806 316.236 -145.222 315.821 -146.053 315.406C-148.131 314.161 -151.456 314.161 -153.326 315.406C-155.404 316.651 -155.404 318.518 -153.326 319.555C-151.248 320.799 -147.923 320.799 -146.053 319.555C-145.222 319.14 -144.806 318.518 -144.598 318.103H-93.8954L-68.5439 332.831H19.9787L-4.33386 346.936C-6.41187 346.107 -9.11322 346.107 -10.9834 347.144C-13.0614 348.388 -13.0614 350.255 -10.9834 351.292C-8.9054 352.537 -5.58063 352.537 -3.71042 351.292C-1.84021 350.255 -1.63245 348.596 -3.08704 347.351L44.2913 319.97H89.1759L131.775 344.655L115.982 353.782L116.813 354.197L126.164 359.59H96.6567L58.006 337.394C59.4606 336.15 59.2528 334.49 57.3826 333.453C55.3046 332.208 51.9798 332.208 50.1096 333.453C48.0316 334.698 48.0316 336.565 50.1096 337.602C51.9798 338.639 54.889 338.846 56.7592 337.809L96.2411 360.627H128.034L149.646 373.073L136.346 380.748H112.865H112.657L92.0851 392.572H76.7079L41.7977 372.451C43.4601 371.206 43.2523 369.547 41.382 368.51C39.304 367.265 35.9792 367.265 34.1091 368.51C32.0311 369.754 32.0311 371.621 34.1091 372.658C35.9792 373.696 38.6807 373.903 40.7587 373.073L76.5002 393.609H92.5007H92.7085L113.281 381.786H134.476L92.0851 406.263H69.2272L21.4333 378.674H-122.572L-211.926 327.23C-210.471 325.985 -210.471 324.326 -212.341 323.289C-214.419 322.044 -217.744 322.044 -219.614 323.289C-221.692 324.533 -221.692 326.4 -219.614 327.437C-217.744 328.475 -215.043 328.682 -212.965 327.852L-122.78 379.919H21.0177L68.8116 407.508H92.2929H92.5007L150.892 373.903L166.27 382.823L100.189 420.783H53.6422L15.1993 398.588H-83.5054C-83.7132 397.966 -84.1288 397.551 -84.9601 397.136C-87.038 395.891 -90.3628 395.891 -92.233 397.136C-94.311 398.38 -94.311 400.247 -92.233 401.284C-90.155 402.529 -86.8302 402.529 -84.9601 401.284C-84.1288 400.87 -83.7132 400.247 -83.5054 399.832H14.7837L51.1486 420.783H-87.8692H-88.077L-220.445 497.12C-222.523 496.29 -225.225 496.29 -227.095 497.327C-229.173 498.572 -229.173 500.439 -227.095 501.476C-225.017 502.721 -221.692 502.721 -219.822 501.476C-217.952 500.439 -217.744 498.779 -219.199 497.535L-87.4536 421.613H100.397H100.605L167.309 383.238L184.764 393.194L92.7085 446.298H-69.3751H-69.5829L-211.51 528.028H-376.918L-473.545 473.472C-472.091 472.228 -472.298 470.568 -474.169 469.531C-476.247 468.286 -479.571 468.286 -481.442 469.531C-483.519 470.776 -483.519 472.642 -481.442 473.68C-479.571 474.717 -476.662 474.924 -474.792 473.887L-377.542 529.895H-211.51H-211.302L-69.3751 448.165H48.655L-124.442 548.149V574.493L-193.639 614.321C-195.717 613.491 -198.419 613.491 -200.289 614.529C-202.367 615.773 -202.367 617.64 -200.289 618.677C-198.211 619.922 -194.886 619.922 -193.016 618.677C-191.146 617.64 -190.938 615.981 -192.392 614.736L-123.195 574.908V548.564L51.3565 447.958H91.8774L4.60156 498.364V509.359L-37.1662 533.421C-39.2441 532.591 -41.9456 532.591 -43.8158 533.629C-45.8938 534.873 -45.8938 536.74 -43.8158 537.777C-41.7378 539.022 -38.413 539.022 -36.5428 537.777C-34.6726 536.74 -34.4648 535.081 -35.9193 533.836L-13.2692 520.768V551.053L-144.598 626.767C-146.676 625.937 -149.378 625.937 -151.248 626.975C-153.326 628.219 -153.326 630.086 -151.248 631.123C-149.17 632.368 -145.845 632.368 -143.975 631.123C-142.105 630.086 -141.897 628.427 -143.352 627.182L-12.0224 551.468V519.73L5.84836 509.359V499.194L93.9554 448.372L93.7475 447.958L186.218 394.647L203.05 404.396L108.086 459.159V549.186L-66.6737 650H-64.3879L80.2405 566.611V648.133L76.9158 650H79.2015L81.2795 648.755V565.989L108.917 550.016V459.989L203.881 405.226L218.635 413.731L145.282 456.048V505.417L145.49 505.625L228.817 553.542V570.345L181.647 597.519C179.569 596.689 176.867 596.689 174.997 597.726C172.919 598.971 172.919 600.838 174.997 601.875C177.075 603.12 180.4 603.12 182.27 601.875C184.14 600.838 184.348 599.178 182.894 597.934L230.064 570.76V552.713L229.856 552.505L146.529 504.588V456.462L201.803 424.517V445.053L176.452 459.781C174.374 458.952 171.672 458.952 169.802 459.989C167.724 461.233 167.724 463.1 169.802 464.138C171.88 465.382 175.205 465.382 177.075 464.138C178.945 463.1 179.153 461.441 177.699 460.196L203.05 445.468V423.48L219.882 413.731L239.623 425.14V461.026L202.219 482.599V507.284L202.427 507.492L280.975 552.713C279.52 553.957 279.728 555.617 281.598 556.654C283.676 557.898 287.001 557.898 288.871 556.654C290.949 555.409 290.949 553.542 288.871 552.505C287.001 551.468 284.092 551.261 282.222 552.298L203.258 506.869V483.429L239.415 462.478V487.163L287.832 514.959C286.378 516.204 286.585 517.863 288.456 518.901C290.534 520.145 293.858 520.145 295.729 518.901C297.807 517.656 297.807 515.789 295.729 514.752C293.858 513.715 290.949 513.507 289.079 514.544L240.662 486.748V426.177L254.584 434.267L254.792 434.059L277.442 420.991L298.222 433.022V462.063L353.289 493.801V521.182C352.25 521.182 351.003 521.597 350.172 522.012C348.094 523.257 348.094 525.124 350.172 526.161C352.25 527.405 355.575 527.405 357.445 526.161C359.523 524.916 359.523 523.049 357.445 522.012C356.614 521.597 355.575 521.182 354.328 521.182V493.179L299.469 461.648V433.852L388.823 485.296V539.852L340.406 567.855H295.936H295.729L219.466 611.832C217.388 611.002 214.687 611.002 212.817 612.039C210.739 613.284 210.739 615.151 212.817 616.188C214.895 617.433 218.219 617.433 220.09 616.188C221.96 615.151 222.168 613.491 220.713 612.247L296.352 568.685H338.535L198.479 649.378C196.401 648.548 193.699 648.548 191.829 649.585H200.349L390.277 540.059V484.259L390.07 484.051L279.105 420.161L301.339 407.3L490.645 516.411V581.546L555.27 618.885C553.816 620.129 554.023 621.789 555.894 622.826C557.972 624.071 561.296 624.071 563.167 622.826C565.245 621.581 565.245 619.714 563.167 618.677C561.296 617.64 558.387 617.433 556.517 618.47L491.891 581.131V515.996L491.684 515.789L302.586 406.885L323.782 394.647L511.009 502.513H622.805L628 505.625V504.38L623.013 501.476H511.217L353.081 410.412H384.875L438.903 441.527H480.462H480.67L538.231 408.337C540.309 409.167 543.01 409.167 544.88 408.13C546.958 406.885 546.958 405.018 544.88 403.981C542.802 402.737 539.477 402.737 537.607 403.981C535.737 405.018 535.529 406.678 536.984 407.922L480.047 440.697H439.11L385.082 409.582H351.003L324.613 394.439L381.342 361.664L397.55 370.999V395.476L438.487 419.124C437.032 420.369 437.24 422.028 439.11 423.065C441.188 424.31 444.513 424.31 446.383 423.065C448.461 421.821 448.461 419.954 446.383 418.917C444.513 417.879 441.604 417.672 439.734 418.709L398.797 395.061V372.036L442.435 397.136H463.215H463.423L488.151 382.823C490.229 383.652 492.93 383.652 494.801 382.615C496.879 381.371 496.879 379.504 494.801 378.467C492.723 377.222 489.398 377.222 487.528 378.467C485.657 379.504 485.45 381.163 486.904 382.408L463.007 396.306H442.851L382.589 360.627L393.602 354.404L392.771 353.989L358.692 334.49L375.108 325.156H399.836L417.499 335.32C416.044 336.565 416.252 338.017 418.123 339.054C420.201 340.298 423.525 340.298 425.396 339.054C427.474 337.809 427.474 335.942 425.396 334.905C423.525 333.868 420.616 333.66 418.538 334.698L400.044 324.118H376.978L418.538 300.056L516.62 356.478H587.064H587.271L626.961 333.66C627.169 333.868 627.584 333.868 627.792 333.868V328.475C627.169 328.682 626.753 328.889 626.338 329.097C624.467 330.134 624.26 331.793 625.714 333.038L586.648 355.441H516.827L441.188 311.88H473.605L505.191 330.134C503.736 331.379 503.944 333.038 505.814 334.075C507.892 335.32 511.217 335.32 513.087 334.075C515.165 332.831 515.165 330.964 513.087 329.927C511.217 328.889 508.307 328.682 506.437 329.719L474.021 311.05H439.318L419.785 299.848L469.449 271.222H627.584V269.978H471.319L491.06 258.569H608.675H608.883L627.584 247.782V246.537L608.467 257.532H490.852H490.645L357.237 334.49L342.484 325.985L482.748 245.085H585.193H585.401L627.584 220.815V219.571L584.986 244.256H482.54H482.333L341.445 325.57L324.613 315.821L598.077 158.17V100.918L627.792 83.9078V81.626ZM391.316 354.404L254.792 433.022L118.268 354.404L254.792 275.786L391.316 354.404Z" fill="#F2C94C"/>
</svg>
