<svg width="1241" height="763" viewBox="0 0 1241 763" fill="none" xmlns="http://www.w3.org/2000/svg">
<g opacity="0.4">
<path opacity="0.8" d="M1.42505 -2.22659C3.97473 -3.71549 8.43665 -3.71549 10.9863 -2.22659C12.8987 -1.16309 13.5361 0.538507 12.4738 2.0274L160.143 87.32V195.159L196.052 216.003V333.201L319.287 404.455L338.409 393.395L243.433 338.518V274.283L243.858 274.07L352.008 211.537V189.841L291.028 154.32C288.478 155.384 284.653 155.384 282.316 153.895C279.766 152.406 279.766 149.854 282.316 148.365C284.866 146.876 289.328 146.876 291.877 148.365C294.215 149.641 294.427 151.768 292.515 153.47L353.707 188.778V212.387L353.283 212.6L245.133 275.134V337.667L316.949 379.144V352.344L284.016 333.413C281.466 334.477 277.642 334.477 275.304 332.988C272.755 331.499 272.755 328.947 275.304 327.458C277.854 325.969 282.316 325.969 284.866 327.458C287.203 328.734 287.415 330.861 285.503 332.563L318.437 351.493V379.995L340.109 392.544L365.818 377.655V331.074L317.374 302.997V270.667L317.799 270.454L419.787 211.537C417.875 210.048 418.087 207.921 420.424 206.432C422.974 204.943 427.436 204.943 429.986 206.432C432.535 207.921 432.535 210.473 429.986 211.962C427.648 213.238 423.824 213.451 421.274 212.387L318.862 271.518V301.934L365.818 329.159V297.042L366.243 296.829L428.711 260.67C426.799 259.181 427.011 257.054 429.348 255.565C431.898 254.077 436.36 254.077 438.91 255.565C441.459 257.054 441.459 259.607 438.91 261.096C436.572 262.372 432.748 262.584 430.198 261.521L367.518 297.893V376.591L385.579 366.169L415.325 383.398L442.309 367.871V330.01L442.734 329.798L513.913 288.747V253.013C512.426 253.013 510.938 252.588 509.876 251.949C507.326 250.461 507.326 247.908 509.876 246.419C512.426 244.93 516.888 244.93 519.437 246.419C521.987 247.908 521.987 250.461 519.437 251.949C518.375 252.588 516.888 253.013 515.4 253.013V289.597L514.975 289.81L443.797 330.861V367.02L559.595 300.02V228.978L496.703 192.606H439.122H438.91L339.897 135.39C337.347 136.454 333.522 136.454 331.185 134.965C328.635 133.476 328.635 130.923 331.185 129.435C333.735 127.946 338.197 127.946 340.746 129.435C343.084 130.711 343.296 133.05 341.384 134.539L439.335 191.117H493.94L312.275 86.2565C309.725 87.32 305.901 87.32 303.563 85.8311C301.014 84.3422 301.014 81.7898 303.563 80.3009C306.113 78.812 310.575 78.812 313.125 80.3009C315.462 81.5771 315.675 83.9168 313.762 85.4057L561.082 228.34V301.083L560.657 301.296L416.812 384.461L445.709 401.265L691.329 259.181V174.527L691.754 174.314L775.256 126.031C773.344 124.542 773.557 122.415 775.894 120.927C778.444 119.438 782.905 119.438 785.455 120.927C788.005 122.415 788.005 124.968 785.455 126.457C783.118 127.733 779.293 127.946 776.744 126.882L692.816 175.378V260.032L692.391 260.245L446.984 402.115L474.605 418.068L717.676 277.686H862.583L953.097 225.362V144.962C952.247 144.749 951.185 144.536 950.548 144.111C947.998 142.622 947.998 140.069 950.548 138.581C953.097 137.092 957.559 137.092 960.109 138.581C962.659 140.069 962.659 142.622 960.109 144.111C958.622 144.962 956.709 145.387 954.797 145.174V226.213L954.372 226.426L863.008 279.175H718.101L513.063 397.649H554.283L624.187 357.236H678.156H678.368L753.159 400.414C755.709 399.35 759.533 399.35 761.871 400.839C764.42 402.328 764.42 404.881 761.871 406.369C759.321 407.858 754.859 407.858 752.309 406.369C749.972 405.093 749.759 402.754 751.672 401.265L677.731 358.512H624.612L554.708 398.925H510.513L476.305 418.706L549.821 461.246L570.856 449.122V417.43L623.975 386.801C622.062 385.312 622.275 383.185 624.612 381.696C627.162 380.207 631.624 380.207 634.173 381.696C636.723 383.185 636.723 385.738 634.173 387.226C631.836 388.503 628.012 388.715 625.462 387.652L572.343 418.281V448.271L629.074 415.728H655.846H656.058L688.142 434.233C690.692 433.17 694.516 433.17 696.853 434.659C699.403 436.147 699.403 438.7 696.853 440.189C694.304 441.678 689.842 441.678 687.292 440.189C684.955 438.912 684.742 436.573 686.655 435.084L655.633 417.217H629.499L551.521 462.309L565.757 470.605L520.5 496.767L541.747 509.103H573.831L596.778 495.916C594.866 494.427 595.291 492.3 597.628 491.024C600.178 489.535 604.64 489.535 607.189 491.024C609.739 492.513 609.739 495.065 607.189 496.554C604.852 498.043 601.028 498.043 598.478 496.979L574.468 510.805H544.722L598.69 542.072L725.75 468.69H817.114H817.326L868.745 498.468C871.295 497.405 875.119 497.405 877.457 498.894C880.006 500.383 880.006 502.935 877.457 504.424C874.907 505.913 870.445 505.913 867.895 504.424C865.558 503.148 865.345 500.808 867.258 499.319L816.689 470.179H725.962L628.012 526.757H669.869L710.877 503.148C708.964 501.659 709.177 499.532 711.514 498.043C714.064 496.554 718.526 496.554 721.075 498.043C723.625 499.532 723.625 502.084 721.075 503.573C718.738 504.849 714.914 505.062 712.364 503.999L670.294 528.246H625.25L599.965 542.923L664.132 579.72H870.445L1030.65 487.195C1028.74 485.706 1028.95 483.579 1031.29 482.091C1033.84 480.602 1038.3 480.602 1040.85 482.091C1043.4 483.579 1043.4 486.132 1040.85 487.621C1038.51 488.897 1034.69 489.11 1032.14 488.046L870.87 581.209H666.894L692.391 596.098H845.16H845.373L920.589 639.701C923.138 638.638 926.963 638.637 929.3 640.126C931.85 641.615 931.85 644.168 929.3 645.657C926.751 647.145 922.289 647.145 919.739 645.657C917.402 644.38 917.189 642.041 919.101 640.552L844.735 597.586H691.966H691.754L518.8 497.618L499.677 508.678L681.555 613.752H814.564H814.777L975.407 706.701H1198.08L1241 681.815V683.517L1198.29 708.19H974.982H974.77L873.844 649.911V684.368L940.349 722.867C942.899 721.803 946.723 721.803 949.06 723.292C951.61 724.781 951.61 727.333 949.06 728.822C946.511 730.311 942.049 730.311 939.499 728.822C937.162 727.546 936.949 725.206 938.862 723.717L872.357 685.219V649.272H872.782L814.139 615.453H681.13H680.918L498.19 509.742L476.305 522.291L831.137 727.333V764.343H829.65V728.184L474.818 523.142L447.834 538.669L630.774 644.38V663.311L663.282 682.028V725.419L726.175 761.791C728.724 760.727 732.549 760.727 734.886 762.216C735.949 762.854 736.374 763.492 736.799 764.13H723.625C723.838 763.705 724.263 763.067 724.688 762.641L661.795 726.27V682.879L630.774 665.012V734.565L612.501 745.2L645.435 764.13H642.46L611.014 746.051L579.568 764.13H576.593L629.287 733.714V645.231L446.346 539.307L421.699 553.558L551.096 628.428C553.646 627.364 557.47 627.364 559.807 628.853C562.357 630.342 562.357 632.895 559.807 634.383C557.258 635.872 552.796 635.872 550.246 634.383C547.909 633.107 547.696 630.98 549.609 629.279L420.212 554.408L396.415 568.021L551.308 657.568H593.378C593.591 656.93 594.228 656.079 595.291 655.653C597.84 654.165 602.302 654.165 604.852 655.653C607.402 657.142 607.402 659.695 604.852 661.184C602.302 662.672 597.84 662.672 595.291 661.184C594.228 660.545 593.591 659.907 593.378 659.269H550.884H550.671L394.927 569.297L385.366 574.828L377.929 570.574L340.746 592.056V621.834L371.343 639.488H419.362H419.574L472.268 669.904C474.818 668.841 478.642 668.841 480.979 670.33C483.529 671.819 483.529 674.371 480.979 675.86C478.43 677.349 473.968 677.349 471.418 675.86C469.081 674.584 468.868 672.244 470.781 670.755L418.937 640.764H374.105L464.194 692.876C466.744 691.6 470.568 691.812 473.118 693.089C475.668 694.577 475.668 697.13 473.118 698.619C470.568 700.108 466.106 700.108 463.557 698.619C461.219 697.343 461.007 695.216 462.707 693.727L350.308 628.641V643.104L417.237 681.815V709.041L471.631 740.521C474.18 739.457 478.005 739.457 480.342 740.946C482.892 742.435 482.892 744.987 480.342 746.476C477.792 747.965 473.33 747.965 470.781 746.476C468.444 745.2 468.231 742.86 470.143 741.371L415.75 709.892V682.666L348.821 643.955V627.79L339.472 622.472V590.78L376.655 569.297L352.22 555.259L275.942 599.501V649.698L327.786 679.688C330.335 678.412 334.16 678.625 336.709 679.901C339.259 681.39 339.259 683.943 336.709 685.431C334.16 686.92 329.698 686.92 327.148 685.431C324.811 684.155 324.598 682.028 326.298 680.539L275.942 651.399V692.025L315.675 714.997V764.13H314.187V715.847L275.942 693.727V764.13H274.455V598.65L350.733 554.408L323.324 538.669L223.461 596.31V733.714L175.442 761.365V764.13H173.954V760.514L221.973 732.863V595.459L321.836 537.818L301.439 526.119L166.73 603.967V721.165L92.1516 764.13H89.177L165.243 720.314V603.117L299.951 525.269L267.018 506.338L42.8575 635.872V694.152L-34.0581 738.606V736.905L41.1577 693.301V635.022L167.155 562.066H67.5046L-34.0581 620.771V619.069L67.2921 560.577H170.13L265.531 505.275L227.285 483.154L145.27 530.586H13.5361L-33.8457 558.024V556.323L-23.4343 550.367H-33.8457V548.878H-20.8848L13.1111 529.31H144.845L167.792 516.122H111.699H111.487L83.4402 499.957H-33.6332L-34.0581 500.17V498.468H80.678L49.0193 480.176C46.4696 481.24 42.6451 481.24 40.308 479.751C37.7582 478.262 37.7582 475.71 40.308 474.221C42.8577 472.732 47.3196 472.732 49.8693 474.221C52.2065 475.497 52.4189 477.837 50.5067 479.325L111.912 514.846H170.13L225.585 482.941L205.188 471.03L218.361 463.373H180.116L130.185 492.3C132.097 493.789 131.884 495.916 129.547 497.405C126.997 498.894 122.536 498.894 119.986 497.405C117.436 495.916 117.436 493.364 119.986 491.875C122.323 490.599 126.147 490.386 128.697 491.449L179.903 461.884H221.123L249.17 445.719L231.96 435.722H201.363L174.592 420.195H154.619L109.362 446.357C111.487 447.846 111.274 449.973 108.724 451.462C106.175 452.951 101.713 452.951 99.1632 451.462C96.6135 449.973 96.6135 447.421 99.1632 445.932C101.5 444.655 105.112 444.443 107.662 445.506L153.982 418.706H174.804L201.576 434.233H229.197L174.167 402.328H144.42L82.3778 438.062H-34.0581V436.573H81.9529L143.995 400.839H174.592H174.804L250.657 444.655L270.63 433.17L185.003 383.611H124.66L74.7286 412.325H-33.8457V410.836H74.3038L121.473 383.611H-33.8457V382.122H185.215H185.428L272.117 431.893L294.64 418.919L175.229 349.791H-33.8457V348.302H118.498L-33.8457 260.245V258.543L121.473 348.302H174.167L60.9178 282.791V268.327L6.73694 237.061C4.18726 238.124 0.362671 238.124 -1.97449 236.635C-4.52417 235.146 -4.52417 232.594 -1.97449 231.105C0.575195 229.616 5.03711 229.616 7.58679 231.105C9.92407 232.381 10.1365 234.508 8.22424 236.21L37.7582 253.226V213.664L-33.8457 172.4V170.698L39.2456 212.813V254.076L62.4052 267.477V281.94L176.504 347.877L176.079 348.515L296.127 418.068L318.012 405.519L194.777 334.264V217.067L-33.8457 84.7676V83.066L158.656 194.308V88.3835L11.199 3.3036L10.9863 3.5163C8.43665 5.0052 3.97473 5.0052 1.42505 3.5163C-1.12463 1.81471 -1.12463 -0.524991 1.42505 -2.22659ZM208.375 470.392L385.366 572.701L562.357 470.392L385.366 368.083L208.375 470.392Z" fill="url(#paint0_radial_124_1761)"/>
<path opacity="0.1" d="M-33.8461 181.431L-2.38696 199.689V258.284L277.345 419.633L298.601 407.32L154.272 324.098V309.237L128.764 294.588V260.407L79.2371 231.746C77.1115 232.596 74.3481 232.596 72.4351 231.534C70.3094 230.26 70.3094 228.35 72.4351 227.288C74.5607 226.014 77.9617 226.014 79.8748 227.288C81.7878 228.35 82.0004 230.048 80.5125 231.322L130.039 259.983V294.163L154.484 308.175V253.401L154.697 253.189L168.726 245.121L84.126 196.292V141.518L23.9708 106.913C21.8452 107.762 19.0819 107.762 17.1688 106.701C15.0432 105.427 15.0432 103.516 17.1688 102.455C19.2944 101.181 22.6954 101.181 24.6085 102.455C26.5216 103.516 26.7341 105.215 25.2462 106.488L85.4013 141.094V195.867L170.001 244.697L307.529 165.296V103.941C306.466 103.941 305.191 103.516 304.341 103.092C302.215 101.818 302.215 99.907 304.341 98.8455C306.466 97.5717 309.867 97.5717 311.78 98.8455C313.906 100.119 313.906 102.03 311.78 103.092C310.93 103.516 309.867 103.941 308.592 103.941V165.933L308.379 166.145L225.693 213.913H286.06L334.737 185.889C333.249 184.615 333.462 182.917 335.375 181.856C337.5 180.582 340.901 180.582 342.815 181.856C344.94 183.129 344.94 185.04 342.815 186.102C340.901 187.163 337.926 187.375 336.012 186.314L286.485 214.975H223.78L155.76 254.25V323.885L299.877 406.259L319.22 395.007L217.19 336.199C215.064 337.048 212.301 337.048 210.388 335.987C208.262 334.713 208.262 332.802 210.388 331.741C212.514 330.467 215.915 330.467 217.828 331.741C219.741 332.802 219.953 334.5 218.466 335.774L320.495 394.582L339.201 383.754L216.978 313.27H183.818C183.605 313.907 183.18 314.332 182.33 314.756C180.204 316.03 176.803 316.03 174.89 314.756C172.765 313.483 172.765 311.572 174.89 310.51C177.016 309.237 180.417 309.237 182.33 310.51C183.18 310.935 183.605 311.572 183.818 311.997H217.403H217.615L340.264 383.118L347.703 378.872L347.916 379.084L353.443 382.268L382.776 365.497V341.931L358.544 327.919H320.708L278.833 303.929C276.708 304.778 273.944 304.778 272.031 303.717C269.906 302.443 269.906 300.532 272.031 299.471C274.157 298.197 277.558 298.197 279.471 299.471C281.384 300.532 281.596 302.231 280.109 303.504L321.133 326.645H356.844L285.848 285.671C283.722 286.52 280.746 286.52 278.833 285.459C276.708 284.185 276.708 282.274 278.833 281.213C280.959 279.939 284.36 279.939 286.273 281.213C288.186 282.274 288.398 283.973 286.91 285.034L375.549 336.199V324.947L322.834 294.588V273.145L279.896 248.306C277.77 249.155 275.007 249.155 273.094 248.094C270.968 246.82 270.968 244.909 273.094 243.848C275.22 242.574 278.621 242.574 280.534 243.848C282.447 244.909 282.659 246.608 281.171 247.881L324.109 272.721V294.163L376.824 324.522V337.26L384.264 341.506V366.346L354.93 383.118L374.061 394.157L434.216 359.34V319.852L393.404 296.286C391.279 297.135 388.303 297.135 386.39 296.074C384.264 294.8 384.264 292.889 386.39 291.828C388.515 290.554 391.916 290.554 393.829 291.828C395.743 292.889 395.955 294.588 394.467 295.649L434.216 318.578V286.733L402.757 268.687V208.606C401.694 208.606 400.419 208.181 399.569 207.756C397.443 206.483 397.443 204.572 399.569 203.51C401.694 202.236 405.095 202.236 407.008 203.51C409.134 204.784 409.134 206.695 407.008 207.756C406.158 208.181 405.095 208.606 403.82 208.606V267.838L434.004 285.246V179.52H435.279V360.189L375.124 395.007L396.805 407.532L475.453 362.1V254.038L513.289 232.171V191.409L546.662 172.09C545.174 170.816 545.386 169.117 547.299 168.056C549.425 166.782 552.826 166.782 554.739 168.056C556.865 169.33 556.865 171.24 554.739 172.302C552.826 173.363 549.85 173.576 547.937 172.514L514.565 191.834V232.596L476.729 254.463V362.524L398.081 407.957L414.023 417.086L520.304 355.731V263.592L520.517 263.379L614.469 209.03C612.981 207.756 613.194 206.058 615.107 204.996C617.233 203.723 620.633 203.723 622.547 204.996C624.672 206.27 624.672 208.181 622.547 209.242C620.633 210.304 617.658 210.516 615.745 209.455L521.367 263.804V355.943L521.154 356.155L415.298 417.298L441.231 432.159L617.87 330.254V284.397L618.083 284.185L766.026 198.84C764.538 197.566 764.751 195.867 766.664 194.806C768.79 193.532 772.191 193.532 774.104 194.806C776.229 196.08 776.229 197.99 774.104 199.052C772.191 200.113 769.215 200.326 767.302 199.264L619.146 284.822V330.679L618.933 330.891L519.879 388.001H598.527L689.504 335.562C688.016 334.288 688.228 332.59 690.141 331.528C692.267 330.254 695.668 330.254 697.581 331.528C699.707 332.802 699.707 334.713 697.581 335.774C695.668 336.836 692.692 337.048 690.779 335.987L598.952 389.062H517.966L442.719 432.372L472.903 449.78L537.522 412.415H641.465L759.649 344.266H825.119L851.901 328.768C850.413 327.495 850.626 325.796 852.539 324.735C854.665 323.461 858.066 323.461 859.979 324.735C862.104 326.008 862.104 327.919 859.979 328.981C858.066 330.042 855.09 330.254 853.177 329.193L825.544 345.116H760.074L670.798 396.493H747.958L784.519 376.324C783.031 375.05 783.244 373.352 785.157 372.29C787.282 371.016 790.683 371.016 792.597 372.29C794.722 373.564 794.722 375.475 792.597 376.536C790.683 377.598 787.708 377.81 785.795 376.749L747.746 398.616H668.247L641.465 414.114H537.522L519.454 424.516H563.454H563.667L585.773 437.255H678.025L703.958 422.181H756.248C756.461 421.544 756.886 421.12 757.736 420.695C759.862 419.421 763.263 419.421 765.176 420.695C767.302 421.969 767.302 423.88 765.176 424.941C763.05 426.215 759.649 426.215 757.736 424.941C756.886 424.516 756.461 423.88 756.248 423.455H704.383L678.451 438.528H587.899L612.769 452.965C614.894 452.116 617.658 452.116 619.571 453.177C621.696 454.451 621.696 456.362 619.571 457.423C617.445 458.697 614.044 458.697 612.131 457.423C610.218 456.362 610.005 454.663 611.493 453.389L563.029 425.366H517.116L473.54 450.63L489.695 459.971L488.845 460.395L479.279 465.915H509.463L549 443.199C547.512 441.925 547.725 440.227 549.638 439.165C551.763 437.891 555.164 437.891 557.077 439.165C559.203 440.439 559.203 442.35 557.077 443.411C555.164 444.473 552.188 444.685 550.275 443.624L509.888 466.977H477.367L455.26 479.715L468.864 487.57H492.884H493.096L514.14 499.671H529.869L565.58 479.078C563.879 477.804 564.092 476.106 566.005 475.044C568.131 473.77 571.532 473.77 573.445 475.044C575.57 476.318 575.57 478.229 573.445 479.29C571.532 480.352 568.768 480.564 566.643 479.715L530.082 500.733H513.715H513.502L492.458 488.632H470.777L514.14 513.683H537.522L586.411 485.447H733.717L825.119 432.796C823.631 431.522 823.631 429.824 825.544 428.762C827.669 427.489 831.07 427.489 832.983 428.762C835.109 430.036 835.109 431.947 832.983 433.009C831.07 434.07 828.307 434.282 826.181 433.433L733.929 486.721H586.836L537.947 514.957H513.927H513.715L453.985 480.564L438.255 489.693L505.85 528.544H553.464L592.788 505.828H693.755C693.968 505.191 694.393 504.767 695.243 504.342C697.369 503.068 700.77 503.068 702.683 504.342C704.808 505.616 704.808 507.526 702.683 508.588C700.557 509.862 697.156 509.862 695.243 508.588C694.393 508.163 693.968 507.526 693.755 507.102H593.213L556.015 528.544H698.219H698.431L833.834 606.671C835.959 605.822 838.723 605.822 840.636 606.884C842.761 608.158 842.761 610.068 840.636 611.13C838.51 612.404 835.109 612.404 833.196 611.13C831.283 610.068 831.07 608.37 832.558 607.096L697.794 529.394H505.637H505.425L437.192 490.118L419.337 500.308L513.502 554.657H679.301H679.513L824.693 638.304H993.893L1092.73 582.469C1091.25 581.195 1091.46 579.497 1093.37 578.435C1095.5 577.161 1098.9 577.161 1100.81 578.435C1102.94 579.709 1102.94 581.62 1100.81 582.681C1098.9 583.743 1095.92 583.955 1094.01 582.894L994.531 640.215H824.693H824.481L679.301 556.568H558.565L735.63 658.898V685.86L806.413 726.622C808.539 725.773 811.302 725.773 813.215 726.834C815.341 728.108 815.341 730.019 813.215 731.08C811.089 732.354 807.688 732.354 805.775 731.08C803.862 730.019 803.65 728.32 805.138 727.047L734.354 686.285V659.322L555.802 556.356H514.352L603.629 607.945V619.197L646.354 643.824C648.479 642.975 651.243 642.975 653.156 644.036C655.281 645.31 655.281 647.221 653.156 648.283C651.03 649.556 647.629 649.556 645.716 648.283C643.803 647.221 643.59 645.523 645.078 644.249L621.909 630.874V661.87L756.248 739.36C758.374 738.511 761.137 738.511 763.05 739.572C765.176 740.846 765.176 742.757 763.05 743.818C760.925 745.092 757.524 745.092 755.611 743.818C753.698 742.757 753.485 741.058 754.973 739.785L620.634 662.294V629.812L602.353 619.197V608.794L512.227 556.78L512.439 556.356L417.849 501.794L400.631 511.772L497.772 567.82V659.959L676.537 763.138H674.199L526.256 677.792V761.227L529.657 763.138H527.319L525.193 761.864V677.156L496.922 660.808V568.669L399.781 512.622L384.689 521.326L459.724 564.636V615.163L459.511 615.376L374.274 664.417V681.614L422.525 709.425C424.651 708.576 427.414 708.576 429.327 709.638C431.453 710.912 431.453 712.822 429.327 713.884C427.202 715.158 423.801 715.158 421.888 713.884C419.975 712.822 419.762 711.124 421.25 709.85L372.998 682.039V663.568L373.211 663.356L458.448 614.314V565.06L401.907 532.366V553.384L427.839 568.457C429.965 567.608 432.728 567.608 434.641 568.669C436.767 569.943 436.767 571.854 434.641 572.915C432.516 574.189 429.115 574.189 427.202 572.915C425.289 571.854 425.076 570.156 426.564 568.882L400.631 553.808V531.304L383.414 521.326L363.22 533.003V569.731L401.482 591.81V617.074L401.269 617.286L320.92 663.568C322.408 664.842 322.196 666.541 320.283 667.602C318.157 668.876 314.756 668.876 312.843 667.602C310.717 666.328 310.717 664.417 312.843 663.356C314.756 662.294 317.732 662.082 319.645 663.144L400.419 616.65V592.659L363.433 571.217V596.481L313.906 624.929C315.394 626.203 315.181 627.902 313.268 628.963C311.143 630.237 307.742 630.237 305.829 628.963C303.703 627.689 303.703 625.779 305.829 624.717C307.742 623.656 310.718 623.443 312.631 624.505L362.158 596.056V534.064L347.916 542.344L347.703 542.132L324.534 528.757L303.278 541.07V570.792L246.949 603.275V631.298C248.012 631.298 249.287 631.723 250.137 632.148C252.263 633.421 252.263 635.332 250.137 636.394C248.012 637.667 244.611 637.667 242.698 636.394C240.572 635.12 240.572 633.209 242.698 632.148C243.548 631.723 244.611 631.298 245.886 631.298V602.638L302.003 570.368V541.919L210.601 594.57V650.406L260.128 679.066H305.616H305.829L383.839 724.074C385.965 723.225 388.728 723.225 390.641 724.287C392.767 725.56 392.767 727.471 390.641 728.533C388.515 729.806 385.114 729.806 383.201 728.533C381.288 727.471 381.076 725.773 382.564 724.499L305.191 679.916H262.041L405.308 762.501C407.433 761.652 410.197 761.652 412.11 762.713H403.395L209.113 650.618V593.509L209.325 593.296L322.834 527.907L300.089 514.745L106.445 626.415V693.078L40.3383 731.293C41.8262 732.566 41.6135 734.265 39.7004 735.326C37.5748 736.6 34.1738 736.6 32.2607 735.326C30.1351 734.052 30.1351 732.142 32.2607 731.08C34.1738 730.019 37.1497 729.806 39.0627 730.868L105.17 692.654V625.991L105.382 625.779L298.814 514.32L277.133 501.794L85.614 612.191H-28.7446L-34.0586 615.376V614.102L-28.9573 611.13H85.4013L247.161 517.929H214.639L159.373 549.775H116.861H116.648L57.7682 515.806C55.6426 516.655 52.8794 516.655 50.9663 515.594C48.8407 514.32 48.8407 512.409 50.9663 511.348C53.0919 510.074 56.4929 510.074 58.406 511.348C60.3191 512.409 60.5316 514.108 59.0437 515.382L117.286 548.925H159.161L214.427 517.08H249.287L276.282 501.582L218.253 468.038L201.673 477.592V502.644L159.798 526.846C161.286 528.12 161.074 529.818 159.161 530.88C157.035 532.153 153.634 532.153 151.721 530.88C149.595 529.606 149.595 527.695 151.721 526.634C153.634 525.572 156.61 525.36 158.523 526.421L200.398 502.219V478.653L155.76 504.342H134.503H134.291L108.996 489.693C106.87 490.542 104.107 490.542 102.194 489.481C100.068 488.207 100.068 486.296 102.194 485.235C104.319 483.961 107.72 483.961 109.633 485.235C111.547 486.296 111.759 487.995 110.271 489.268L134.716 503.493H155.334L216.978 466.977L205.712 460.608L206.562 460.183L241.422 440.227L224.63 430.673H199.335L181.267 441.076C182.755 442.35 182.542 443.836 180.629 444.897C178.504 446.171 175.103 446.171 173.19 444.897C171.064 443.624 171.064 441.713 173.19 440.651C175.103 439.59 178.079 439.378 180.204 440.439L199.122 429.612H222.717L180.204 404.985L79.8748 462.731H7.81604H7.60352L-32.9958 439.378C-33.2084 439.59 -33.6335 439.59 -33.8461 439.59V434.07C-33.2085 434.282 -32.7833 434.495 -32.3582 434.707C-30.4451 435.768 -30.2325 437.467 -31.7205 438.741L8.24121 461.669H79.6622L157.035 417.086H123.875L91.5657 435.768C93.0536 437.042 92.8411 438.741 90.928 439.802C88.8024 441.076 85.4014 441.076 83.4883 439.802C81.3627 438.528 81.3627 436.618 83.4883 435.556C85.4014 434.495 88.3773 434.282 90.2903 435.344L123.45 416.237H158.948L178.929 404.772L128.126 375.475H-33.6337V374.201H126.213L106.02 362.524H-14.2904H-14.5031L-33.6337 351.485V350.211L-14.0779 361.463H106.233H106.445L242.91 440.227L258.002 431.522L114.522 348.725H9.72913H9.5166L-33.6337 323.885V322.612L9.94165 347.876H114.735H114.948L259.065 431.098L276.282 421.12L-3.44971 259.77V201.175L-33.8461 183.766V181.431ZM208.05 460.608L347.703 541.07L487.357 460.608L347.703 380.145L208.05 460.608Z" fill="#42E8E0"/>
</g>
<defs>
<radialGradient id="paint0_radial_124_1761" cx="0" cy="0" r="1" gradientUnits="userSpaceOnUse" gradientTransform="translate(-61.4677 112.435) scale(933.489 934.479)">
<stop stop-color="#FF2C9C"/>
<stop offset="0.0300632" stop-color="#F62F9F"/>
<stop offset="0.2023" stop-color="#C63EB0"/>
<stop offset="0.3737" stop-color="#9E4BBE"/>
<stop offset="0.5413" stop-color="#7F54C9"/>
<stop offset="0.7039" stop-color="#695BD1"/>
<stop offset="0.8594" stop-color="#5C60D5"/>
<stop offset="1" stop-color="#5761D7"/>
</radialGradient>
</defs>
</svg>
