<svg width="375" height="412" viewBox="0 0 375 412" fill="none" xmlns="http://www.w3.org/2000/svg">
<path opacity="0.1" d="M-82.0995 52.231L-62.6392 63.5252V99.7715L110.4 199.58L123.549 191.963L34.2679 140.483V131.29L18.4893 122.228V101.085L-12.1476 83.3556C-13.4625 83.8809 -15.1718 83.8809 -16.3552 83.2243C-17.6701 82.4363 -17.6701 81.2544 -16.3552 80.5977C-15.0403 79.8098 -12.9365 79.8098 -11.7531 80.5977C-10.5698 81.2544 -10.4383 82.305 -11.3587 83.0929L19.2781 100.822V121.966L34.3993 130.633V96.751L34.5308 96.6197L43.209 91.6292L-9.12335 61.4239V27.5415L-46.3346 6.13512C-47.6495 6.66043 -49.3588 6.66043 -50.5422 6.0038C-51.8571 5.21583 -51.8571 4.03389 -50.5422 3.37725C-49.2274 2.58929 -47.1235 2.58929 -45.9401 3.37725C-44.7568 4.03389 -44.6253 5.08451 -45.5457 5.87247L-8.33447 27.2788V61.1613L43.998 91.3666L129.071 42.2501V4.29654C128.414 4.29654 127.625 4.03389 127.099 3.77124C125.784 2.98327 125.784 1.80132 127.099 1.14468C128.414 0.35672 130.517 0.35672 131.701 1.14468C133.016 1.93265 133.016 3.1146 131.701 3.77124C131.175 4.03389 130.517 4.29654 129.729 4.29654V42.6441L129.597 42.7755L78.448 72.3241H115.791L145.902 54.9889C144.981 54.2009 145.113 53.1503 146.296 52.4937C147.611 51.7057 149.715 51.7057 150.898 52.4937C152.213 53.2816 152.213 54.4636 150.898 55.1202C149.715 55.7769 147.874 55.9082 146.691 55.2515L116.054 72.9807H77.2646L35.1883 97.2763V140.352L124.337 191.307L136.303 184.346L73.1884 147.969C71.8735 148.494 70.1642 148.494 68.9808 147.837C67.6659 147.049 67.6659 145.867 68.9808 145.211C70.2957 144.423 72.3995 144.423 73.5829 145.211C74.7663 145.867 74.8978 146.918 73.9774 147.706L137.092 184.084L148.663 177.386L73.0569 133.785H52.5447C52.4132 134.179 52.1503 134.442 51.6243 134.705C50.3094 135.493 48.2056 135.493 47.0223 134.705C45.7074 133.917 45.7074 132.735 47.0223 132.078C48.3372 131.29 50.441 131.29 51.6243 132.078C52.1503 132.341 52.4132 132.735 52.5447 132.997H73.3199H73.4514L149.32 176.992L153.922 174.365L154.054 174.497L157.473 176.467L175.618 166.092V151.514L160.628 142.847H137.223L111.32 128.007C110.005 128.532 108.296 128.532 107.112 127.876C105.798 127.088 105.798 125.906 107.112 125.249C108.427 124.461 110.531 124.461 111.715 125.249C112.898 125.906 113.03 126.956 112.109 127.744L137.486 142.059H159.576L115.659 116.713C114.344 117.238 112.504 117.238 111.32 116.581C110.005 115.793 110.005 114.611 111.32 113.955C112.635 113.167 114.739 113.167 115.922 113.955C117.106 114.611 117.237 115.662 116.317 116.319L171.147 147.969V141.008L138.538 122.228V108.964L111.978 93.5991C110.663 94.1244 108.953 94.1244 107.77 93.4678C106.455 92.6798 106.455 91.4979 107.77 90.8413C109.085 90.0533 111.189 90.0533 112.372 90.8413C113.555 91.4979 113.687 92.5485 112.767 93.3365L139.327 108.702V121.966L171.936 140.746V148.625L176.538 151.252V166.617L158.393 176.992L170.227 183.821L207.438 162.283V137.856L182.192 123.279C180.878 123.804 179.037 123.804 177.853 123.148C176.538 122.36 176.538 121.178 177.853 120.521C179.168 119.733 181.272 119.733 182.455 120.521C183.639 121.178 183.77 122.228 182.85 122.885L207.438 137.068V117.369L187.978 106.207V69.0409C187.32 69.0409 186.532 68.7783 186.006 68.5156C184.691 67.7276 184.691 66.5457 186.006 65.8891C187.32 65.1011 189.424 65.1011 190.608 65.8891C191.923 66.677 191.923 67.859 190.608 68.5156C190.082 68.7783 189.424 69.0409 188.635 69.0409V105.681L207.307 116.45V51.0491H208.096V162.809L170.884 184.346L184.296 192.095L232.947 163.991V97.145L256.352 83.6182V58.4034L276.996 46.4526C276.075 45.6647 276.207 44.614 277.39 43.9574C278.705 43.1694 280.809 43.1694 281.992 43.9574C283.307 44.7454 283.307 45.9273 281.992 46.5839C280.809 47.2406 278.968 47.3719 277.785 46.7153L257.141 58.6661V83.8809L233.736 97.4076V164.253L185.085 192.357L194.947 198.004L260.691 160.051V103.055L260.823 102.923L318.941 69.3036C318.02 68.5156 318.152 67.465 319.335 66.8084C320.65 66.0204 322.754 66.0204 323.937 66.8084C325.252 67.5963 325.252 68.7783 323.937 69.4349C322.754 70.0915 320.913 70.2229 319.729 69.5662L261.349 103.186V160.182L261.217 160.313L195.736 198.136L211.777 207.329L321.044 144.291V115.925L321.176 115.793L412.692 62.9999C411.771 62.2119 411.903 61.1613 413.086 60.5046C414.401 59.7167 416.505 59.7167 417.688 60.5046C419.003 61.2926 419.003 62.4745 417.688 63.1312C416.505 63.7878 414.664 63.9191 413.481 63.2625L321.833 116.187V144.554L321.702 144.685L260.428 180.012H309.079L365.356 147.575C364.436 146.787 364.567 145.736 365.75 145.079C367.065 144.291 369.169 144.291 370.353 145.079C371.667 145.867 371.667 147.049 370.353 147.706C369.169 148.363 367.328 148.494 366.145 147.837L309.342 180.669H259.245L212.698 207.46L231.369 218.229L271.342 195.115H335.64L408.747 152.959H449.246L465.813 143.372C464.893 142.584 465.024 141.534 466.208 140.877C467.523 140.089 469.626 140.089 470.81 140.877C472.125 141.665 472.125 142.847 470.81 143.504C469.626 144.16 467.786 144.291 466.602 143.635L449.509 153.484H409.01L353.785 185.266H401.515L424.131 172.79C423.211 172.002 423.342 170.951 424.526 170.294C425.841 169.506 427.945 169.506 429.128 170.294C430.443 171.082 430.443 172.264 429.128 172.921C427.945 173.577 426.104 173.709 424.92 173.052L401.384 186.579H352.207L335.64 196.166H271.342L260.165 202.601H287.383H287.515L301.19 210.48H358.256L374.297 201.156H406.643C406.775 200.762 407.038 200.5 407.564 200.237C408.879 199.449 410.982 199.449 412.166 200.237C413.481 201.025 413.481 202.207 412.166 202.863C410.851 203.651 408.747 203.651 407.564 202.863C407.038 202.601 406.775 202.207 406.643 201.944H374.56L358.519 211.268H302.504L317.889 220.199C319.204 219.673 320.913 219.673 322.096 220.33C323.411 221.118 323.411 222.3 322.096 222.957C320.781 223.744 318.678 223.744 317.494 222.957C316.311 222.3 316.179 221.249 317.1 220.461L287.12 203.126H258.719L231.764 218.754L241.757 224.532L241.231 224.795L235.314 228.21H253.985L278.442 214.158C277.522 213.37 277.653 212.319 278.837 211.662C280.151 210.874 282.255 210.874 283.439 211.662C284.754 212.45 284.754 213.632 283.439 214.289C282.255 214.946 280.414 215.077 279.231 214.42L254.248 228.866H234.13L220.456 236.746L228.871 241.605H243.729H243.861L256.878 249.091H266.608L288.698 236.352C287.646 235.564 287.778 234.513 288.961 233.857C290.276 233.069 292.38 233.069 293.563 233.857C294.878 234.645 294.878 235.827 293.563 236.483C292.38 237.14 290.67 237.271 289.356 236.746L266.74 249.747H256.615H256.483L243.466 242.262H230.054L256.878 257.758H271.342L301.584 240.292H392.706L449.246 207.723C448.325 206.935 448.325 205.884 449.509 205.227C450.824 204.439 452.927 204.439 454.111 205.227C455.426 206.015 455.426 207.197 454.111 207.854C452.927 208.511 451.218 208.642 449.903 208.117L392.837 241.08H301.847L271.605 258.546H256.746H256.615L219.667 237.271L209.937 242.918L251.75 266.951H281.203L305.529 252.899H367.986C368.117 252.505 368.38 252.243 368.906 251.98C370.221 251.192 372.325 251.192 373.508 251.98C374.823 252.768 374.823 253.95 373.508 254.606C372.193 255.394 370.09 255.394 368.906 254.606C368.38 254.344 368.117 253.95 367.986 253.687H305.792L282.781 266.951H370.747H370.878L454.637 315.28C455.952 314.754 457.661 314.754 458.844 315.411C460.159 316.199 460.159 317.381 458.844 318.038C457.529 318.826 455.426 318.826 454.242 318.038C453.059 317.381 452.927 316.33 453.848 315.542L370.484 267.477H251.618H251.487L209.279 243.181L198.234 249.485L256.483 283.104H359.045H359.176L448.983 334.847H553.648L614.79 300.308C613.869 299.52 614.001 298.47 615.184 297.813C616.499 297.025 618.603 297.025 619.786 297.813C621.101 298.601 621.101 299.783 619.786 300.44C618.603 301.096 616.762 301.228 615.579 300.571L554.042 336.029H448.983H448.851L359.045 284.286H284.359L393.889 347.586V364.265L437.675 389.48C438.99 388.954 440.699 388.954 441.882 389.611C443.197 390.399 443.197 391.581 441.882 392.237C440.567 393.025 438.464 393.025 437.28 392.237C436.097 391.581 435.965 390.53 436.886 389.742L393.1 364.527V347.849L282.65 284.155H257.009L312.235 316.068V323.028L338.664 338.262C339.979 337.737 341.688 337.737 342.871 338.393C344.186 339.181 344.186 340.363 342.871 341.02C341.557 341.808 339.453 341.808 338.269 341.02C337.086 340.363 336.954 339.313 337.875 338.525L323.543 330.251V349.425L406.643 397.359C407.958 396.834 409.668 396.834 410.851 397.491C412.166 398.279 412.166 399.46 410.851 400.117C409.536 400.905 407.432 400.905 406.249 400.117C405.066 399.46 404.934 398.41 405.854 397.622L322.754 349.687V329.594L311.446 323.028V316.593L255.694 284.418L255.826 284.155L197.314 250.404L186.663 256.576L246.753 291.247V348.243L357.335 412.068H355.889L264.373 359.274V410.886L266.477 412.068H265.03L263.715 411.28V358.88L246.227 348.768V291.772L186.137 257.102L176.801 262.486L223.217 289.277V320.533L223.085 320.664L170.358 351.001V361.638L200.206 378.842C201.521 378.317 203.231 378.317 204.414 378.973C205.729 379.761 205.729 380.943 204.414 381.6C203.099 382.388 200.995 382.388 199.812 381.6C198.628 380.943 198.497 379.893 199.417 379.105L169.57 361.901V350.475L169.701 350.344L222.428 320.007V289.539L187.452 269.315V282.316L203.494 291.641C204.809 291.115 206.518 291.115 207.701 291.772C209.016 292.56 209.016 293.742 207.701 294.399C206.386 295.187 204.282 295.187 203.099 294.399C201.916 293.742 201.784 292.691 202.705 291.903L186.663 282.579V268.658L176.012 262.486L163.521 269.709V292.429L187.189 306.087V321.715L187.058 321.846L137.355 350.475C138.275 351.263 138.144 352.314 136.96 352.971C135.645 353.759 133.542 353.759 132.358 352.971C131.043 352.183 131.043 351.001 132.358 350.344C133.542 349.687 135.383 349.556 136.566 350.213L186.532 321.452V306.612L163.653 293.348V308.976L133.016 326.574C133.936 327.362 133.805 328.412 132.621 329.069C131.306 329.857 129.203 329.857 128.019 329.069C126.704 328.281 126.704 327.099 128.019 326.442C129.203 325.786 131.043 325.655 132.227 326.311L162.864 308.713V270.366L154.054 275.487L153.922 275.356L139.59 267.083L126.441 274.7V293.085L91.5968 313.178V330.514C92.2543 330.514 93.0432 330.776 93.5692 331.039C94.884 331.827 94.884 333.009 93.5692 333.665C92.2543 334.453 90.1505 334.453 88.967 333.665C87.6522 332.878 87.6522 331.696 88.967 331.039C89.493 330.776 90.1505 330.514 90.9394 330.514V312.784L125.652 292.823V275.225L69.1123 307.794V342.333L99.7491 360.062H127.888H128.019L176.275 387.904C177.59 387.378 179.3 387.378 180.483 388.035C181.798 388.823 181.798 390.005 180.483 390.662C179.168 391.449 177.064 391.449 175.881 390.662C174.698 390.005 174.566 388.954 175.486 388.166L127.625 360.588H100.933L189.556 411.674C190.871 411.149 192.58 411.149 193.763 411.805H188.372L68.1919 342.464V307.137L68.3234 307.006L138.538 266.557L124.469 258.415L4.68292 327.493V368.73L-36.21 392.369C-35.2896 393.157 -35.4211 394.207 -36.6045 394.864C-37.9194 395.652 -40.0232 395.652 -41.2066 394.864C-42.5215 394.076 -42.5215 392.894 -41.2066 392.237C-40.0232 391.581 -38.1824 391.449 -36.999 392.106L3.89404 368.467V327.23L4.02551 327.099L123.68 258.152L110.268 250.404L-8.20294 318.694H-78.9437L-82.231 320.664V319.876L-79.0753 318.038H-8.33447L91.7283 260.385H71.6105L37.4235 280.084H11.1259H10.9944L-25.428 259.072C-26.7429 259.597 -28.4521 259.597 -29.6356 258.94C-30.9504 258.152 -30.9504 256.97 -29.6356 256.314C-28.3207 255.526 -26.2169 255.526 -25.0334 256.314C-23.85 256.97 -23.7186 258.021 -24.639 258.809L11.3888 279.559H37.2921L71.4791 259.859H93.0433L109.742 250.273L73.8459 229.523L63.5898 235.433V250.929L37.6865 265.901C38.6069 266.689 38.4755 267.739 37.2921 268.396C35.9772 269.184 33.8734 269.184 32.69 268.396C31.3751 267.608 31.3751 266.426 32.69 265.769C33.8734 265.113 35.7142 264.981 36.8976 265.638L62.8009 250.667V236.089L35.1883 251.98H22.0394H21.9079L6.2608 242.918C4.94592 243.444 3.23657 243.444 2.05316 242.787C0.738281 241.999 0.738281 240.817 2.05316 240.16C3.36804 239.372 5.47186 239.372 6.65527 240.16C7.83868 240.817 7.97015 241.868 7.04968 242.656L22.1709 251.455H34.9253L73.0569 228.866L66.0881 224.926L66.614 224.664L88.1782 212.319L77.7905 206.409H62.1434L50.9669 212.844C51.8873 213.632 51.7558 214.552 50.5724 215.208C49.2575 215.996 47.1537 215.996 45.9703 215.208C44.6554 214.42 44.6554 213.238 45.9703 212.582C47.1537 211.925 48.9946 211.794 50.3094 212.45L62.0119 205.753H76.6072L50.3094 190.519L-11.7531 226.24H-56.3278H-56.4592L-81.5735 211.794C-81.705 211.925 -81.968 211.925 -82.0995 211.925V208.511C-81.705 208.642 -81.442 208.773 -81.1791 208.905C-79.9957 209.561 -79.8642 210.612 -80.7846 211.4L-56.0648 225.583H-11.8846L35.9772 198.004H15.465L-4.52124 209.561C-3.60083 210.349 -3.7323 211.4 -4.91571 212.056C-6.23059 212.844 -8.33441 212.844 -9.51782 212.056C-10.8327 211.268 -10.8327 210.086 -9.51782 209.43C-8.33441 208.773 -6.49353 208.642 -5.31018 209.298L15.202 197.479H37.1606L49.5205 190.387L18.0948 172.264H-81.968V171.476H16.9114L4.41992 164.253H-70.0026H-70.1341L-81.968 157.424V156.636L-69.8711 163.597H4.55145H4.68292L89.0986 212.319L98.4343 206.935L9.6795 155.717H-55.1443H-55.2758L-81.968 140.352V139.564L-55.0129 155.192H9.81104H9.9425L99.0917 206.672L109.742 200.5L-63.2966 100.691V64.4445L-82.0995 53.6756V52.231ZM67.5344 224.926L153.922 274.7L240.31 224.926L153.922 175.153L67.5344 224.926Z" fill="#42E8E0"/>
</svg>
