<svg width="117" height="22" viewBox="0 0 117 22" fill="none" xmlns="http://www.w3.org/2000/svg">
<g clip-path="url(#clip0_21_1578)">
<path d="M53.2107 6.07276C53.3531 6.02875 53.5035 6.01479 53.6519 6.03182C53.8002 6.04885 53.9431 6.09647 54.0712 6.17152C54.1992 6.24657 54.3094 6.34733 54.3944 6.46711C54.4794 6.58689 54.5373 6.72294 54.5643 6.86623C54.5975 7.00399 54.6013 7.14696 54.5754 7.28621C54.5495 7.42546 54.4945 7.55802 54.4138 7.67564C54.3331 7.79326 54.2284 7.89342 54.1063 7.96988C53.9842 8.04633 53.8472 8.09746 53.7039 8.12006C53.5607 8.14266 53.4142 8.13627 53.2736 8.10126C53.133 8.06626 53.0013 8.0034 52.8866 7.9166C52.772 7.8298 52.677 7.72091 52.6074 7.59672C52.5378 7.47254 52.4951 7.33571 52.4821 7.19476C52.4551 6.95488 52.5125 6.71316 52.6449 6.50929C52.7773 6.30541 52.9768 6.15148 53.2107 6.07276Z" fill="#3E3C3B"/>
<path d="M49.0276 6.16223C49.648 6.16223 50.2683 6.16223 50.8894 6.16223C50.8894 9.40014 50.8894 12.6381 50.8894 15.876C50.2691 15.876 49.6472 15.876 49.0269 15.876C49.0274 12.6395 49.0276 9.40161 49.0276 6.16223Z" fill="#3E3C3B"/>
<path d="M64.1193 6.16223C64.7397 6.16223 65.36 6.16223 65.9812 6.16223C65.9812 7.06863 65.9812 7.97576 65.9812 8.88216C66.6496 8.88216 67.3189 8.88216 67.9874 8.88216C67.9724 9.3735 68.019 9.8795 67.9663 10.3613C67.3039 10.373 66.6414 10.3613 65.9797 10.3657C65.9857 11.3344 65.9669 12.3039 65.9895 13.2726C66.0158 13.6576 66.0706 14.1526 66.4805 14.3367C66.9649 14.462 67.4728 14.4751 67.9634 14.3748C67.9581 14.8273 67.9754 15.2805 67.9536 15.733C67.3672 15.9192 66.7514 16.0014 66.1353 15.9757C65.8452 15.9694 65.5596 15.9042 65.2968 15.7843C65.034 15.6643 64.7997 15.4923 64.6089 15.279C64.2726 14.85 64.0991 14.3206 64.1178 13.7808C64.1178 12.642 64.1178 11.5038 64.1178 10.365C63.7787 10.365 63.4411 10.365 63.1019 10.365V8.88363C63.4403 8.88363 63.7787 8.88363 64.1178 8.88363C64.1193 7.97576 64.1178 7.06863 64.1193 6.16223Z" fill="#3E3C3B"/>
<path d="M31.5822 6.79729C33.0169 6.79729 34.4516 6.79729 35.8864 6.79729C36.3871 6.77892 36.8864 6.86226 37.3524 7.04203C37.8184 7.2218 38.241 7.49406 38.5934 7.84156C38.9143 8.25025 39.1433 8.72024 39.2656 9.22096C39.3879 9.72167 39.4007 10.2419 39.3033 10.7478C39.2618 11.143 39.1395 11.5261 38.9438 11.8745C38.748 12.2228 38.4826 12.5294 38.1633 12.7762C37.9469 12.9337 37.7131 13.067 37.4662 13.1736C38.1871 14.0751 38.909 14.9762 39.6319 15.8767C38.8746 15.8767 38.1182 15.8767 37.361 15.8767C36.7594 15.0979 36.1646 14.3147 35.5623 13.5366C34.8697 13.5528 34.1764 13.5366 33.4839 13.544C33.4839 14.3213 33.4839 15.0986 33.4839 15.876H31.5814C31.5814 12.8492 31.5814 9.82254 31.5814 6.79583M33.4846 8.39816C33.4846 9.6062 33.4846 10.814 33.4846 12.0216C34.0441 12.0216 34.6035 12.0216 35.163 12.0216C35.7077 12.0422 36.2455 11.896 36.7007 11.6036C36.8815 11.4703 37.0319 11.3018 37.1422 11.1087C37.2525 10.9157 37.3204 10.7023 37.3414 10.4823C37.3864 10.2062 37.3698 9.92379 37.2927 9.65448C37.2156 9.38517 37.0799 9.13525 36.8947 8.92176C36.7082 8.74971 36.4887 8.61517 36.2489 8.52584C36.009 8.4365 35.7535 8.39411 35.4969 8.40109C34.8269 8.39596 34.1591 8.40036 33.4824 8.39962L33.4846 8.39816Z" fill="#3E3C3B"/>
<path d="M95.8346 6.8061C96.8873 6.8061 97.94 6.8061 98.9928 6.8061C99.5371 6.78384 100.082 6.80838 100.622 6.87943C101.403 6.97902 102.117 7.36022 102.624 7.9479C103.188 8.73245 103.419 9.69977 103.267 10.6466C103.211 11.4354 102.846 12.173 102.247 12.7065C101.501 13.265 100.585 13.5656 99.6448 13.5608C99.0041 13.5726 98.3627 13.5608 97.722 13.566C97.722 14.3374 97.722 15.1089 97.722 15.8804C97.0924 15.8804 96.463 15.8804 95.8339 15.8804C95.8339 12.8571 95.8339 9.83354 95.8339 6.80976M97.722 8.39963C97.722 9.61012 97.722 10.8206 97.722 12.0311C98.535 12.0909 99.3525 12.0376 100.15 11.8727C100.42 11.7903 100.664 11.641 100.857 11.4393C101.051 11.2377 101.187 10.9905 101.253 10.7221C101.336 10.4133 101.343 10.0898 101.273 9.77801C101.203 9.46624 101.058 9.17507 100.85 8.92836C100.662 8.75376 100.44 8.61736 100.197 8.5271C99.9548 8.43683 99.6961 8.39451 99.4365 8.40257C98.8658 8.3945 98.2935 8.4011 97.722 8.39963Z" fill="#3E3C3B"/>
<path d="M41.0749 10.2168C41.3488 9.83925 41.6977 9.51929 42.1011 9.27601C42.5044 9.03273 42.9538 8.8711 43.4225 8.80075C44.2931 8.64981 45.1905 8.80164 45.9581 9.22975C46.5739 9.60693 47.0416 10.1752 47.2861 10.8431C47.5226 11.497 47.6154 12.1921 47.5583 12.8832C45.7859 12.8869 44.0136 12.8832 42.2419 12.8832C42.3485 13.3857 42.6538 13.827 43.0916 14.1115C43.5802 14.3949 44.1574 14.4963 44.7166 14.3973C45.2759 14.2982 45.7796 14.0053 46.1348 13.5725C46.5379 13.8827 46.9281 14.2106 47.3244 14.5259C47.0089 14.9163 46.6168 15.2414 46.171 15.4822C45.7251 15.7231 45.2346 15.8749 44.7279 15.9287C43.8394 16.0671 42.9291 15.9068 42.1464 15.4741C41.3729 15.0226 40.8043 14.3011 40.556 13.4559C40.3906 12.9109 40.3513 12.3369 40.4409 11.7752C40.5304 11.2135 40.7468 10.6783 41.0741 10.208M42.9074 10.6025C42.5714 10.8995 42.342 11.2938 42.2532 11.7275C43.4388 11.7275 44.6241 11.7275 45.8092 11.7275C45.8008 11.4649 45.7282 11.2081 45.5974 10.9785C45.4666 10.7489 45.2814 10.5531 45.0573 10.4075C44.7192 10.2275 44.3334 10.151 43.9502 10.1877C43.5669 10.2245 43.2038 10.3729 42.9082 10.6135L42.9074 10.6025Z" fill="#3E3C3B"/>
<path d="M56.3584 10.3452C56.8498 9.68875 57.5405 9.1998 58.3328 8.94761C59.125 8.69543 59.9786 8.6928 60.7724 8.9401C61.4348 9.17316 62.012 9.59149 62.432 10.1428C62.0342 10.5014 61.6334 10.8563 61.2378 11.2171C61.0403 10.9336 60.7691 10.7064 60.4521 10.5585C60.1351 10.4106 59.7835 10.3473 59.4332 10.3752C58.9797 10.4122 58.5507 10.5914 58.2104 10.8861C57.8702 11.1808 57.637 11.575 57.5457 12.0098C57.4729 12.4052 57.5255 12.8129 57.6965 13.1784C57.8676 13.5439 58.1489 13.8497 58.503 14.0551C58.9415 14.3342 59.4755 14.4323 59.988 14.328C60.5005 14.2236 60.9497 13.9253 61.2371 13.4985C61.6259 13.8586 62.0191 14.2142 62.4071 14.5758C61.8655 15.2988 61.0563 15.7875 60.1513 15.9383C59.6023 16.0142 59.0433 15.9789 58.509 15.8347C57.9746 15.6905 57.4765 15.4404 57.0457 15.1001C56.416 14.6055 55.972 13.9213 55.7832 13.1546C55.6692 12.6733 55.6616 12.1739 55.7608 11.6895C55.8599 11.2051 56.0637 10.7469 56.3584 10.3452Z" fill="#3E3C3B"/>
<path d="M79.6028 9.3082C80.2526 8.87935 81.0357 8.68533 81.8167 8.75966C82.1991 8.75409 82.5782 8.82873 82.9285 8.97853C83.2788 9.12834 83.592 9.34981 83.8469 9.62793C84.4601 9.06745 85.2676 8.75319 86.108 8.74793C86.8228 8.71092 87.532 8.89021 88.1383 9.26127C88.6274 9.63253 88.9559 10.1693 89.0587 10.7653C89.1727 11.4684 89.212 12.1811 89.176 12.892C89.176 13.8864 89.176 14.8803 89.176 15.8737H87.3299C87.3299 14.5391 87.3299 13.2059 87.3299 11.8719C87.3471 11.6104 87.2916 11.3492 87.1693 11.1159C87.047 10.8826 86.8625 10.6857 86.6352 10.5461C86.2627 10.378 85.8472 10.3225 85.4421 10.3867C85.037 10.4509 84.6608 10.6318 84.3619 10.9061C84.4388 11.5861 84.464 12.2707 84.4372 12.9543V15.8745H82.5911C82.5911 14.5633 82.5911 13.2513 82.5911 11.9401C82.6189 11.4927 82.4684 11.052 82.1708 10.7103C81.9967 10.568 81.7928 10.4644 81.5735 10.4066C81.3542 10.3489 81.1247 10.3384 80.9008 10.3759C80.4205 10.4128 79.9659 10.6027 79.6073 10.9164C79.6073 12.5693 79.6073 14.2223 79.6073 15.8752C78.987 15.8715 78.3674 15.8825 77.7478 15.8686C77.7598 13.5395 77.7478 11.2097 77.7538 8.87993H79.6073C79.6028 9.02513 79.6028 9.16666 79.6028 9.3082Z" fill="#3E3C3B"/>
<path d="M105.853 9.85894C106.155 9.45341 106.571 9.14136 107.05 8.96007C107.529 8.77879 108.052 8.73595 108.556 8.83667C108.556 9.48689 108.556 10.1374 108.556 10.7881C107.93 10.6092 107.259 10.659 106.669 10.9281C106.411 11.0938 106.202 11.3211 106.06 11.5882C105.918 11.8554 105.849 12.1535 105.859 12.4542C105.852 13.5953 105.859 14.7356 105.859 15.8767C105.243 15.8767 104.627 15.8767 104.012 15.8767V8.899C104.628 8.899 105.245 8.8946 105.861 8.899C105.853 9.22094 105.856 9.53994 105.853 9.85894Z" fill="#3E3C3B"/>
<path d="M112.487 8.811C113.061 8.72767 113.647 8.76456 114.205 8.9192C114.763 9.07385 115.281 9.34271 115.725 9.70787C116.149 10.0559 116.484 10.4952 116.704 10.9912C116.924 11.4872 117.023 12.0262 116.993 12.5659C116.963 13.1055 116.805 13.6309 116.531 14.1008C116.257 14.5706 115.875 14.9719 115.415 15.2731C114.818 15.6698 114.126 15.9076 113.406 15.963C112.686 16.0185 111.964 15.8896 111.311 15.5892C110.45 15.1961 109.773 14.5009 109.414 13.6422C109.223 13.1668 109.142 12.6561 109.177 12.1466C109.212 11.6371 109.362 11.1414 109.616 10.6949C109.914 10.187 110.328 9.7529 110.826 9.42631C111.324 9.09971 111.892 8.88941 112.487 8.81174M112.814 10.3965C112.417 10.4463 112.042 10.6038 111.732 10.8511C111.377 11.1306 111.13 11.5195 111.032 11.9539C110.935 12.3884 110.991 12.8423 111.193 13.2411C111.433 13.6907 111.832 14.0399 112.317 14.2233C112.801 14.4067 113.337 14.4118 113.825 14.2377C114.294 14.0758 114.687 13.7522 114.928 13.3278C115.17 12.9033 115.244 12.4074 115.136 11.9335C115.011 11.4443 114.705 11.0172 114.277 10.7336C113.85 10.45 113.33 10.3297 112.818 10.3957L112.814 10.3965Z" fill="#3E3C3B"/>
<path d="M52.6279 15.8774C52.6279 13.5459 52.6279 11.2141 52.6279 8.88214C53.2393 8.88214 53.8506 8.88214 54.462 8.88214C54.4695 11.2141 54.462 13.5454 54.462 15.8781C53.8524 15.8786 53.241 15.8784 52.6279 15.8774Z" fill="#3E3C3B"/>
<path d="M69.2312 13.0108C69.2286 11.6346 69.2286 10.2584 69.2312 8.88214H71.0764C71.0764 10.219 71.0764 11.5551 71.0764 12.892C71.0581 13.1656 71.123 13.4384 71.2629 13.6762C71.4028 13.914 71.6116 14.1062 71.863 14.2289C72.2623 14.3633 72.6903 14.3961 73.1062 14.3241C73.5222 14.2521 73.9124 14.0777 74.2399 13.8175C74.2399 12.1726 74.2399 10.527 74.2399 8.88214C74.8545 8.88214 75.4699 8.88214 76.086 8.88214V15.8774H74.2399C74.2399 15.7263 74.2399 15.5753 74.2399 15.4242C73.5699 15.8431 72.7773 16.0358 71.9841 15.9727C71.2272 15.9884 70.4947 15.711 69.947 15.2013C69.4509 14.5764 69.1973 13.8005 69.2312 13.0108Z" fill="#3E3C3B"/>
<path d="M9.28897 0.0550076C10.0732 -0.0271182 10.8647 -0.0165304 11.6464 0.0865409C11.9317 0.11974 12.2149 0.168708 12.4946 0.233208C12.3993 0.236241 12.3039 0.234527 12.2088 0.228074C10.9233 0.189932 9.64933 0.475588 8.50995 1.05747C8.21299 1.13334 7.92011 1.22365 7.63241 1.32807C6.10064 1.90182 4.69103 2.74717 3.47484 3.82141C3.22971 4.03554 2.9966 4.26141 2.76575 4.49021C3.07107 3.82954 3.47027 3.2141 3.95158 2.66201C4.49317 2.06162 5.13172 1.55159 5.842 1.15207C6.90244 0.561385 8.07539 0.188072 9.28897 0.0550076Z" fill="#D9DADC" fill-opacity="0.5"/>
<path d="M0.659546 13.7698C0.884228 14.2383 1.15521 14.6843 1.46865 15.1015C1.59197 15.3098 1.6995 15.5283 1.84012 15.727C2.54612 16.7527 3.45682 17.6292 4.51784 18.304C4.64792 18.4404 4.79456 18.5592 4.93142 18.6875C5.47508 19.1935 6.04356 19.6753 6.63008 20.1329C6.24048 20.0482 5.85831 19.9337 5.48711 19.7905C4.58452 19.4517 3.75864 18.944 3.05603 18.2959C2.49812 17.7871 2.01934 17.2016 1.63483 16.5579C1.55964 16.4252 1.48444 16.2925 1.40248 16.1649C1.27465 15.8715 1.12802 15.5819 1.0265 15.2775C0.845496 14.7903 0.722373 14.2844 0.659546 13.7698Z" fill="#D9DADC" fill-opacity="0.5"/>
<path d="M8.50922 1.05307C9.65007 0.474215 10.9242 0.190655 12.2096 0.229535C12.3047 0.235967 12.4001 0.23768 12.4953 0.234669C13.4168 0.273645 14.3259 0.456361 15.1881 0.775869C16.1247 1.12472 17.0022 1.60874 17.7914 2.21174C18.4583 2.71872 19.0717 3.28939 19.6224 3.91527C19.9627 4.2956 20.2777 4.69682 20.5653 5.11647C20.8082 5.4502 21.0285 5.79903 21.2248 6.16074C22.0165 7.50986 22.4704 9.02217 22.5498 10.5747C22.6017 11.9655 22.3836 13.3534 21.9068 14.6652C21.5485 15.6877 21.0442 16.656 20.4089 17.5413C19.8884 18.2707 19.2517 18.9144 18.523 19.448C17.8483 19.9271 17.0984 20.2964 16.3025 20.5414C16.0446 20.6052 15.7919 20.6881 15.5317 20.7438C14.7468 20.9209 13.944 21.0119 13.1383 21.0151C12.924 21.0327 12.7104 21.0078 12.4968 21.0093C10.9065 20.9291 9.34115 20.59 7.86554 20.0061C6.69163 19.5593 5.56885 18.994 4.51557 18.3194C3.45518 17.6481 2.54446 16.7751 1.83785 15.7527C1.69724 15.5547 1.58971 15.3377 1.46639 15.1301C1.46639 15.1213 1.46639 15.1037 1.46639 15.0949C1.44778 15.0733 1.4314 15.05 1.41751 15.0253C0.955996 14.0869 0.69431 13.0671 0.648259 12.0274C0.597584 11.0476 0.758995 10.0684 1.12199 9.15347C1.44799 8.37583 1.874 7.64175 2.38979 6.96887C2.85901 6.34187 3.37185 5.74567 3.90123 5.1656C4.59528 4.4044 5.28633 3.6388 6.03001 2.9216C6.76219 2.18927 7.59533 1.55989 8.50546 1.0516M5.16527 6.24947C5.16527 8.2368 5.16527 10.2239 5.16527 12.2107C5.17655 12.5429 5.17053 12.8759 5.16978 13.2081C7.24894 14.3763 9.34013 15.5254 11.4178 16.6951C13.5057 15.534 15.5929 14.3716 17.6793 13.2081C17.6793 12.7598 17.6793 12.3114 17.6793 11.8631C17.6793 11.341 17.6688 10.8189 17.6733 10.296C17.6733 8.9452 17.6733 7.5944 17.6733 6.2436C15.5964 5.07662 13.5127 3.91527 11.4223 2.75954C9.34013 3.92847 7.24744 5.0776 5.16903 6.25093L5.16527 6.24947Z" fill="#444141" fill-opacity="0.5"/>
<path d="M16.2498 6.38882C16.3288 6.37261 16.4105 6.37327 16.4891 6.39078C16.5678 6.4083 16.6417 6.44224 16.7057 6.49026C16.7696 6.53828 16.8222 6.59923 16.8596 6.66894C16.8971 6.73865 16.9187 6.81547 16.9228 6.89408C16.9228 8.23803 16.9228 9.58248 16.9228 10.9274C16.9431 11.0745 16.9196 11.2242 16.8551 11.3586C16.7803 11.4787 16.6621 11.5671 16.5238 11.6065C16.3854 11.6459 16.237 11.6333 16.1077 11.5713C16.0411 11.5389 15.9819 11.4938 15.9335 11.4386C15.8852 11.3834 15.8488 11.3193 15.8265 11.2501C15.807 11.159 15.8005 11.0657 15.8069 10.9729C15.8069 10.2322 15.8069 9.49155 15.8069 8.75089C15.818 8.60623 15.7905 8.46123 15.7272 8.32995C15.7031 8.28529 15.6686 8.24679 15.6264 8.21761C15.5842 8.18842 15.5355 8.16938 15.4843 8.16201C15.3665 8.15503 15.249 8.18044 15.1452 8.23535C14.309 8.60715 13.4751 8.9848 12.6389 9.35807C12.4878 9.42615 12.3562 9.52936 12.2555 9.65863C12.1548 9.78789 12.0881 9.93926 12.0614 10.0995C12.0489 10.1987 12.0448 10.2988 12.0494 10.3987C12.0494 11.5407 12.0494 12.6828 12.0494 13.8248C12.0463 13.932 12.0129 14.0364 11.9528 14.1262C11.8927 14.216 11.8082 14.2879 11.7088 14.3337C11.5804 14.3944 11.4354 14.4129 11.2953 14.3865C11.1553 14.36 11.0278 14.2901 10.932 14.1871C10.8444 14.094 10.7933 13.9737 10.7876 13.8475C10.7778 13.3679 10.7959 12.8891 10.7914 12.4095C10.7914 11.6996 10.7914 10.9907 10.7914 10.2828C10.7913 10.1371 10.7598 9.993 10.6991 9.85986C10.6383 9.72673 10.5496 9.60749 10.4387 9.50987C10.3302 9.42394 10.2087 9.35493 10.0785 9.30527C8.99344 8.82054 7.91063 8.33069 6.82555 7.84669C6.6857 7.79402 6.56772 7.69753 6.49017 7.5724C6.44476 7.48308 6.42113 7.38473 6.42114 7.28503C6.42115 7.18533 6.44479 7.08699 6.49022 6.99767C6.53564 6.90836 6.60164 6.8305 6.68302 6.77016C6.76441 6.70983 6.85899 6.66866 6.95939 6.64987C7.0783 6.63379 7.19943 6.65323 7.30679 6.70562C8.47684 7.23215 9.64763 7.7577 10.8192 8.28228C11.153 8.42853 11.5308 8.44813 11.8787 8.33727C11.9815 8.30179 12.0819 8.26017 12.1795 8.21262C13.142 7.77262 14.109 7.34874 15.0708 6.90948C15.4287 6.75034 15.7761 6.56627 16.143 6.42767C16.1775 6.4119 16.2132 6.39891 16.2498 6.38882Z" fill="#444141" fill-opacity="0.5"/>
<path d="M5.16907 6.28024C7.24748 5.10104 9.34017 3.94604 11.4223 2.77417C13.5098 3.93773 15.5949 5.10495 17.6779 6.27584C17.6779 7.63299 17.6779 8.99039 17.6779 10.348C17.6734 10.8731 17.6876 11.3982 17.6839 11.9232C17.6839 12.3735 17.6839 12.824 17.6839 13.2748C15.5975 14.4437 13.5103 15.6117 11.4223 16.7786C9.34393 15.6053 7.25348 14.4488 5.17432 13.274C5.17432 12.9396 5.18034 12.6052 5.16981 12.2716C5.16981 10.2745 5.16981 8.27759 5.16981 6.28097M16.2507 6.4379C16.2135 6.44574 16.177 6.45653 16.1416 6.47017C15.7739 6.60877 15.4273 6.79284 15.0693 6.95197C14.1076 7.39197 13.1406 7.81804 12.1781 8.25511C12.0805 8.30266 11.9801 8.34429 11.8773 8.37977C11.529 8.49131 11.1506 8.47196 10.8163 8.3255C9.64521 7.79995 8.47441 7.27439 7.30387 6.74884C7.1964 6.69674 7.07531 6.67757 6.95647 6.69384C6.85607 6.71262 6.76148 6.75379 6.6801 6.81412C6.59871 6.87445 6.53271 6.95232 6.48729 7.04164C6.44186 7.13095 6.41822 7.2293 6.41821 7.329C6.41821 7.4287 6.44183 7.52705 6.48724 7.61637C6.5648 7.74149 6.68276 7.83796 6.82261 7.89063C7.90844 8.37463 8.99051 8.8645 10.0756 9.34923C10.2058 9.39889 10.3273 9.46791 10.4358 9.55384C10.5467 9.65147 10.6354 9.7707 10.6962 9.90383C10.7569 10.037 10.7883 10.1811 10.7884 10.3268C10.7884 11.0366 10.7884 11.7455 10.7884 12.4534C10.7929 12.933 10.7749 13.4126 10.7847 13.8915C10.7904 14.0177 10.8415 14.1379 10.929 14.231C11.025 14.3339 11.1525 14.4038 11.2925 14.4302C11.4324 14.4567 11.5775 14.4382 11.7058 14.3777C11.8053 14.3318 11.8897 14.26 11.9499 14.1702C12.01 14.0803 12.0434 13.976 12.0465 13.8688C12.0465 12.7267 12.0465 11.5847 12.0465 10.4426C12.0419 10.3427 12.046 10.2427 12.0585 10.1434C12.0852 9.98322 12.1518 9.83183 12.2525 9.70257C12.3532 9.57331 12.4849 9.47012 12.636 9.40204C13.4722 9.0295 14.3061 8.6511 15.1423 8.2793C15.2461 8.22443 15.3635 8.19903 15.4814 8.20597C15.5326 8.21334 15.5813 8.23239 15.6235 8.26158C15.6657 8.29076 15.7002 8.32924 15.7243 8.3739C15.7876 8.50518 15.815 8.65017 15.804 8.79484C15.804 9.5355 15.804 10.2762 15.804 11.0168C15.7975 11.1097 15.8041 11.2029 15.8235 11.294C15.8459 11.3633 15.8823 11.4274 15.9306 11.4826C15.9789 11.5378 16.0382 11.5829 16.1048 11.6152C16.2341 11.6773 16.3825 11.6898 16.5208 11.6505C16.6592 11.6111 16.7774 11.5227 16.8522 11.4026C16.9167 11.2681 16.9402 11.1185 16.9199 10.9714C16.9199 9.62742 16.9199 8.28297 16.9199 6.93804C16.9151 6.86011 16.8931 6.78411 16.8555 6.71517C16.818 6.64624 16.7656 6.58598 16.7021 6.53848C16.6386 6.49099 16.5653 6.45736 16.4873 6.43988C16.4093 6.4224 16.3283 6.42148 16.2499 6.43717L16.2507 6.4379Z" fill="white" fill-opacity="0.5"/>
</g>
<defs>
<clipPath id="clip0_21_1578">
<rect width="117" height="22" fill="white"/>
</clipPath>
</defs>
</svg>
