<svg width="374" height="299" viewBox="0 0 374 299" fill="none" xmlns="http://www.w3.org/2000/svg">
<mask id="mask0_140_2348" style="mask-type:alpha" maskUnits="userSpaceOnUse" x="-7" y="-6" width="486" height="307">
<rect x="-6.66943" y="-5.41846" width="485.22" height="305.555" fill="url(#paint0_linear_140_2348)"/>
</mask>
<g mask="url(#mask0_140_2348)">
<path opacity="0.4" d="M13.2846 12.2521C14.2392 11.6953 15.9097 11.6953 16.8643 12.2521C17.5803 12.6499 17.8189 13.2863 17.4212 13.8432L72.7085 45.7445V86.0786L86.1524 93.8749V137.709L132.291 164.36L139.451 160.223L103.892 139.698V115.673L104.051 115.593L144.542 92.2043V84.0897L121.711 70.8041C120.757 71.2019 119.325 71.2019 118.45 70.645C117.495 70.0882 117.495 69.1335 118.45 68.5766C119.404 68.0197 121.075 68.0197 122.029 68.5766C122.905 69.0539 122.984 69.8495 122.268 70.4859L145.179 83.692V92.5225L145.019 92.602L104.528 115.991V139.38L131.416 154.893V144.869L119.086 137.789C118.132 138.187 116.7 138.187 115.825 137.63C114.87 137.073 114.87 136.118 115.825 135.561C116.779 135.005 118.45 135.005 119.404 135.561C120.279 136.039 120.359 136.834 119.643 137.471L131.973 144.551V155.211L140.087 159.905L149.713 154.336V136.914L131.575 126.413V114.32L131.735 114.241L169.919 92.2043C169.203 91.6474 169.282 90.8518 170.157 90.295C171.112 89.7381 172.782 89.7381 173.737 90.295C174.692 90.8518 174.692 91.8065 173.737 92.3634C172.862 92.8407 171.43 92.9203 170.475 92.5225L132.132 114.639V126.015L149.713 136.198V124.185L149.872 124.106L173.26 110.581C172.544 110.024 172.623 109.229 173.498 108.672C174.453 108.115 176.123 108.115 177.078 108.672C178.033 109.229 178.033 110.184 177.078 110.74C176.203 111.218 174.771 111.297 173.817 110.9L150.349 124.503V153.938L157.111 150.04L168.248 156.484L178.351 150.677V136.516L178.51 136.437L205.159 121.083V107.717C204.602 107.717 204.046 107.558 203.648 107.32C202.693 106.763 202.693 105.808 203.648 105.251C204.602 104.694 206.273 104.694 207.228 105.251C208.182 105.808 208.182 106.763 207.228 107.32C206.83 107.558 206.273 107.717 205.716 107.717V121.401L205.557 121.48L178.908 136.834V150.359L222.262 125.299V98.7277L198.716 85.1239H177.158H177.078L140.008 63.7238C139.053 64.1216 137.621 64.1216 136.746 63.5647C135.792 63.0078 135.792 62.0532 136.746 61.4963C137.701 60.9394 139.371 60.9394 140.326 61.4963C141.201 61.9736 141.281 62.8487 140.565 63.4056L177.237 84.5671H197.682L129.666 45.3467C128.712 45.7445 127.28 45.7445 126.405 45.1876C125.45 44.6308 125.45 43.6761 126.405 43.1192C127.359 42.5623 129.03 42.5623 129.984 43.1192C130.86 43.5966 130.939 44.4716 130.223 45.0285L222.819 98.4891V125.697L222.66 125.776L168.805 156.882L179.624 163.167L271.583 110.024V78.3618L271.743 78.2823L303.006 60.2234C302.29 59.6665 302.369 58.871 303.244 58.3141C304.199 57.7572 305.87 57.7572 306.824 58.3141C307.779 58.871 307.779 59.8256 306.824 60.3825C305.949 60.8599 304.517 60.9394 303.563 60.5416L272.14 78.68V110.343L271.981 110.422L180.101 163.485L190.442 169.452L281.448 116.946H335.701L369.589 97.3753V67.3038C369.271 67.2242 368.873 67.1446 368.635 66.9855C367.68 66.4287 367.68 65.474 368.635 64.9171C369.589 64.3602 371.26 64.3602 372.214 64.9171C373.169 65.474 373.169 66.4287 372.214 66.9855C371.657 67.3038 370.941 67.4629 370.226 67.3833V97.6935L370.066 97.7731L335.86 117.503H281.607L204.841 161.814H220.274L246.446 146.699H266.651H266.731L294.733 162.849C295.687 162.451 297.119 162.451 297.994 163.008C298.949 163.565 298.949 164.519 297.994 165.076C297.04 165.633 295.369 165.633 294.414 165.076C293.539 164.599 293.46 163.724 294.176 163.167L266.492 147.176H246.605L220.433 162.292H203.886L191.079 169.69L218.603 185.601L226.479 181.066V169.213L246.366 157.757C245.65 157.2 245.73 156.405 246.605 155.848C247.559 155.291 249.23 155.291 250.185 155.848C251.139 156.405 251.139 157.359 250.185 157.916C249.309 158.394 247.878 158.473 246.923 158.075L227.035 169.531V180.748L248.275 168.576H258.299H258.378L270.39 175.498C271.345 175.1 272.777 175.1 273.652 175.657C274.606 176.214 274.606 177.168 273.652 177.725C272.697 178.282 271.027 178.282 270.072 177.725C269.197 177.248 269.117 176.373 269.833 175.816L258.219 169.133H248.434L219.24 185.999L224.569 189.101L207.625 198.887L215.58 203.501H227.592L236.184 198.568C235.468 198.012 235.627 197.216 236.502 196.739C237.457 196.182 239.127 196.182 240.082 196.739C241.036 197.296 241.036 198.25 240.082 198.807C239.207 199.364 237.775 199.364 236.82 198.966L227.831 204.137H216.694L236.9 215.832L284.471 188.385H318.677H318.757L338.008 199.523C338.962 199.125 340.394 199.125 341.269 199.682C342.224 200.239 342.224 201.194 341.269 201.751C340.315 202.308 338.644 202.308 337.69 201.751C336.815 201.273 336.735 200.398 337.451 199.841L318.518 188.942H284.55L247.878 210.104H263.549L278.902 201.273C278.186 200.716 278.266 199.921 279.141 199.364C280.095 198.807 281.766 198.807 282.721 199.364C283.675 199.921 283.675 200.876 282.721 201.432C281.845 201.91 280.414 201.989 279.459 201.592L263.708 210.661H246.843L237.377 216.15L261.401 229.913H338.644L398.625 195.307C397.909 194.75 397.988 193.954 398.864 193.397C399.818 192.841 401.489 192.841 402.443 193.397C403.398 193.954 403.398 194.909 402.443 195.466C401.568 195.943 400.136 196.023 399.182 195.625L338.803 230.47H262.435L271.981 236.039H329.178H329.257L357.418 252.347C358.373 251.949 359.804 251.949 360.68 252.506C361.634 253.063 361.634 254.018 360.68 254.575C359.725 255.132 358.054 255.132 357.1 254.575C356.225 254.097 356.145 253.222 356.861 252.665L329.019 236.595H271.822H271.743L206.989 199.205L199.829 203.342L267.924 242.642H317.723H317.802L377.942 277.407H461.31L477.379 268.099V268.735L461.39 277.964H377.783H377.703L339.917 256.166V269.054L364.816 283.453C365.771 283.055 367.203 283.055 368.078 283.612C369.032 284.169 369.032 285.124 368.078 285.681C367.123 286.237 365.453 286.237 364.498 285.681C363.623 285.203 363.543 284.328 364.259 283.771L339.36 269.372V255.927H339.519L317.563 243.278H267.765H267.686L199.273 203.74L191.079 208.433L323.927 285.124V298.966H323.371V285.442L190.522 208.751L180.419 214.559L248.912 254.097V261.178L261.083 268.179V284.408L284.63 298.011C285.584 297.614 287.016 297.614 287.891 298.171C288.289 298.409 288.448 298.648 288.607 298.887H283.675C283.755 298.727 283.914 298.489 284.073 298.33L260.526 284.726V268.497L248.912 261.814V287.828L242.07 291.806L254.401 298.887H253.287L241.514 292.124L229.74 298.887H228.626L248.355 287.51V254.416L179.862 214.798L170.635 220.128L219.08 248.131C220.035 247.733 221.467 247.733 222.342 248.29C223.297 248.847 223.297 249.801 222.342 250.358C221.387 250.915 219.717 250.915 218.762 250.358C217.887 249.881 217.808 249.085 218.524 248.449L170.078 220.446L161.168 225.537L219.16 259.03H234.911C234.991 258.791 235.229 258.473 235.627 258.314C236.581 257.757 238.252 257.757 239.207 258.314C240.161 258.871 240.161 259.825 239.207 260.382C238.252 260.939 236.581 260.939 235.627 260.382C235.229 260.144 234.991 259.905 234.911 259.666H219.001H218.921L160.611 226.015L157.031 228.083L154.247 226.492L140.326 234.527V245.665L151.781 252.268H169.759H169.839L189.567 263.644C190.522 263.246 191.954 263.246 192.829 263.803C193.784 264.36 193.784 265.315 192.829 265.871C191.874 266.428 190.204 266.428 189.249 265.871C188.374 265.394 188.295 264.519 189.011 263.962L169.6 252.745H152.815L186.545 272.236C187.499 271.758 188.931 271.838 189.886 272.315C190.84 272.872 190.84 273.827 189.886 274.384C188.931 274.941 187.26 274.941 186.306 274.384C185.431 273.906 185.351 273.111 185.988 272.554L143.906 248.21V253.62L168.964 268.099V278.282L189.329 290.056C190.283 289.658 191.715 289.658 192.59 290.215C193.545 290.772 193.545 291.727 192.59 292.284C191.636 292.84 189.965 292.84 189.011 292.284C188.136 291.806 188.056 290.931 188.772 290.374L168.407 278.6V268.417L143.349 253.938V247.892L139.849 245.903V234.05L153.77 226.015L144.622 220.764L116.063 237.311V256.086L135.473 267.303C136.428 266.826 137.86 266.906 138.815 267.383C139.769 267.94 139.769 268.895 138.815 269.451C137.86 270.008 136.189 270.008 135.235 269.451C134.36 268.974 134.28 268.179 134.917 267.622L116.063 256.723V271.918L130.939 280.509V298.887H130.382V280.828L116.063 272.554V298.887H115.506V236.993L144.065 220.446L133.803 214.559L96.4144 236.118V287.51L78.4361 297.852V298.887H77.8792V297.534L95.8575 287.192V235.8L133.246 214.241L125.609 209.865L75.1745 238.982V282.817L47.2524 298.887H46.1388L74.6177 282.498V238.664L125.052 209.547L112.722 202.467L28.7968 250.915V272.713L-0.000244141 289.34V288.704L28.1604 272.395V250.597L75.3336 223.31H38.0247L-0.000244141 245.267V244.63L37.9451 222.753H76.4473L112.165 202.069L97.8463 193.795L67.14 211.536H17.8189L0.0792847 221.798V221.162L3.97726 218.934H0.0792847V218.378H4.93182L17.6598 211.058H66.9808L75.5723 206.126H54.571H54.4915L43.9909 200.08H0.158844L-0.000244141 200.16V199.523H42.9568L31.1038 192.681C30.1492 193.079 28.7173 193.079 27.8423 192.522C26.8877 191.965 26.8877 191.011 27.8423 190.454C28.7969 189.897 30.4674 189.897 31.422 190.454C32.2971 190.931 32.3766 191.806 31.6607 192.363L54.6506 205.649H76.4473L97.2099 193.716L89.5731 189.261L94.5052 186.397H80.1862L61.4919 197.216C62.2079 197.773 62.1283 198.568 61.2533 199.125C60.2987 199.682 58.6281 199.682 57.6735 199.125C56.7189 198.568 56.7189 197.614 57.6735 197.057C58.5486 196.58 59.9805 196.5 60.9351 196.898L80.1066 185.84H95.5393L106.04 179.794L99.5964 176.055H88.1412L78.1179 170.247H70.6402L53.696 180.032C54.4915 180.589 54.4119 181.385 53.4573 181.942C52.5027 182.498 50.8322 182.498 49.8776 181.942C48.923 181.385 48.923 180.43 49.8776 179.873C50.7526 179.396 52.105 179.316 53.0596 179.714L70.4015 169.69H78.1974L88.2207 175.498H98.5622L77.9588 163.565H66.8218L43.5932 176.93H-0.000244141V176.373H43.4341L66.6627 163.008H78.1179H78.1974L106.597 179.396L114.074 175.1L82.0158 156.564H59.4236L40.7293 167.304H0.0792847V166.747H40.5703L58.2303 156.564H0.0792847V156.007H82.0954H82.1749L114.631 174.623L123.064 169.77L78.3565 143.915H0.0792847V143.358H57.1167L0.0792847 110.422V109.786L58.2303 143.358H77.9588L35.5586 118.855V113.445L15.2733 101.751C14.3187 102.149 12.8868 102.149 12.0118 101.592C11.0572 101.035 11.0572 100.08 12.0118 99.5233C12.9664 98.9664 14.637 98.9664 15.5916 99.5233C16.4666 100.001 16.5461 100.796 15.8302 101.433L26.8877 107.797V92.9998L0.0792847 77.5663V76.9298L27.4445 92.6816V108.115L36.1154 113.127V118.537L78.8338 143.199L78.6747 143.437L123.62 169.452L131.814 164.758L85.6751 138.107V94.2727L0.0792847 44.7899V44.1534L72.1516 85.7604V46.1423L16.9439 14.3205L16.8643 14.4001C15.9097 14.957 14.2392 14.957 13.2846 14.4001C12.33 13.7637 12.33 12.8886 13.2846 12.2521ZM90.7663 189.022L157.031 227.288L223.297 189.022L157.031 150.756L90.7663 189.022Z" fill="url(#paint1_radial_140_2348)"/>
<path opacity="0.1" d="M0.0798645 80.9072L11.8532 87.7489V109.706L116.541 170.167L124.496 165.553L70.4816 134.368V128.799L60.9356 123.31V110.501L42.4005 99.7616C41.605 100.08 40.5708 100.08 39.8549 99.682C39.0594 99.2047 39.0594 98.4887 39.8549 98.0909C40.6504 97.6136 41.9232 97.6136 42.6391 98.0909C43.3551 98.4887 43.4346 99.1251 42.8777 99.6025L61.4129 110.342V123.151L70.5612 128.401V107.876L70.6407 107.797L75.891 104.773L44.2301 86.476V65.951L21.7175 52.9836C20.922 53.3018 19.8878 53.3018 19.1718 52.904C18.3763 52.4267 18.3763 51.7107 19.1718 51.313C19.9673 50.8356 21.2401 50.8356 21.9561 51.313C22.6721 51.7107 22.7516 52.3472 22.1947 52.8245L44.7074 65.7919V86.3169L76.3683 104.614L127.837 74.861V51.8698C127.439 51.8698 126.962 51.7107 126.644 51.5516C125.848 51.0743 125.848 50.3583 126.644 49.9605C127.439 49.4832 128.712 49.4832 129.428 49.9605C130.224 50.4379 130.224 51.1539 129.428 51.5516C129.11 51.7107 128.712 51.8698 128.235 51.8698V75.0997L128.155 75.1793L97.2104 93.079H119.803L138.02 82.5778C137.463 82.1005 137.542 81.4641 138.258 81.0663C139.054 80.589 140.327 80.589 141.042 81.0663C141.838 81.5436 141.838 82.2596 141.042 82.6574C140.327 83.0551 139.213 83.1347 138.497 82.7369L119.962 93.4768H96.4945L71.0385 108.194V134.288L124.973 165.155L132.212 160.939L94.0284 138.902C93.2329 139.221 92.1987 139.221 91.4828 138.823C90.6873 138.345 90.6873 137.629 91.4828 137.232C92.2783 136.754 93.5511 136.754 94.267 137.232C94.983 137.629 95.0626 138.266 94.5057 138.743L132.69 160.78L139.69 156.722L93.9489 130.31H81.539C81.4595 130.549 81.3004 130.708 80.9822 130.867C80.1867 131.345 78.9139 131.345 78.198 130.867C77.4025 130.39 77.4025 129.674 78.198 129.276C78.9935 128.799 80.2663 128.799 80.9822 129.276C81.3004 129.435 81.4595 129.674 81.539 129.833H94.108H94.1875L140.088 156.484L142.872 154.893L142.952 154.972L145.02 156.166L155.998 149.881V141.05L146.929 135.8H132.769L117.098 126.81C116.302 127.128 115.268 127.128 114.552 126.73C113.757 126.253 113.757 125.537 114.552 125.139C115.348 124.662 116.621 124.662 117.337 125.139C118.052 125.537 118.132 126.174 117.575 126.651L132.928 135.322H146.293L119.723 119.968C118.928 120.287 117.814 120.287 117.098 119.889C116.302 119.411 116.302 118.696 117.098 118.298C117.893 117.82 119.166 117.82 119.882 118.298C120.598 118.696 120.678 119.332 120.121 119.73L153.293 138.902V134.686L133.565 123.31V115.275L117.496 105.967C116.7 106.285 115.666 106.285 114.95 105.887C114.155 105.41 114.155 104.694 114.95 104.296C115.746 103.819 117.018 103.819 117.734 104.296C118.45 104.694 118.53 105.33 117.973 105.808L134.042 115.116V123.151L153.771 134.527V139.3L156.555 140.891V150.199L145.577 156.484L152.736 160.621L175.249 147.574V132.777L159.975 123.946C159.18 124.264 158.066 124.264 157.35 123.867C156.555 123.389 156.555 122.673 157.35 122.275C158.146 121.798 159.419 121.798 160.134 122.275C160.85 122.673 160.93 123.31 160.373 123.707L175.249 132.299V120.366L163.476 113.604V91.0901C163.078 91.0901 162.6 90.931 162.282 90.7719C161.487 90.2946 161.487 89.5786 162.282 89.1808C163.078 88.7035 164.351 88.7035 165.067 89.1808C165.862 89.6582 165.862 90.3741 165.067 90.7719C164.748 90.931 164.351 91.0901 163.873 91.0901V113.286L175.169 119.809V80.1912H175.647V147.892L153.134 160.939L161.248 165.633L190.682 148.608V108.115L204.842 99.9207V84.6462L217.331 77.4068C216.774 76.9295 216.854 76.293 217.57 75.8953C218.365 75.4179 219.638 75.4179 220.354 75.8953C221.149 76.3726 221.149 77.0886 220.354 77.4863C219.638 77.8841 218.524 77.9637 217.808 77.5659L205.319 84.8053V100.08L191.159 108.274V148.767L161.725 165.792L167.692 169.213L207.467 146.221V111.695L207.546 111.615L242.707 91.2492C242.151 90.7719 242.23 90.1355 242.946 89.7377C243.742 89.2604 245.014 89.2604 245.73 89.7377C246.526 90.215 246.526 90.931 245.73 91.3288C245.014 91.7266 243.901 91.8061 243.185 91.4084L207.865 111.774V146.301L207.785 146.38L168.169 169.292L177.874 174.861L243.98 136.675V119.491L244.06 119.411L299.427 87.4306C298.87 86.9533 298.949 86.3169 299.665 85.9191C300.461 85.4418 301.734 85.4418 302.449 85.9191C303.245 86.3964 303.245 87.1124 302.449 87.5102C301.734 87.908 300.62 87.9875 299.904 87.5897L244.458 119.65V136.834L244.378 136.913L207.308 158.314H236.741L270.789 138.664C270.232 138.186 270.311 137.55 271.027 137.152C271.823 136.675 273.096 136.675 273.811 137.152C274.607 137.629 274.607 138.345 273.811 138.743C273.096 139.141 271.982 139.221 271.266 138.823L236.9 158.711H206.592L178.431 174.94L189.727 181.464L213.91 167.462H252.81L297.04 141.925H321.541L331.565 136.118C331.008 135.641 331.087 135.004 331.803 134.606C332.599 134.129 333.872 134.129 334.588 134.606C335.383 135.084 335.383 135.8 334.588 136.197C333.872 136.595 332.758 136.675 332.042 136.277L321.701 142.244H297.199L263.788 161.496H292.665L306.347 153.938C305.791 153.461 305.87 152.824 306.586 152.427C307.382 151.949 308.654 151.949 309.37 152.427C310.166 152.904 310.166 153.62 309.37 154.018C308.654 154.415 307.541 154.495 306.825 154.097L292.585 162.291H262.834L252.81 168.099H213.91L207.149 171.997H223.615H223.695L231.968 176.77H266.493L276.198 171.122H295.767C295.847 170.883 296.006 170.724 296.324 170.565C297.12 170.088 298.392 170.088 299.108 170.565C299.904 171.042 299.904 171.758 299.108 172.156C298.313 172.633 297.04 172.633 296.324 172.156C296.006 171.997 295.847 171.758 295.767 171.599H276.357L266.652 177.248H232.764L242.071 182.657C242.867 182.339 243.901 182.339 244.617 182.737C245.412 183.214 245.412 183.93 244.617 184.328C243.821 184.805 242.548 184.805 241.832 184.328C241.116 183.93 241.037 183.294 241.594 182.816L223.456 172.315H206.273L189.966 181.782L196.012 185.282L195.693 185.442L192.114 187.51H203.41L218.206 178.998C217.649 178.52 217.729 177.884 218.445 177.486C219.24 177.009 220.513 177.009 221.229 177.486C222.024 177.964 222.024 178.679 221.229 179.077C220.513 179.475 219.399 179.555 218.683 179.157L203.569 187.908H191.398L183.124 192.681L188.216 195.625H197.205H197.284L205.16 200.159H211.047L224.411 192.442C223.774 191.965 223.854 191.329 224.57 190.931C225.365 190.454 226.638 190.454 227.354 190.931C228.15 191.408 228.15 192.124 227.354 192.522C226.638 192.92 225.604 192.999 224.809 192.681L211.126 200.557H205.001H204.921L197.046 196.022H188.932L205.16 205.41H213.91L232.207 194.829H287.335L321.541 175.1C320.985 174.622 320.985 173.986 321.701 173.588C322.496 173.111 323.769 173.111 324.485 173.588C325.28 174.065 325.28 174.781 324.485 175.179C323.769 175.577 322.735 175.656 321.939 175.338L287.414 195.306H232.366L214.069 205.887H205.08H205.001L182.647 192.999L176.76 196.42L202.057 210.979H219.877L234.593 202.466H272.38C272.459 202.228 272.618 202.068 272.936 201.909C273.732 201.432 275.005 201.432 275.721 201.909C276.516 202.387 276.516 203.103 275.721 203.5C274.925 203.978 273.652 203.978 272.936 203.5C272.618 203.341 272.459 203.103 272.38 202.944H234.752L220.831 210.979H274.05H274.13L324.803 240.255C325.599 239.936 326.633 239.936 327.349 240.334C328.144 240.811 328.144 241.527 327.349 241.925C326.553 242.403 325.28 242.403 324.564 241.925C323.848 241.527 323.769 240.891 324.326 240.414L273.891 211.297H201.978H201.898L176.363 196.579L169.68 200.398L204.921 220.764H266.97H267.05L321.382 252.108H384.704L421.695 231.185C421.138 230.708 421.218 230.072 421.934 229.674C422.729 229.197 424.002 229.197 424.718 229.674C425.513 230.151 425.513 230.867 424.718 231.265C424.002 231.663 422.888 231.742 422.172 231.344L384.943 252.824H321.382H321.303L266.97 221.48H221.786L288.051 259.825V269.928L314.541 285.203C315.337 284.885 316.371 284.885 317.087 285.282C317.882 285.76 317.882 286.476 317.087 286.873C316.291 287.351 315.018 287.351 314.302 286.873C313.586 286.476 313.507 285.839 314.064 285.362L287.574 270.087V259.984L220.752 221.4H205.239L238.65 240.732V244.948L254.64 254.177C255.435 253.858 256.47 253.858 257.186 254.256C257.981 254.733 257.981 255.449 257.186 255.847C256.39 256.325 255.117 256.325 254.401 255.847C253.685 255.449 253.606 254.813 254.163 254.336L245.492 249.324V260.939L295.767 289.976C296.563 289.658 297.597 289.658 298.313 290.056C299.108 290.533 299.108 291.249 298.313 291.647C297.517 292.124 296.245 292.124 295.529 291.647C294.813 291.249 294.733 290.612 295.29 290.135L245.014 261.098V248.926L238.173 244.948V241.05L204.444 221.559L204.523 221.4L169.124 200.955L162.68 204.694L199.034 225.696V260.223L265.936 298.886H265.061L209.694 266.905V298.17L210.967 298.886H210.092L209.296 298.409V266.667L198.716 260.541V226.014L162.362 205.012L156.714 208.274L184.795 224.503V243.437L184.715 243.516L152.816 261.893V268.337L170.874 278.759C171.669 278.441 172.703 278.441 173.419 278.838C174.215 279.316 174.215 280.032 173.419 280.43C172.624 280.907 171.351 280.907 170.635 280.43C169.919 280.032 169.84 279.395 170.396 278.918L152.339 268.496V261.575L152.418 261.496L184.318 243.119V224.662L163.157 212.411V220.286L172.863 225.935C173.658 225.617 174.692 225.617 175.408 226.014C176.204 226.492 176.204 227.208 175.408 227.605C174.613 228.083 173.34 228.083 172.624 227.605C171.908 227.208 171.828 226.571 172.385 226.094L162.68 220.446V212.013L156.237 208.274L148.679 212.649V226.412L162.998 234.686V244.153L162.919 244.232L132.849 261.575C133.406 262.052 133.326 262.689 132.61 263.087C131.815 263.564 130.542 263.564 129.826 263.087C129.03 262.609 129.03 261.893 129.826 261.496C130.542 261.098 131.656 261.018 132.372 261.416L162.601 243.994V235.004L148.759 226.969V236.436L130.224 247.096C130.781 247.574 130.701 248.21 129.985 248.608C129.19 249.085 127.917 249.085 127.201 248.608C126.405 248.13 126.405 247.414 127.201 247.017C127.917 246.619 129.03 246.539 129.746 246.937L148.282 236.277V213.047L142.952 216.15L142.872 216.07L134.201 211.058L126.246 215.672V226.81L105.165 238.982V249.483C105.563 249.483 106.04 249.642 106.359 249.801C107.154 250.278 107.154 250.994 106.359 251.392C105.563 251.869 104.29 251.869 103.574 251.392C102.779 250.915 102.779 250.199 103.574 249.801C103.893 249.642 104.29 249.483 104.768 249.483V238.743L125.769 226.651V215.99L91.5624 235.72V256.643L110.098 267.383H127.121H127.201L156.396 284.248C157.191 283.93 158.225 283.93 158.941 284.328C159.737 284.805 159.737 285.521 158.941 285.919C158.146 286.396 156.873 286.396 156.157 285.919C155.441 285.521 155.361 284.885 155.918 284.407L126.962 267.701H110.813L164.43 298.647C165.226 298.329 166.26 298.329 166.976 298.727H163.714L91.0055 256.722V235.322L91.0851 235.243L133.565 210.74L125.053 205.808L52.5829 247.653V272.633L27.8428 286.953C28.3997 287.43 28.3201 288.067 27.6041 288.465C26.8086 288.942 25.5358 288.942 24.8199 288.465C24.0244 287.987 24.0244 287.271 24.8199 286.873C25.5358 286.476 26.6495 286.396 27.3655 286.794L52.1056 272.474V247.494L52.1851 247.414L124.576 205.648L116.462 200.955L44.787 242.323H1.98907L0.000335693 243.516V243.039L1.90948 241.925H44.7074L105.245 207.001H93.0738L72.3908 218.934H56.4808H56.4012L34.3659 206.205C33.5704 206.524 32.5363 206.524 31.8203 206.126C31.0248 205.648 31.0248 204.932 31.8203 204.535C32.6158 204.057 33.8886 204.057 34.6046 204.535C35.3205 204.932 35.4001 205.569 34.8432 206.046L56.6399 218.616H72.3112L92.9943 206.683H106.04L116.143 200.875L94.4261 188.306L88.2213 191.886V201.273L72.5499 210.342C73.1068 210.819 73.0272 211.456 72.3112 211.854C71.5157 212.331 70.243 212.331 69.527 211.854C68.7315 211.376 68.7315 210.66 69.527 210.263C70.243 209.865 71.3567 209.785 72.0726 210.183L87.744 201.114V192.283L71.0385 201.909H63.0835H63.0039L53.5375 196.42C52.742 196.738 51.7078 196.738 50.9919 196.341C50.1964 195.863 50.1964 195.147 50.9919 194.749C51.7874 194.272 53.0602 194.272 53.7761 194.749C54.4921 195.147 54.5716 195.784 54.0147 196.261L63.163 201.591H70.8794L93.9489 187.908L89.7327 185.521L90.0509 185.362L103.097 177.884L96.8127 174.304H87.3462L80.5845 178.202C81.1413 178.679 81.0617 179.236 80.3458 179.634C79.5503 180.111 78.2775 180.111 77.5616 179.634C76.7661 179.157 76.7661 178.441 77.5616 178.043C78.2775 177.645 79.3912 177.566 80.1867 177.964L87.2667 173.906H96.0967L80.1867 164.678L42.6391 186.317H15.6716H15.5921L0.398071 177.566C0.318512 177.645 0.159393 177.645 0.0798645 177.645V175.577C0.318512 175.656 0.4776 175.736 0.636719 175.816C1.35266 176.213 1.43219 176.85 0.875366 177.327L15.8307 185.919H42.5596L71.5157 169.213H59.106L47.0144 176.213C47.5712 176.691 47.4917 177.327 46.7757 177.725C45.9802 178.202 44.7074 178.202 43.9915 177.725C43.196 177.248 43.196 176.532 43.9915 176.134C44.7074 175.736 45.8211 175.656 46.5371 176.054L58.9469 168.894H72.2317L79.7094 164.598L60.697 153.62H0.159393V153.143H59.981L52.4238 148.767H7.39847H7.31888L0.159393 144.63V144.153L7.478 148.369H52.5033H52.5829L103.654 177.884L109.302 174.622L55.6057 143.596H16.3876H16.3081L0.159393 134.288V133.811L16.4671 143.278H55.6853H55.7649L109.7 174.463L116.143 170.724L11.4555 110.263V88.3057L0.0798645 81.7823V80.9072ZM90.6078 185.521L142.872 215.672L195.137 185.521L142.872 155.37L90.6078 185.521Z" fill="#42E8E0"/>
</g>
<defs>
<linearGradient id="paint0_linear_140_2348" x1="235.941" y1="-5.41846" x2="235.941" y2="292.634" gradientUnits="userSpaceOnUse">
<stop stop-color="#D9D9D9"/>
<stop offset="1" stop-color="#D9D9D9" stop-opacity="0"/>
</linearGradient>
<radialGradient id="paint1_radial_140_2348" cx="0" cy="0" r="1" gradientUnits="userSpaceOnUse" gradientTransform="translate(-10.2624 55.1382) scale(349.497 349.516)">
<stop stop-color="#FF2C9C"/>
<stop offset="0.0300632" stop-color="#F62F9F"/>
<stop offset="0.2023" stop-color="#C63EB0"/>
<stop offset="0.3737" stop-color="#9E4BBE"/>
<stop offset="0.5413" stop-color="#7F54C9"/>
<stop offset="0.7039" stop-color="#695BD1"/>
<stop offset="0.8594" stop-color="#5C60D5"/>
<stop offset="1" stop-color="#5761D7"/>
</radialGradient>
</defs>
</svg>
