<svg width="32" height="33" viewBox="0 0 32 33" fill="none" xmlns="http://www.w3.org/2000/svg">
<path fill-rule="evenodd" clip-rule="evenodd" d="M14.0022 4.92364V6.84734L13.0411 6.8738C12.0361 6.90142 11.7151 6.95748 11.0634 7.21906C9.95472 7.66405 8.87933 8.72589 8.41645 9.83267C8.12682 10.5252 8.04029 10.974 8.03999 11.7852C8.03979 12.3789 8.06136 12.6093 8.15143 12.9755C8.27136 13.4631 8.60123 14.2215 8.85906 14.6027C9.08403 14.9353 9.58101 15.4647 9.90979 15.722C10.5845 16.25 11.1272 16.4688 12.8164 16.8932L14.0022 17.1912V19.6464V22.1017L13.066 22.085C12.1586 22.0689 12.1212 22.064 11.8462 21.9267C11.5248 21.7662 11.2903 21.5201 11.1366 21.1823C11.0439 20.9785 11.0295 20.8385 11.0151 19.999L10.9987 19.0469H9.49938H8L8.02332 20.1768C8.04289 21.1238 8.06411 21.3724 8.15438 21.7129C8.58186 23.3254 9.79745 24.5574 11.396 24.9982C11.7141 25.0859 11.972 25.1083 12.8913 25.1279L14.0022 25.1516V27.0758V29H15.5H16.9978V27.0764V25.1529L17.934 25.1278C18.7268 25.1066 18.9444 25.0828 19.3548 24.9728C20.2211 24.7406 20.9878 24.2792 21.6194 23.61C22.2182 22.9757 22.5952 22.3001 22.8243 21.4513C22.9419 21.0156 22.9594 20.8563 22.9601 20.2148C22.961 19.3306 22.8552 18.8246 22.5184 18.1014C22.2531 17.5319 22.0762 17.2647 21.676 16.8297C21.2808 16.3999 20.8922 16.0983 20.3801 15.8236C19.8901 15.5608 19.523 15.4421 18.0838 15.0813L16.9978 14.809V12.3537V9.89833L17.934 9.91498C18.8414 9.93113 18.8788 9.93601 19.1538 10.0733C19.4752 10.2338 19.7097 10.4799 19.8634 10.8177C19.9561 11.0215 19.9705 11.1615 19.9849 12.001L20.0013 12.9531H21.5006H23L22.9767 11.8232C22.9571 10.8762 22.9359 10.6276 22.8456 10.2871C22.4196 8.68024 21.1989 7.43864 19.619 7.00537C19.2843 6.91356 19.0398 6.89198 18.1087 6.87207L16.9978 6.84836V4.92415V3H15.5H14.0022V4.92364ZM14.0022 11.9629C14.0022 13.5747 13.9887 14.0194 13.9398 14.0189C13.7437 14.0167 12.1115 13.5463 11.935 13.4411C11.643 13.2671 11.3217 12.8976 11.1651 12.5558C11.0533 12.3118 11.033 12.1975 11.0325 11.8105C11.032 11.4042 11.0491 11.3169 11.1862 11.0234C11.4344 10.4923 11.9119 10.0884 12.4417 9.9614C12.5448 9.93667 12.9381 9.91417 13.3157 9.91133L14.0022 9.90625V11.9629ZM17.9887 18.2077C18.4651 18.3319 18.9494 18.49 19.065 18.5589C19.357 18.7329 19.6783 19.1024 19.8349 19.4442C19.9467 19.6882 19.967 19.8025 19.9675 20.1895C19.968 20.5958 19.9509 20.6831 19.8138 20.9766C19.6176 21.3963 19.3074 21.7117 18.8951 21.9106C18.5828 22.0613 18.541 22.0679 17.7842 22.0858L16.9978 22.1044V20.0424C16.9978 18.4263 17.0113 17.9806 17.0602 17.9811C17.0946 17.9815 17.5124 18.0835 17.9887 18.2077Z" fill="url(#paint0_linear_22_315)"/>
<defs>
<linearGradient id="paint0_linear_22_315" x1="15.5" y1="3" x2="15.5" y2="29" gradientUnits="userSpaceOnUse">
<stop stop-color="#FFAF52"/>
<stop offset="1" stop-color="#FFE352"/>
</linearGradient>
</defs>
</svg>
