<svg width="183" height="183" viewBox="0 0 183 183" fill="none" xmlns="http://www.w3.org/2000/svg">
<g filter="url(#filter0_d_124_2345)">
<circle cx="91.5" cy="91.5" r="71.5" fill="#F2C94C"/>
<path fill-rule="evenodd" clip-rule="evenodd" d="M99.776 109.736V114.605L121.417 102.099C123.3 101.022 124.755 99.5327 125.806 97.7548C126.822 95.9945 127.392 93.9627 127.392 91.7907C127.392 89.6188 126.822 87.5957 125.806 85.8266C124.755 84.0575 123.3 82.5599 121.417 81.4827L99.776 68.9852V73.8546L119.323 85.126C120.514 85.8266 121.469 86.7812 122.126 87.9372C122.818 89.0845 123.143 90.3895 123.143 91.7907C123.143 93.2007 122.81 94.4969 122.126 95.6442C121.469 96.774 120.514 97.7548 119.323 98.4555L99.776 109.736ZM63.3988 93.7437V114.982C63.3988 117.154 63.9683 119.177 64.9846 120.946C66.0009 122.715 67.4904 124.212 69.3478 125.29C71.1964 126.358 73.2378 126.901 75.2967 126.901C77.3644 126.901 79.3971 126.358 81.2457 125.29L88.0884 121.349V116.497L79.1517 121.629C77.9252 122.347 76.6109 122.689 75.2967 122.689C74.0176 122.689 72.7034 122.347 71.4768 121.629C70.2502 120.928 69.2952 119.974 68.6381 118.835C67.981 117.688 67.6218 116.392 67.6218 114.982V97.5359H71.5118V114.982C71.5118 115.7 71.6871 116.339 71.9849 116.891C72.3179 117.443 72.791 117.924 73.4218 118.283C74.0263 118.625 74.6834 118.809 75.3055 118.809C75.9626 118.809 76.6022 118.625 77.2242 118.283C82.6913 115.104 87.3524 112.416 91.8382 109.832C91.8382 113.142 91.9609 116.847 91.9609 120.315V123.223V123.608L83.2346 128.644C80.7638 130.063 78.0478 130.781 75.3143 130.781C72.5982 130.781 69.8997 130.08 67.4641 128.644C64.9408 127.225 62.9782 125.22 61.6377 122.881C60.271 120.517 59.4912 117.819 59.4912 114.982V89.8465C62.2423 89.8465 64.9057 89.8552 67.6218 89.8552V68.6173C67.6218 62.697 74.0176 59.0012 79.1517 61.9701L88.0708 67.1022V62.2328L81.2457 58.3005C73.2904 53.7202 63.3988 59.4303 63.3988 68.6173V86.0368H59.4912V68.6173C59.4912 56.4701 72.7034 48.8683 83.217 54.9463L91.9434 59.982C91.9434 64.5975 91.8207 69.3705 91.8207 73.767C82.227 68.3896 82.0518 68.1269 77.2067 65.3156C74.6659 63.8443 71.5031 65.6747 71.5031 68.6173V93.6386C68.8133 93.6386 66.1849 93.7437 63.3988 93.7437ZM123.379 105.462L95.8334 121.357C95.8334 116.777 95.7458 112.17 95.7458 107.572L117.351 95.0837H117.369C118 94.7421 118.473 94.2604 118.779 93.7262V93.7087C119.077 93.1745 119.253 92.5176 119.253 91.7995C119.253 91.0813 119.077 90.442 118.779 89.8903V89.8727C118.473 89.3385 118 88.8568 117.369 88.4978H117.351L95.7458 76.0178C95.7458 71.3936 95.8334 66.9971 95.8334 62.2328C104.919 67.47 114.118 72.7773 123.379 78.1284C125.832 79.5472 127.804 81.5527 129.17 83.8999C130.52 86.2557 131.264 88.9619 131.264 91.7995C131.264 94.637 130.52 97.3345 129.17 99.6991C127.812 102.046 125.832 104.043 123.379 105.462Z" fill="#231F20"/>
</g>
<defs>
<filter id="filter0_d_124_2345" x="0" y="0" width="183" height="183" filterUnits="userSpaceOnUse" color-interpolation-filters="sRGB">
<feFlood flood-opacity="0" result="BackgroundImageFix"/>
<feColorMatrix in="SourceAlpha" type="matrix" values="0 0 0 0 0 0 0 0 0 0 0 0 0 0 0 0 0 0 127 0" result="hardAlpha"/>
<feOffset/>
<feGaussianBlur stdDeviation="10"/>
<feColorMatrix type="matrix" values="0 0 0 0 0 0 0 0 0 0 0 0 0 0 0 0 0 0 0.4 0"/>
<feBlend mode="normal" in2="BackgroundImageFix" result="effect1_dropShadow_124_2345"/>
<feBlend mode="normal" in="SourceGraphic" in2="effect1_dropShadow_124_2345" result="shape"/>
</filter>
</defs>
</svg>
