<svg width="32" height="32" viewBox="0 0 32 32" fill="none" xmlns="http://www.w3.org/2000/svg">
<path fill-rule="evenodd" clip-rule="evenodd" d="M14.7492 6.68481C12.2174 6.90477 10.1869 7.41907 8.15032 8.35615C6.43052 9.14748 4.81178 10.2215 3.49076 11.4476C2.88946 12.0057 2.71956 12.2629 2.67443 12.6831C2.57156 13.6418 3.51046 14.4624 4.48554 14.2661C4.85253 14.1922 5.0526 14.074 5.49881 13.6676C8.39516 11.0295 12.0669 9.61117 16 9.61117C19.9331 9.61117 23.6049 11.0295 26.5012 13.6676C26.952 14.0782 27.1491 14.1937 27.5244 14.2673C28.7312 14.5037 29.7289 13.2482 29.1776 12.1869C29.0338 11.91 28.1625 11.0874 27.3727 10.4828C24.7275 8.45787 21.7415 7.23873 18.3452 6.79699C17.6181 6.70244 15.3581 6.63194 14.7492 6.68481ZM14.8968 11.5683C12.3356 11.772 9.80394 12.746 7.76582 14.3118C6.55518 15.242 6.21935 15.7043 6.26756 16.3745C6.30732 16.9278 6.58364 17.3266 7.09874 17.5741C7.365 17.702 7.47872 17.7272 7.78718 17.7268C8.27926 17.7262 8.55531 17.5965 9.12081 17.1004C10.4439 15.9397 11.8523 15.1973 13.488 14.7987C14.412 14.5735 14.9701 14.5092 16 14.5092C18.6372 14.5092 20.895 15.3596 22.8792 17.1004C23.4447 17.5965 23.7208 17.7262 24.2128 17.7268C25.0462 17.7279 25.6754 17.168 25.7325 16.3745C25.7807 15.7043 25.4448 15.242 24.2342 14.3118C21.5934 12.2829 18.2527 11.3014 14.8968 11.5683ZM15.557 16.4069C14.6994 16.4631 13.7666 16.6611 12.9998 16.9497C11.7518 17.4194 10.2471 18.5036 9.95366 19.1447C9.78288 19.5177 9.80185 19.9653 10.0053 20.3627C10.2576 20.8554 10.6893 21.1345 11.2571 21.1722C11.7363 21.2039 12.0667 21.0733 12.5568 20.6584C13.0309 20.2571 13.3794 20.0315 13.8756 19.805C15.1615 19.2179 16.8385 19.2179 18.1244 19.805C18.6206 20.0315 18.9691 20.2571 19.4432 20.6584C19.9333 21.0733 20.2638 21.2039 20.7429 21.1722C21.5542 21.1184 22.1561 20.497 22.1561 19.713C22.1561 19.2475 22.0011 18.9451 21.5425 18.516C20.4079 17.4542 18.761 16.692 17.1465 16.4815C16.6705 16.4195 15.91 16.3837 15.557 16.4069ZM15.6862 21.6883C13.873 21.8893 12.852 23.7697 13.6911 25.3627C13.9612 25.8756 14.6224 26.405 15.2095 26.5785C15.6009 26.6942 16.3957 26.6964 16.7724 26.5828C17.1929 26.4561 17.5656 26.2297 17.8867 25.906C18.6875 25.0988 18.8344 23.983 18.2761 22.9491C17.8093 22.0848 16.7521 21.5702 15.6862 21.6883Z" fill="url(#paint0_linear_22_316)"/>
<defs>
<linearGradient id="paint0_linear_22_316" x1="16" y1="6.66669" x2="16" y2="26.6667" gradientUnits="userSpaceOnUse">
<stop stop-color="#FFAF52"/>
<stop offset="1" stop-color="#FFE352"/>
</linearGradient>
</defs>
</svg>
