<svg width="7" height="7" viewBox="0 0 7 7" fill="none" xmlns="http://www.w3.org/2000/svg">
<g clip-path="url(#clip0_127_3293)">
<path d="M6.125 5.19165V1.80832V1.80737C6.125 1.4813 6.125 1.31817 6.06148 1.19351C6.00556 1.08375 5.9162 0.994506 5.80644 0.93858C5.68166 0.875 5.51842 0.875 5.19172 0.875H1.80839C1.48169 0.875 1.31822 0.875 1.19344 0.93858C1.08368 0.994506 0.994506 1.08375 0.93858 1.19351C0.875 1.31829 0.875 1.48162 0.875 1.80832V5.19165C0.875 5.51835 0.875 5.68173 0.93858 5.80651C0.994506 5.91627 1.08368 6.00549 1.19344 6.06141C1.31822 6.12499 1.48169 6.125 1.80839 6.125H5.19172C5.51842 6.125 5.68166 6.12499 5.80644 6.06141C5.9162 6.00549 6.00556 5.91627 6.06148 5.80651C6.125 5.68185 6.125 5.51867 6.125 5.19261V5.19165Z" fill="#FFE924"/>
</g>
<defs>
<clipPath id="clip0_127_3293">
<rect width="7" height="7" fill="white"/>
</clipPath>
</defs>
</svg>
