<svg width="174" height="70" viewBox="0 0 174 70" fill="none" xmlns="http://www.w3.org/2000/svg">
<path d="M20.1469 15.8507L39.8769 7.46544C41.4235 6.80814 43.1709 6.80814 44.7175 7.46544L64.4476 15.8507C64.7739 15.9894 64.9858 16.3097 64.9858 16.6643V40.4869C64.9858 43.0815 64.329 45.5939 62.8115 47.5734C58.5661 53.1113 50.9777 60.3068 42.2972 62.6102C33.6168 60.3068 26.0283 53.1113 21.7829 47.5734C20.2654 45.5939 19.6087 43.0815 19.6087 40.4869V16.6643C19.6087 16.3097 19.8205 15.9894 20.1469 15.8507Z" stroke="white" stroke-width="1.76794"/>
<path d="M83.3195 32.8024H79.1661V30.3548H90.4768V32.8024H86.3234V43.3344H83.3195V32.8024ZM97.026 30.3548V43.3344H94.0222V32.7653H91.4263V30.3548H97.026ZM114.879 36.585C115.62 36.8198 116.201 37.2154 116.622 37.7717C117.042 38.3156 117.252 38.9893 117.252 39.7928C117.252 40.93 116.807 41.8077 115.917 42.4258C115.039 43.0315 113.754 43.3344 112.06 43.3344H105.348V30.3548H111.689C113.272 30.3548 114.483 30.6576 115.324 31.2634C116.177 31.8691 116.603 32.6911 116.603 33.7295C116.603 34.3599 116.448 34.9224 116.139 35.4168C115.843 35.9113 115.422 36.3007 114.879 36.585ZM108.333 32.6169V35.6764H111.318C112.06 35.6764 112.623 35.5466 113.006 35.287C113.389 35.0274 113.581 34.6442 113.581 34.1374C113.581 33.6306 113.389 33.2536 113.006 33.0063C112.623 32.7467 112.06 32.6169 111.318 32.6169H108.333ZM111.838 41.0722C112.629 41.0722 113.222 40.9424 113.618 40.6828C114.026 40.4232 114.23 40.0215 114.23 39.4776C114.23 38.4021 113.432 37.8644 111.838 37.8644H108.333V41.0722H111.838ZM123.346 33.2103C124.891 33.2103 126.078 33.5811 126.906 34.3228C127.734 35.0522 128.148 36.1585 128.148 37.6419V43.3344H125.441V42.092C124.897 43.0191 123.884 43.4827 122.4 43.4827C121.634 43.4827 120.966 43.3529 120.398 43.0933C119.841 42.8337 119.415 42.4752 119.118 42.0179C118.822 41.5605 118.673 41.0413 118.673 40.4603C118.673 39.5332 119.019 38.8039 119.712 38.2723C120.416 37.7408 121.498 37.475 122.956 37.475H125.256C125.256 36.8446 125.064 36.3625 124.681 36.0287C124.298 35.6826 123.723 35.5095 122.956 35.5095C122.425 35.5095 121.9 35.5961 121.38 35.7691C120.874 35.9298 120.441 36.1523 120.082 36.4366L119.044 34.4155C119.588 34.0323 120.237 33.7357 120.991 33.5255C121.757 33.3154 122.542 33.2103 123.346 33.2103ZM123.123 41.5358C123.618 41.5358 124.057 41.4245 124.44 41.202C124.823 40.9671 125.095 40.6272 125.256 40.1822V39.1623H123.272C122.085 39.1623 121.492 39.5517 121.492 40.3305C121.492 40.7014 121.634 40.998 121.918 41.2205C122.215 41.4307 122.617 41.5358 123.123 41.5358ZM136.83 33.2103C138.066 33.2103 139.061 33.5811 139.815 34.3228C140.581 35.0645 140.964 36.1647 140.964 37.6233V43.3344H138.072V38.0684C138.072 37.2772 137.899 36.6901 137.553 36.3068C137.207 35.9113 136.706 35.7135 136.051 35.7135C135.321 35.7135 134.74 35.9422 134.308 36.3996C133.875 36.8446 133.659 37.5121 133.659 38.4021V43.3344H130.766V33.3586H133.529V34.5268C133.912 34.1065 134.388 33.7851 134.957 33.5626C135.525 33.3277 136.15 33.2103 136.83 33.2103ZM147.87 39.4219L146.479 40.7941V43.3344H143.586V29.576H146.479V37.3638L150.707 33.3586H154.155L150.002 37.5863L154.526 43.3344H151.022L147.87 39.4219Z" fill="white"/>
<path d="M39.8698 34.7627V49.4465H47.0234V22.338H27.8216C31.5867 28.1111 43.3336 36.1935 57.189 22.338" stroke="url(#paint0_linear_107_686)" stroke-width="2.25903"/>
<defs>
<linearGradient id="paint0_linear_107_686" x1="36.6803" y1="55.603" x2="52.9495" y2="55.2544" gradientUnits="userSpaceOnUse">
<stop stop-color="#E59F16"/>
<stop offset="0.5" stop-color="#FEC24D"/>
<stop offset="1" stop-color="#F59019"/>
</linearGradient>
</defs>
</svg>
